{"glyphs":{"0":{"ha":643,"x_min":43,"x_max":600,"o":"m 321 0 q 181 38 244 0 q 81 138 118 75 q 43 278 43 201 q 81 417 43 354 q 181 518 118 481 q 321 556 244 556 q 461 518 397 556 q 563 417 525 481 q 600 278 600 354 q 563 138 600 201 q 461 38 525 75 q 321 0 397 0 m 321 199 q 378 221 356 199 q 400 278 400 243 q 378 335 400 313 q 321 357 356 357 q 265 335 286 357 q 243 278 243 313 q 265 221 243 243 q 321 199 286 199 z "},"1":{"ha":340,"x_min":43,"x_max":281,"o":"m 82 507 q 74 744 82 638 q 43 944 67 850 l 225 975 q 268 744 256 901 q 281 401 281 586 l 281 0 l 82 0 l 82 433 l 82 507 z "},"2":{"ha":692,"x_min":43,"x_max":654,"o":"m 654 967 l 654 719 q 617 567 654 636 q 513 456 579 497 q 365 415 447 415 q 281 429 317 415 l 281 401 l 281 0 l 82 0 l 82 433 l 82 507 q 74 744 82 638 q 43 944 67 850 l 225 975 q 269 719 258 899 l 271 719 q 298 652 271 679 q 365 625 325 625 q 431 652 404 625 q 457 719 457 679 l 457 967 l 654 967 z "},"3":{"ha":971,"x_min":43,"x_max":932,"o":"m 932 967 l 932 667 q 897 535 932 596 q 800 440 861 475 q 665 404 739 404 q 572 423 614 404 q 503 476 531 442 q 339 404 442 404 q 281 411 311 404 l 281 401 l 281 0 l 82 0 l 82 433 l 82 507 q 74 744 82 638 q 43 944 67 850 l 225 975 q 274 679 258 896 l 275 679 q 293 633 275 651 q 339 614 311 614 q 384 633 365 614 q 403 679 403 651 l 403 926 l 601 926 l 601 679 q 619 633 601 651 q 665 614 638 614 q 713 633 693 614 q 733 679 733 653 l 733 967 l 932 967 z "},"4":{"ha":832,"x_min":43,"x_max":797,"o":"m 797 374 l 426 374 q 281 413 343 374 l 281 401 l 281 0 l 82 0 l 82 435 l 82 508 q 74 744 82 638 q 43 944 67 850 l 225 975 q 275 650 263 885 q 308 602 283 621 q 365 583 332 583 q 350 678 350 629 q 391 825 350 758 q 501 929 432 892 q 654 967 571 967 l 771 967 l 771 767 l 654 767 q 587 742 614 767 q 560 678 560 717 q 587 610 560 638 q 654 583 614 583 l 797 583 l 797 374 z "},"5":{"ha":1029,"x_min":40,"x_max":989,"o":"m 663 828 q 853 626 789 701 q 953 475 918 551 q 989 310 989 399 q 907 77 989 158 q 668 -4 825 -4 q 514 68 557 -4 q 360 -4 474 -4 q 122 77 204 -4 q 40 310 40 158 q 75 474 40 399 q 174 624 110 550 q 364 825 238 699 l 379 840 l 306 915 l 450 1047 q 560 932 488 1007 q 663 828 633 857 m 681 183 q 749 202 721 183 q 778 285 778 221 q 759 388 778 338 q 685 513 740 439 q 519 696 629 586 l 514 701 l 508 694 q 343 512 399 585 q 269 388 288 439 q 250 285 250 338 q 279 202 250 221 q 349 183 308 183 q 397 202 381 183 q 414 249 414 221 l 414 351 l 614 351 l 614 249 q 631 202 614 221 q 681 183 649 183 z "},"6":{"ha":771,"x_min":38,"x_max":743,"o":"m 743 735 q 631 601 688 689 q 492 368 575 514 l 454 301 l 253 -50 l 81 50 l 276 392 q 121 456 188 389 q 58 549 79 497 q 38 657 38 601 q 62 775 38 718 q 133 876 86 832 l 289 1022 l 429 883 l 274 736 q 243 669 243 710 q 271 604 243 631 q 340 578 300 578 q 401 601 379 578 q 607 858 526 799 l 743 735 z "},"7":{"ha":832,"x_min":21,"x_max":811,"o":"m 811 921 l 654 490 q 553 202 590 319 q 517 0 517 85 l 315 0 q 283 191 317 79 q 190 458 249 303 l 178 490 l 21 921 l 208 989 l 368 553 l 417 417 q 464 553 428 451 l 624 989 l 811 921 z "},"8":{"ha":832,"x_min":21,"x_max":811,"o":"m 811 44 l 624 -24 l 464 414 q 417 550 428 515 l 368 414 l 208 -24 l 21 44 l 178 475 l 192 513 q 283 777 249 665 q 315 967 317 889 l 517 967 q 551 773 517 888 q 643 506 586 658 l 654 475 l 811 44 z "},"9":{"ha":708,"x_min":33,"x_max":665,"o":"m 483 -24 q 440 160 453 49 q 426 361 426 272 l 426 375 l 338 375 q 185 413 254 375 q 74 516 115 450 q 33 664 33 582 q 74 817 33 747 q 185 927 115 886 q 338 968 254 968 q 485 927 418 968 q 589 817 551 886 q 626 664 626 747 l 626 517 l 626 443 q 634 208 626 314 q 665 7 642 101 l 483 -24 m 426 664 q 401 731 426 704 q 338 758 376 758 q 270 731 297 758 q 243 664 243 704 q 270 599 243 625 q 338 572 297 572 l 426 572 l 426 664 z "},"\r":{"ha":833,"x_min":0,"x_max":0,"o":""}," ":{"ha":239,"x_min":0,"x_max":0,"o":""},"A":{"ha":985,"x_min":13,"x_max":972,"o":"m 751 0 l 686 181 l 300 181 l 235 0 l 13 0 l 371 989 l 614 989 l 972 0 l 751 0 m 369 375 l 615 375 l 493 714 l 369 375 z "},"B":{"ha":881,"x_min":86,"x_max":832,"o":"m 501 989 q 646 951 579 989 q 751 846 713 913 q 790 701 790 779 q 766 597 790 643 q 700 521 742 550 q 797 436 761 492 q 832 306 832 381 q 790 152 832 222 q 678 41 749 82 q 525 0 608 0 l 86 0 l 86 989 l 501 989 m 483 604 q 551 633 524 604 q 579 701 579 661 q 551 768 579 740 q 483 796 522 796 l 297 796 l 297 604 l 483 604 m 514 199 q 590 230 558 199 q 621 306 621 261 q 590 379 621 347 q 514 411 558 411 l 297 411 l 297 199 l 514 199 z "},"C":{"ha":1078,"x_min":61,"x_max":1024,"o":"m 551 -19 q 306 50 418 -19 q 127 238 193 119 q 61 496 61 356 q 127 753 61 635 q 306 940 193 871 q 551 1010 418 1010 q 762 960 664 1010 q 928 822 860 910 q 1024 622 997 733 l 843 597 q 737 751 814 692 q 565 811 660 811 q 419 769 486 811 q 312 654 351 726 q 272 496 272 582 q 312 337 272 410 q 418 222 351 264 q 565 179 485 179 q 737 239 660 179 q 843 393 814 299 l 1024 371 q 928 171 997 260 q 762 31 860 82 q 551 -19 664 -19 z "},"D":{"ha":963,"x_min":74,"x_max":900,"o":"m 406 989 q 653 922 540 989 q 833 742 767 856 q 900 494 900 629 q 833 247 900 360 q 653 67 767 133 q 406 0 540 0 l 74 0 l 74 989 l 406 989 m 385 189 q 538 230 468 189 q 649 341 608 271 q 690 494 690 411 q 649 648 690 578 q 538 759 608 718 q 385 800 468 800 l 285 800 l 285 189 l 385 189 z "},"E":{"ha":790,"x_min":74,"x_max":749,"o":"m 74 989 l 747 989 l 749 794 l 285 796 l 285 583 l 696 583 l 696 404 l 285 404 l 285 193 l 747 193 l 747 0 l 74 0 l 74 989 z "},"F":{"ha":747,"x_min":74,"x_max":715,"o":"m 74 989 l 715 989 l 715 794 l 285 796 l 285 583 l 668 583 l 668 404 l 285 404 l 285 0 l 74 0 l 74 989 z "},"G":{"ha":1069,"x_min":46,"x_max":1024,"o":"m 1024 554 l 1024 496 q 958 238 1024 356 q 779 50 892 119 q 535 -19 667 -19 q 290 50 403 -19 q 112 238 178 119 q 46 496 46 356 q 112 753 46 635 q 290 940 178 871 q 535 1010 403 1010 q 807 922 685 1010 q 985 693 929 835 l 814 633 q 706 763 778 714 q 549 811 635 811 q 403 769 469 811 q 297 654 336 726 q 257 496 257 582 q 296 337 257 410 q 402 222 335 264 q 549 179 469 179 q 717 238 642 179 q 822 386 793 296 l 482 386 l 482 554 l 1024 554 z "},"H":{"ha":979,"x_min":74,"x_max":906,"o":"m 694 0 l 694 404 l 285 404 l 285 0 l 74 0 l 74 989 l 285 989 l 285 583 l 694 583 l 694 989 l 906 989 l 906 0 l 694 0 z "},"I":{"ha":358,"x_min":74,"x_max":285,"o":"m 74 0 l 74 989 l 285 989 l 285 0 l 74 0 z "},"J":{"ha":343,"x_min":-131,"x_max":268,"o":"m -51 -110 q 27 -79 -4 -110 q 58 -3 58 -49 l 58 989 l 268 989 l 268 6 q 228 -149 268 -78 q 119 -261 188 -219 q -31 -303 50 -303 l -131 -303 l -131 -110 l -51 -110 z "},"K":{"ha":924,"x_min":74,"x_max":910,"o":"m 664 0 l 382 407 l 285 297 l 285 0 l 74 0 l 74 989 l 285 989 l 285 615 l 626 989 l 896 989 l 519 563 l 910 0 l 664 0 z "},"L":{"ha":685,"x_min":74,"x_max":660,"o":"m 660 0 l 74 0 l 74 989 l 285 989 l 285 193 l 660 193 l 660 0 z "},"M":{"ha":1204,"x_min":74,"x_max":1131,"o":"m 74 989 l 383 989 l 601 326 l 821 989 l 1131 989 l 1131 0 l 931 0 l 931 685 l 704 90 l 499 90 l 274 685 l 274 0 l 74 0 l 74 989 z "},"N":{"ha":997,"x_min":74,"x_max":924,"o":"m 618 0 l 274 683 l 274 0 l 74 0 l 74 989 l 346 989 l 724 226 l 724 989 l 924 989 l 924 0 l 618 0 z "},"O":{"ha":1143,"x_min":61,"x_max":1081,"o":"m 572 -19 q 316 50 433 -19 q 130 238 199 119 q 61 496 61 356 q 130 753 61 635 q 316 940 199 871 q 572 1010 433 1010 q 826 940 710 1010 q 1012 753 943 871 q 1081 496 1081 635 q 1012 238 1081 356 q 826 50 943 119 q 572 -19 710 -19 m 572 179 q 722 222 653 179 q 831 337 790 264 q 871 496 871 410 q 831 653 871 581 q 722 769 790 726 q 572 811 653 811 q 420 769 490 811 q 310 654 350 726 q 269 496 269 582 q 310 337 269 410 q 420 222 350 264 q 572 179 490 179 z "},"P":{"ha":836,"x_min":74,"x_max":794,"o":"m 447 989 q 622 942 542 989 q 748 816 701 896 q 794 642 794 736 q 748 467 794 547 q 622 341 701 388 q 447 294 542 294 l 285 294 l 285 0 l 74 0 l 74 989 l 447 989 m 433 488 q 540 533 494 488 q 585 642 585 578 q 540 750 585 704 q 433 796 494 796 l 285 796 l 285 488 l 433 488 z "},"Q":{"ha":1149,"x_min":61,"x_max":1088,"o":"m 1088 496 q 1005 215 1088 342 q 786 28 922 89 q 883 -64 861 0 l 911 -135 l 719 -196 l 678 -89 q 575 -17 650 -17 q 318 52 436 -17 q 131 239 200 121 q 61 496 61 357 q 131 752 61 635 q 318 938 200 869 q 575 1007 436 1007 q 832 938 714 1007 q 1019 752 950 869 q 1088 496 1088 635 m 575 183 q 726 226 657 183 q 836 340 796 268 q 876 496 876 411 q 836 652 876 581 q 726 765 796 724 q 575 807 657 807 q 422 765 492 807 q 310 652 351 724 q 269 496 269 581 q 310 340 269 411 q 422 226 351 268 q 575 183 492 183 z "},"R":{"ha":878,"x_min":74,"x_max":851,"o":"m 851 0 l 643 0 l 547 228 q 497 300 526 276 q 407 324 467 324 l 285 324 l 285 0 l 74 0 l 74 989 l 449 989 q 622 942 542 989 q 748 816 701 896 q 794 642 794 736 q 758 492 794 558 q 656 383 721 426 q 743 263 707 349 l 851 0 m 285 488 l 433 488 q 539 533 494 488 q 583 642 583 579 q 539 750 583 704 q 433 796 494 796 l 285 796 l 285 488 z "},"S":{"ha":875,"x_min":44,"x_max":832,"o":"m 440 -19 q 231 9 339 -19 q 44 82 122 38 l 117 258 q 267 201 175 225 q 433 176 360 176 q 570 202 518 176 q 622 274 622 228 q 582 338 622 317 q 449 383 542 358 l 410 394 q 203 475 278 432 q 97 574 129 518 q 65 710 65 629 q 117 869 65 801 q 260 974 169 938 q 467 1011 351 1011 q 797 944 618 1011 l 728 763 q 464 814 576 814 q 328 786 379 814 q 276 710 276 758 q 297 655 276 675 q 358 621 318 635 q 485 586 399 607 q 755 469 678 539 q 832 293 832 399 q 782 126 832 197 q 643 18 732 56 q 440 -19 554 -19 z "},"T":{"ha":754,"x_min":14,"x_max":739,"o":"m 271 796 l 15 796 l 14 989 l 739 989 l 739 796 l 481 796 l 481 0 l 271 0 l 271 796 z "},"U":{"ha":921,"x_min":71,"x_max":850,"o":"m 460 -8 q 265 44 354 -8 q 123 187 175 97 q 71 382 71 276 l 71 989 l 281 989 l 281 371 q 305 281 281 322 q 370 216 329 240 q 460 192 411 192 q 550 216 508 192 q 616 281 592 240 q 640 371 640 322 l 640 989 l 850 989 l 850 382 q 798 187 850 276 q 656 44 746 97 q 460 -8 567 -8 z "},"V":{"ha":881,"x_min":13,"x_max":868,"o":"m 294 0 l 13 989 l 228 989 l 440 228 l 654 989 l 868 989 l 586 0 l 294 0 z "},"W":{"ha":1253,"x_min":13,"x_max":1240,"o":"m 13 989 l 219 989 l 332 213 l 499 910 l 756 910 l 921 213 l 1035 989 l 1240 989 l 1061 0 l 778 0 l 626 721 l 475 0 l 193 0 l 13 989 z "},"X":{"ha":910,"x_min":13,"x_max":897,"o":"m 897 989 l 578 494 l 897 0 l 653 0 l 456 306 l 258 0 l 13 0 l 333 494 l 13 989 l 258 989 l 456 683 l 653 989 l 897 989 z "},"Y":{"ha":850,"x_min":13,"x_max":836,"o":"m 317 331 l 13 989 l 240 989 l 419 583 l 608 989 l 836 989 l 526 331 l 526 0 l 317 0 l 317 331 z "},"Z":{"ha":803,"x_min":32,"x_max":771,"o":"m 771 0 l 32 0 l 32 231 l 524 796 l 43 796 l 43 989 l 767 989 l 767 758 l 278 193 l 769 193 l 771 0 z "},"a":{"ha":885,"x_min":47,"x_max":824,"o":"m 824 717 l 824 0 l 650 0 l 650 96 q 424 -17 569 -17 q 235 35 321 -17 q 98 172 149 86 q 47 360 47 258 q 98 546 47 460 q 235 683 149 632 q 424 733 321 733 q 650 621 569 733 l 650 717 l 824 717 m 436 181 q 562 232 510 181 q 614 358 614 283 q 562 485 614 433 q 436 538 510 538 q 310 485 361 538 q 258 358 258 433 q 310 232 258 283 q 436 181 361 181 z "},"b":{"ha":899,"x_min":74,"x_max":850,"o":"m 475 733 q 663 683 576 733 q 799 546 749 632 q 850 360 850 460 q 799 172 850 258 q 663 35 749 86 q 475 -17 576 -17 q 249 96 329 -17 l 249 0 l 74 0 l 74 1031 l 285 1031 l 285 663 q 475 733 360 733 m 463 181 q 588 232 536 181 q 640 358 640 283 q 588 485 640 433 q 463 538 536 538 q 336 485 388 538 q 285 358 285 433 q 336 232 285 283 q 463 181 388 181 z "},"c":{"ha":832,"x_min":47,"x_max":785,"o":"m 424 -17 q 235 35 321 -17 q 98 172 149 86 q 47 360 47 258 q 98 546 47 460 q 235 683 149 632 q 424 733 321 733 q 590 694 514 733 q 718 589 667 656 q 785 439 769 522 l 604 413 q 540 502 588 467 q 436 538 493 538 q 310 485 363 538 q 258 358 258 433 q 282 269 258 310 q 347 203 306 228 q 436 179 388 179 q 540 215 493 179 q 604 304 588 250 l 785 279 q 718 128 769 196 q 590 22 667 61 q 424 -17 514 -17 z "},"d":{"ha":899,"x_min":47,"x_max":825,"o":"m 825 1031 l 825 0 l 650 0 l 650 96 q 424 -17 569 -17 q 235 35 321 -17 q 98 172 149 86 q 47 360 47 258 q 98 546 47 460 q 235 683 149 632 q 424 733 321 733 q 614 663 539 733 l 614 1031 l 825 1031 m 436 181 q 562 232 510 181 q 614 358 614 283 q 562 485 614 433 q 436 538 510 538 q 310 485 363 538 q 258 358 258 433 q 310 232 258 283 q 436 181 363 181 z "},"e":{"ha":826,"x_min":53,"x_max":786,"o":"m 786 360 q 781 279 786 311 l 249 279 q 318 189 271 224 q 431 154 365 154 q 593 226 532 154 l 746 146 q 611 26 694 68 q 428 -17 528 -17 q 240 35 326 -17 q 103 172 154 86 q 53 360 53 258 q 103 546 53 460 q 240 683 154 632 q 428 733 326 733 q 613 683 532 733 q 740 547 694 633 q 786 360 786 461 m 431 557 q 323 525 371 557 q 251 442 275 493 l 610 442 q 538 525 586 493 q 431 557 490 557 z "},"f":{"ha":601,"x_min":25,"x_max":582,"o":"m 444 871 q 398 852 417 871 q 379 804 379 833 l 379 718 l 551 718 l 551 524 l 379 524 l 379 0 l 169 0 l 169 524 l 25 524 l 25 718 l 169 718 l 169 794 q 205 926 169 867 q 301 1021 240 986 q 432 1056 361 1056 l 582 1056 l 582 871 l 444 871 z "},"g":{"ha":881,"x_min":47,"x_max":825,"o":"m 825 717 l 825 35 q 778 -143 825 -61 q 650 -274 731 -225 q 475 -322 569 -322 l 201 -322 l 201 -124 l 490 -124 q 599 -78 553 -124 q 646 33 646 -32 l 646 90 q 424 -17 564 -17 q 235 35 321 -17 q 98 172 149 86 q 47 360 47 258 q 98 546 47 460 q 235 683 149 632 q 424 733 321 733 q 650 621 569 733 l 650 717 l 825 717 m 436 179 q 526 203 485 179 q 590 269 567 228 q 614 358 614 310 q 562 485 614 433 q 436 538 510 538 q 310 485 363 538 q 258 358 258 433 q 282 269 258 310 q 347 203 306 228 q 436 179 388 179 z "},"h":{"ha":792,"x_min":74,"x_max":749,"o":"m 449 733 q 602 689 533 733 q 710 569 671 644 q 749 406 749 494 l 749 0 l 538 0 l 538 399 q 501 488 538 450 q 410 525 464 525 q 322 488 360 525 q 285 399 285 450 l 285 0 l 74 0 l 74 1031 l 285 1031 l 285 671 q 449 733 354 733 z "},"i":{"ha":342,"x_min":63,"x_max":279,"o":"m 63 956 l 279 956 l 279 793 l 63 793 l 63 956 m 65 717 l 275 717 l 275 0 l 65 0 l 65 717 z "},"j":{"ha":335,"x_min":-76,"x_max":278,"o":"m 61 956 l 278 956 l 278 793 l 61 793 l 61 956 m 0 -85 q 46 -67 28 -85 q 64 -21 64 -49 l 64 717 l 274 717 l 274 -21 q 238 -153 274 -93 q 142 -247 203 -212 q 11 -282 82 -282 l -76 -282 l -76 -85 l 0 -85 z "},"k":{"ha":792,"x_min":74,"x_max":772,"o":"m 772 0 l 526 0 l 343 274 l 285 210 l 285 0 l 74 0 l 74 1029 l 285 1029 l 285 500 l 490 717 l 749 717 l 488 431 l 772 0 z "},"l":{"ha":372,"x_min":74,"x_max":340,"o":"m 317 0 q 195 32 251 0 q 106 119 139 64 q 74 240 74 174 l 74 1029 l 283 1029 l 283 228 q 292 206 283 214 q 317 197 301 197 l 340 197 l 340 0 l 317 0 z "},"m":{"ha":1167,"x_min":60,"x_max":1122,"o":"m 843 733 q 986 692 922 733 q 1086 581 1050 651 q 1122 428 1122 511 l 1122 0 l 911 0 l 911 418 q 880 494 911 463 q 803 526 849 526 q 728 494 760 526 q 696 418 696 463 l 696 0 l 486 0 l 486 418 q 454 494 486 463 q 378 526 422 526 q 303 494 335 526 q 271 418 271 463 l 271 0 l 60 0 l 60 717 l 235 717 l 235 644 q 417 733 307 733 q 544 701 486 733 q 640 614 601 669 q 725 701 674 668 q 843 733 776 733 z "},"n":{"ha":778,"x_min":60,"x_max":735,"o":"m 435 733 q 588 689 519 733 q 696 569 657 644 q 735 406 735 494 l 735 0 l 524 0 l 524 400 q 487 489 524 451 q 396 526 450 526 q 308 489 346 526 q 271 400 271 451 l 271 0 l 60 0 l 60 717 l 235 717 l 235 631 q 322 706 271 679 q 435 733 372 733 z "},"o":{"ha":872,"x_min":47,"x_max":824,"o":"m 438 -17 q 241 34 331 -17 q 99 171 151 85 q 47 360 47 257 q 99 547 47 461 q 241 683 151 633 q 438 733 331 733 q 631 683 543 733 q 772 547 719 633 q 824 360 824 461 q 772 171 824 257 q 631 34 719 85 q 438 -17 543 -17 m 436 181 q 562 232 510 181 q 614 358 614 283 q 562 485 614 433 q 436 538 510 538 q 310 485 361 538 q 258 358 258 433 q 310 232 258 283 q 436 181 361 181 z "},"p":{"ha":893,"x_min":68,"x_max":846,"o":"m 471 733 q 658 683 572 733 q 795 546 744 632 q 846 358 846 460 q 795 172 846 258 q 658 34 744 85 q 471 -17 572 -17 q 279 56 354 -17 l 279 -271 l 68 -271 l 68 717 l 243 717 l 243 621 q 471 733 324 733 m 457 179 q 547 203 506 179 q 611 269 588 228 q 635 358 635 310 q 583 485 635 433 q 457 538 531 538 q 331 485 383 538 q 279 358 279 433 q 303 269 279 310 q 367 203 326 228 q 457 179 408 179 z "},"q":{"ha":893,"x_min":47,"x_max":824,"o":"m 824 717 l 824 -271 l 614 -271 l 614 54 q 424 -17 539 -17 q 235 34 321 -17 q 98 172 149 85 q 47 358 47 258 q 98 546 47 460 q 235 683 149 632 q 424 733 321 733 q 650 621 569 733 l 650 717 l 824 717 m 436 179 q 526 203 485 179 q 590 269 567 228 q 614 358 614 310 q 562 485 614 433 q 436 538 510 538 q 310 485 361 538 q 258 358 258 433 q 282 269 258 310 q 347 203 306 228 q 436 179 388 179 z "},"r":{"ha":544,"x_min":60,"x_max":518,"o":"m 518 718 l 518 525 l 413 525 q 313 482 356 525 q 271 382 271 439 l 271 0 l 60 0 l 60 717 l 235 717 l 235 585 q 337 683 276 647 q 475 718 397 718 l 518 718 z "},"s":{"ha":747,"x_min":47,"x_max":704,"o":"m 390 -17 q 203 12 292 -17 q 47 92 115 40 l 136 229 q 390 156 264 156 q 472 169 447 156 q 496 207 496 182 q 471 242 496 231 q 379 271 446 254 q 159 358 228 306 q 90 506 90 410 q 172 671 90 608 q 392 733 254 733 q 539 713 465 733 q 672 657 613 692 l 600 510 q 392 560 490 560 q 324 544 350 560 q 299 503 299 529 q 324 464 299 475 q 418 442 349 453 q 632 360 560 415 q 704 211 704 304 q 620 44 704 106 q 390 -17 536 -17 z "},"t":{"ha":647,"x_min":26,"x_max":603,"o":"m 603 193 l 603 0 l 447 0 q 315 33 375 0 q 219 126 254 67 q 183 257 183 185 l 183 522 l 26 522 l 26 717 l 183 717 l 183 929 l 394 929 l 394 717 l 589 717 l 589 524 l 394 524 l 394 257 q 413 212 394 231 q 458 193 432 193 l 603 193 z "},"u":{"ha":778,"x_min":44,"x_max":718,"o":"m 718 717 l 718 0 l 544 0 l 544 86 q 458 10 508 38 q 343 -17 407 -17 q 190 28 258 -17 q 83 147 122 72 q 44 311 44 222 l 44 717 l 254 717 l 254 318 q 292 229 254 267 q 382 192 329 192 q 471 229 433 192 q 508 318 508 267 l 508 717 l 718 717 z "},"v":{"ha":767,"x_min":11,"x_max":754,"o":"m 247 0 l 11 717 l 228 717 l 382 215 l 539 717 l 754 717 l 515 0 l 247 0 z "},"w":{"ha":1017,"x_min":11,"x_max":1004,"o":"m 11 717 l 215 717 l 296 292 l 425 681 l 603 681 l 732 292 l 801 717 l 1004 717 l 885 0 l 653 0 l 514 399 l 375 0 l 147 0 l 11 717 z "},"x":{"ha":772,"x_min":11,"x_max":760,"o":"m 760 717 l 504 356 l 756 0 l 518 0 l 386 188 l 253 0 l 15 0 l 267 356 l 11 717 l 249 717 l 385 524 l 521 717 l 760 717 z "},"y":{"ha":783,"x_min":14,"x_max":769,"o":"m 769 717 l 518 -94 q 408 -267 490 -200 q 215 -335 325 -335 l 71 -335 l 71 -133 l 200 -133 q 273 -110 242 -133 q 317 -49 304 -87 l 332 0 l 218 0 l 14 717 l 226 717 l 383 165 l 556 717 l 769 717 z "},"z":{"ha":704,"x_min":39,"x_max":664,"o":"m 658 0 l 46 0 l 46 197 l 379 524 l 39 524 l 39 717 l 664 717 l 664 521 l 338 193 l 658 193 l 658 0 z "},"ﮥ":{"ha":776,"x_min":43,"x_max":790,"o":"m 78 917 l 49 1017 q 43 1058 43 1035 q 78 1161 43 1114 q 168 1222 114 1208 l 311 1261 l 347 1135 l 203 1094 q 174 1060 169 1086 l 176 1050 l 283 1054 q 377 1023 338 1054 q 431 936 417 992 q 435 897 435 918 q 403 800 435 843 q 318 743 371 757 l 147 697 l 111 829 l 282 875 q 297 883 292 876 q 303 899 303 890 q 294 917 303 910 q 275 924 286 924 l 78 917 m 776 210 q 790 196 790 210 l 790 14 q 776 0 790 0 l 718 0 q 610 25 658 0 q 532 94 563 50 q 365 42 460 42 q 212 83 282 42 q 100 194 142 124 q 58 346 58 264 q 100 492 58 426 q 212 597 142 558 q 365 635 282 635 l 457 635 l 457 724 l 654 724 l 654 275 q 672 228 654 247 q 718 210 690 210 l 776 210 m 457 435 l 365 435 q 298 410 325 435 q 271 346 271 385 q 298 278 271 306 q 365 251 325 251 q 431 278 404 251 q 457 346 457 306 l 457 435 z "},".":{"ha":419,"x_min":83,"x_max":336,"o":"m 210 -21 q 122 17 160 -21 q 83 107 83 56 q 119 197 83 160 q 210 235 156 235 q 301 197 265 235 q 336 107 336 158 q 298 16 336 53 q 210 -21 260 -21 z "},",":{"ha":421,"x_min":67,"x_max":340,"o":"m 67 -179 q 129 -87 100 -135 q 164 -31 158 -39 q 181 -3 176 -10 q 115 29 146 -4 q 83 106 83 63 q 121 197 83 160 q 211 235 158 235 q 305 197 269 235 q 340 107 340 160 q 301 -57 340 35 q 179 -256 263 -149 l 67 -179 z "},":":{"ha":419,"x_min":83,"x_max":336,"o":"m 210 406 q 122 444 160 406 q 83 533 83 482 q 119 624 83 586 q 210 661 156 661 q 301 623 265 661 q 336 533 336 585 q 298 442 336 479 q 210 406 260 406 m 210 -21 q 122 17 160 -21 q 83 107 83 56 q 119 197 83 160 q 210 235 156 235 q 301 197 265 235 q 336 107 336 158 q 298 16 336 53 q 210 -21 260 -21 z "},";":{"ha":421,"x_min":67,"x_max":340,"o":"m 210 406 q 122 444 160 406 q 83 533 83 482 q 119 624 83 586 q 210 661 156 661 q 301 623 265 661 q 336 533 336 585 q 298 442 336 479 q 210 406 260 406 m 67 -179 q 129 -87 100 -135 q 164 -31 158 -39 q 181 -3 176 -10 q 115 29 146 -4 q 83 106 83 63 q 121 197 83 160 q 211 235 158 235 q 305 197 269 235 q 340 107 340 160 q 301 -57 340 35 q 179 -256 263 -149 l 67 -179 z "},"-":{"ha":582,"x_min":81,"x_max":501,"o":"m 81 493 l 501 493 l 501 308 l 81 308 l 81 493 z "},"+":{"ha":865,"x_min":92,"x_max":775,"o":"m 335 360 l 92 360 l 92 544 l 335 544 l 335 788 l 531 788 l 531 544 l 775 544 l 775 360 l 531 360 l 531 117 l 335 117 l 335 360 z "},"*":{"ha":735,"x_min":36,"x_max":699,"o":"m 328 768 q 303 817 317 790 q 278 876 283 854 q 272 957 272 899 l 272 1031 l 464 1031 l 464 957 q 458 876 464 899 q 432 815 453 854 l 407 768 l 328 768 m 96 903 l 167 881 q 243 849 224 861 q 293 804 263 838 l 328 768 l 304 693 q 249 685 271 689 q 200 679 207 679 q 107 700 171 679 l 36 722 l 96 903 m 628 697 q 536 676 565 676 q 486 683 518 676 q 431 693 436 693 l 407 768 q 446 807 407 768 q 494 849 475 838 q 568 879 513 860 l 640 901 l 699 719 l 628 697 m 147 575 q 199 637 182 622 q 258 671 217 651 q 304 693 285 682 l 368 647 q 363 617 365 631 q 360 594 361 604 q 346 531 354 551 q 301 463 338 511 l 257 403 l 103 514 l 147 575 m 432 461 q 388 531 396 510 q 375 597 379 551 q 368 647 376 594 l 431 693 l 478 669 q 534 635 517 650 q 586 574 551 621 l 629 514 l 475 401 l 432 461 z "},"^":{"ha":842,"x_min":72,"x_max":769,"o":"m 421 590 l 257 194 l 72 194 l 324 778 l 517 778 l 769 194 l 583 194 l 421 590 z "},"˜":{"ha":725,"x_min":86,"x_max":638,"o":"m 468 836 q 405 849 433 836 q 340 888 376 861 q 299 915 314 907 q 271 922 285 922 q 226 902 243 922 q 206 847 208 882 l 86 847 q 135 1002 89 946 q 257 1058 181 1058 q 320 1046 292 1058 q 385 1007 349 1033 q 424 981 410 988 q 454 974 439 974 q 499 992 482 974 q 519 1043 517 1011 l 638 1043 q 590 892 635 949 q 468 836 544 836 z "},"/":{"ha":578,"x_min":-14,"x_max":592,"o":"m 197 -139 l -14 -139 l 382 989 l 592 989 l 197 -139 z "},"<":{"ha":783,"x_min":83,"x_max":706,"o":"m 308 486 l 706 322 l 706 138 l 83 389 l 83 583 l 706 835 l 706 650 l 308 486 z "},"=":{"ha":842,"x_min":83,"x_max":758,"o":"m 83 751 l 758 751 l 758 567 l 83 567 l 83 751 m 83 406 l 758 406 l 758 221 l 83 221 l 83 406 z "},">":{"ha":783,"x_min":78,"x_max":700,"o":"m 78 322 l 476 486 l 78 650 l 78 835 l 700 583 l 700 389 l 78 138 l 78 322 z "},"!":{"ha":385,"x_min":79,"x_max":304,"o":"m 260 282 l 124 282 l 79 989 l 304 989 l 260 282 m 192 -21 q 115 13 149 -21 q 81 92 81 47 q 113 170 81 138 q 192 203 144 203 q 272 169 242 203 q 303 92 303 136 q 269 11 303 43 q 192 -21 236 -21 z "},"?":{"ha":601,"x_min":19,"x_max":560,"o":"m 222 282 q 235 408 221 356 q 289 521 249 461 q 315 558 306 546 q 367 644 351 611 q 383 714 383 676 q 349 797 383 763 q 267 831 315 831 q 202 810 231 831 q 160 760 174 790 q 144 726 158 756 l 19 774 q 69 889 31 838 q 167 970 108 940 q 292 1000 225 1000 q 428 965 367 1000 q 524 868 489 929 q 560 732 560 807 q 535 617 560 671 q 453 493 510 564 q 358 282 360 381 l 222 282 m 289 -21 q 213 13 246 -21 q 179 92 179 47 q 211 170 179 138 q 289 203 243 203 q 370 169 339 203 q 401 92 401 136 q 368 11 401 43 q 289 -21 335 -21 z "},"'":{"ha":325,"x_min":60,"x_max":265,"o":"m 249 589 l 75 589 l 60 989 l 265 989 l 249 589 z "},"\"":{"ha":621,"x_min":60,"x_max":563,"o":"m 249 589 l 75 589 l 60 989 l 265 989 l 249 589 m 546 589 l 372 589 l 357 989 l 563 989 l 546 589 z "},"#":{"ha":1039,"x_min":42,"x_max":997,"o":"m 775 376 l 953 376 l 953 213 l 754 213 l 728 0 l 553 0 l 579 213 l 394 213 l 367 0 l 193 0 l 219 213 l 42 213 l 42 376 l 240 376 l 265 585 l 88 585 l 88 749 l 286 749 l 313 957 l 486 957 l 460 749 l 646 749 l 672 957 l 847 957 l 821 749 l 997 749 l 997 585 l 800 585 l 775 376 m 414 376 l 600 376 l 625 585 l 440 585 l 414 376 z "},"@":{"ha":1439,"x_min":50,"x_max":1389,"o":"m 724 -287 q 375 -206 528 -287 q 136 20 222 -125 q 50 351 50 165 q 138 683 50 538 q 380 908 225 828 q 729 988 535 988 q 1066 910 915 988 q 1303 696 1217 833 q 1389 383 1389 558 q 1354 183 1389 272 q 1253 41 1319 93 q 1094 -11 1186 -11 q 914 94 960 -11 q 906 117 913 99 q 897 146 899 136 q 803 31 865 74 q 660 -11 742 -11 q 501 36 571 -11 q 391 164 431 83 q 351 340 351 244 q 391 517 351 438 q 501 643 431 597 q 660 689 572 689 q 782 662 728 689 q 868 585 836 635 l 868 678 l 1072 678 l 1072 235 q 1091 172 1072 194 q 1142 150 1110 150 q 1214 217 1193 150 q 1235 379 1235 283 q 1169 626 1235 519 q 989 790 1104 732 q 729 849 874 849 q 465 785 581 849 q 284 608 349 721 q 219 351 219 494 q 283 92 219 206 q 462 -84 347 -21 q 724 -147 576 -147 q 1000 -86 869 -147 l 1046 -221 q 897 -269 985 -251 q 724 -287 810 -287 m 711 175 q 826 223 779 175 q 872 340 872 271 q 826 458 872 411 q 711 506 779 506 q 596 458 642 506 q 550 340 550 411 q 597 223 550 271 q 711 175 643 175 z "},"$":{"ha":942,"x_min":76,"x_max":865,"o":"m 865 293 q 786 91 865 171 q 574 -11 707 11 l 574 -136 l 419 -136 l 419 -18 q 235 16 328 -11 q 76 82 143 43 l 149 258 q 299 201 207 225 q 465 176 392 176 q 602 202 550 176 q 654 274 654 228 q 614 338 654 317 q 481 383 574 358 l 442 394 q 235 475 310 432 q 129 574 161 518 q 97 710 97 629 q 186 910 97 831 q 419 1007 275 989 l 419 1128 l 574 1128 l 574 1007 q 831 944 696 994 l 760 763 q 497 814 608 814 q 360 786 411 814 q 308 710 308 758 q 329 655 308 675 q 390 621 350 635 q 517 586 431 607 q 788 468 711 538 q 865 293 865 399 z "},"%":{"ha":1247,"x_min":49,"x_max":1199,"o":"m 294 468 q 117 541 185 468 q 49 736 49 614 q 116 931 49 858 q 294 1004 183 1004 q 473 931 406 1004 q 540 736 540 857 q 472 541 540 614 q 294 468 404 468 m 378 0 l 192 0 l 876 1004 l 1063 1004 l 378 0 m 294 588 q 360 630 338 588 q 383 736 383 672 q 360 844 383 803 q 294 885 338 885 q 228 842 251 885 q 204 736 204 800 q 228 628 204 669 q 294 588 251 588 m 953 -11 q 775 62 843 -11 q 707 257 707 135 q 774 452 707 379 q 953 525 842 525 q 1131 451 1064 525 q 1199 257 1199 378 q 1131 62 1199 135 q 953 -11 1063 -11 m 953 108 q 1019 151 996 108 q 1042 257 1042 193 q 1019 365 1042 324 q 953 406 996 406 q 885 364 908 406 q 863 257 863 322 q 886 149 863 190 q 953 108 910 108 z "},"&":{"ha":1067,"x_min":82,"x_max":993,"o":"m 436 -18 q 256 14 336 -18 q 128 108 175 46 q 82 253 82 169 q 130 399 82 340 q 282 524 178 458 q 201 635 231 578 q 172 742 172 692 q 260 922 172 857 q 483 986 349 986 q 690 926 610 986 q 769 758 769 865 q 724 624 769 683 q 588 514 679 565 l 757 353 q 857 500 804 414 l 988 422 q 864 239 935 328 l 993 119 l 874 -14 l 743 108 q 592 14 660 46 q 436 -18 524 -18 m 454 631 q 544 691 515 663 q 574 753 574 719 q 549 806 574 786 q 483 826 525 826 q 410 804 438 826 q 383 746 383 782 q 399 695 383 719 q 454 631 414 671 m 454 164 q 615 217 547 164 l 397 424 q 316 354 343 388 q 289 279 289 321 q 335 196 289 228 q 454 164 381 164 z "},"(":{"ha":504,"x_min":93,"x_max":436,"o":"m 271 -257 q 139 35 185 -132 q 93 393 93 203 q 139 751 93 583 q 271 1043 185 918 l 436 969 q 336 692 368 833 q 304 393 304 551 q 336 94 304 236 q 436 -183 368 -47 l 271 -257 z "},")":{"ha":504,"x_min":68,"x_max":410,"o":"m 68 -183 q 167 95 135 -47 q 200 393 200 238 q 167 691 200 550 q 68 969 135 832 l 233 1043 q 365 751 319 918 q 410 393 410 583 q 365 35 410 203 q 233 -257 319 -132 l 68 -183 z "},"{":{"ha":558,"x_min":72,"x_max":511,"o":"m 389 554 q 367 446 389 483 q 294 393 344 408 q 367 340 344 378 q 389 232 389 303 l 389 39 q 415 -36 389 -10 q 490 -62 440 -62 l 511 -62 l 511 -246 l 460 -246 q 251 -180 322 -246 q 179 11 179 -114 l 179 238 q 119 301 179 301 l 72 301 l 72 486 l 119 486 q 179 550 179 486 l 179 775 q 251 967 179 900 q 460 1033 322 1033 l 511 1033 l 511 849 l 490 849 q 415 823 440 849 q 389 749 389 797 l 389 554 z "},"|":{"ha":421,"x_min":106,"x_max":315,"o":"m 315 -269 l 106 -269 l 106 1031 l 315 1031 l 315 -269 z "},"}":{"ha":558,"x_min":47,"x_max":486,"o":"m 169 749 q 144 823 169 797 q 68 849 118 849 l 47 849 l 47 1033 l 99 1033 q 308 967 236 1033 q 379 775 379 900 l 379 550 q 439 486 379 486 l 486 486 l 486 301 l 439 301 q 379 238 379 301 l 379 11 q 308 -180 379 -114 q 99 -246 236 -246 l 47 -246 l 47 -62 l 68 -62 q 144 -36 118 -62 q 169 39 169 -10 l 169 232 q 192 340 169 303 q 264 393 214 378 q 192 446 214 408 q 169 554 169 483 l 169 749 z "},"[":{"ha":515,"x_min":90,"x_max":460,"o":"m 90 1033 l 460 1033 l 460 849 l 300 849 l 300 -62 l 460 -62 l 460 -246 l 90 -246 l 90 1033 z "},"\\":{"ha":583,"x_min":-14,"x_max":597,"o":"m -14 989 l 203 989 l 597 -139 l 382 -139 l -14 989 z "},"]":{"ha":515,"x_min":56,"x_max":425,"o":"m 56 -246 l 56 -62 l 215 -62 l 215 849 l 56 849 l 56 1033 l 425 1033 l 425 -246 l 56 -246 z "},"‘":{"ha":346,"x_min":40,"x_max":314,"o":"m 314 1122 q 218 974 272 1068 l 200 946 q 266 913 235 947 q 297 836 297 879 q 260 745 297 783 q 169 707 222 707 q 76 745 111 707 q 40 836 40 783 q 79 999 40 908 q 201 1199 118 1090 l 314 1122 z "},"’":{"ha":346,"x_min":32,"x_max":304,"o":"m 32 783 q 107 897 74 840 q 146 961 140 953 q 80 992 111 958 q 49 1069 49 1026 q 86 1160 49 1122 q 176 1199 124 1199 q 269 1161 233 1199 q 304 1071 304 1124 q 266 907 304 999 q 144 707 228 815 l 32 783 z "},"“":{"ha":622,"x_min":40,"x_max":590,"o":"m 314 1122 q 218 974 272 1068 l 200 946 q 266 913 235 947 q 297 836 297 879 q 260 745 297 783 q 169 707 222 707 q 76 745 111 707 q 40 836 40 783 q 79 999 40 908 q 201 1199 118 1090 l 314 1122 m 590 1122 q 513 1006 544 1060 q 478 946 481 951 q 544 913 513 947 q 575 836 575 879 q 537 745 575 783 q 446 707 499 707 q 353 745 389 707 q 318 836 318 783 q 356 999 318 907 q 478 1199 394 1090 l 590 1122 z "},"”":{"ha":622,"x_min":32,"x_max":582,"o":"m 32 783 q 107 897 74 840 q 146 961 140 953 q 80 992 111 958 q 49 1069 49 1026 q 86 1160 49 1122 q 176 1199 124 1199 q 269 1161 233 1199 q 304 1071 304 1124 q 266 907 304 999 q 144 707 228 815 l 32 783 m 310 783 q 422 961 364 857 q 356 992 388 958 q 325 1069 325 1026 q 363 1160 325 1122 q 454 1199 401 1199 q 547 1161 511 1199 q 582 1071 582 1124 q 544 907 582 999 q 422 707 506 815 l 310 783 z "},"‚":{"ha":346,"x_min":32,"x_max":304,"o":"m 32 -167 q 107 -53 74 -110 q 146 11 140 3 q 80 42 111 8 q 49 119 49 76 q 86 210 49 172 q 176 249 124 249 q 269 211 233 249 q 304 121 304 174 q 266 -43 304 49 q 144 -243 228 -135 l 32 -167 z "},"„":{"ha":622,"x_min":32,"x_max":582,"o":"m 32 -167 q 107 -53 74 -110 q 146 11 140 3 q 80 42 111 8 q 49 119 49 76 q 86 210 49 172 q 176 249 124 249 q 269 211 233 249 q 304 121 304 174 q 266 -43 304 49 q 144 -243 228 -135 l 32 -167 m 310 -167 q 422 11 364 -93 q 356 42 388 8 q 325 119 325 76 q 363 210 325 172 q 454 249 401 249 q 547 211 511 249 q 582 121 582 174 q 544 -43 582 49 q 422 -243 506 -135 l 310 -167 z "},"•":{"ha":517,"x_min":71,"x_max":446,"o":"m 257 201 q 124 256 178 201 q 71 390 71 310 q 124 524 71 471 q 257 576 178 576 q 392 524 338 576 q 446 390 446 471 q 392 256 446 310 q 257 201 338 201 z "},"_":{"ha":694,"x_min":0,"x_max":694,"o":"m 694 -185 l 0 -185 l 0 0 l 694 0 l 694 -185 z "},"–":{"ha":694,"x_min":0,"x_max":694,"o":"m 694 300 l 0 300 l 0 485 l 694 485 l 694 300 z "},"—":{"ha":1389,"x_min":0,"x_max":1389,"o":"m 1389 300 l 0 300 l 0 485 l 1389 485 l 1389 300 z "},"™":{"ha":1404,"x_min":36,"x_max":1368,"o":"m 228 836 l 36 836 l 36 972 l 594 972 l 594 836 l 403 836 l 403 396 l 228 396 l 228 836 m 663 972 l 819 972 l 1017 617 l 1208 972 l 1365 972 l 1368 396 l 1210 396 l 1207 711 l 1054 408 l 976 408 l 821 704 l 821 396 l 663 396 l 663 972 z "},"®":{"ha":1090,"x_min":57,"x_max":1033,"o":"m 546 976 q 790 911 678 976 q 968 733 903 846 q 1033 489 1033 621 q 968 243 1033 356 q 790 65 903 131 q 546 0 678 0 q 300 65 413 0 q 122 243 188 131 q 57 489 57 356 q 122 733 57 621 q 300 911 188 846 q 546 976 413 976 m 546 103 q 740 155 651 103 q 879 295 828 207 q 931 489 931 383 q 879 682 931 593 q 740 822 828 771 q 546 874 651 874 q 352 822 440 874 q 212 682 264 771 q 160 489 160 593 q 212 295 160 383 q 352 155 264 207 q 546 103 440 103 m 681 432 q 713 383 700 413 l 779 222 l 647 222 l 594 350 q 571 381 585 372 q 535 390 557 390 l 479 390 l 479 222 l 349 222 l 349 760 l 575 760 q 673 734 628 760 q 744 664 718 708 q 771 568 771 619 q 747 486 771 521 q 681 432 724 451 m 479 507 l 578 507 q 622 526 603 507 q 642 572 642 546 q 622 619 642 599 q 578 640 603 640 l 479 640 l 479 507 z "},"©":{"ha":1090,"x_min":57,"x_max":1033,"o":"m 546 0 q 300 65 413 0 q 122 243 188 131 q 57 489 57 356 q 122 733 57 621 q 300 911 188 846 q 546 976 413 976 q 790 911 678 976 q 968 733 903 846 q 1033 489 1033 621 q 968 243 1033 356 q 790 65 903 131 q 546 0 678 0 m 546 103 q 740 155 651 103 q 879 295 828 207 q 931 489 931 383 q 879 682 931 593 q 740 822 828 771 q 546 874 651 874 q 352 822 440 874 q 212 682 264 771 q 160 489 160 593 q 212 295 160 383 q 352 155 264 207 q 546 103 440 103 m 544 214 q 411 251 472 214 q 314 351 350 288 q 278 489 278 414 q 314 627 278 564 q 411 727 350 690 q 544 764 472 764 q 710 704 638 764 q 804 553 783 644 l 671 536 q 624 606 657 581 q 551 632 592 632 q 465 590 501 632 q 428 489 428 549 q 465 388 428 429 q 551 346 501 346 q 624 372 592 346 q 671 442 657 397 l 804 425 q 710 274 783 333 q 544 214 638 214 z "},"¤":{"ha":971,"x_min":39,"x_max":932,"o":"m 182 267 q 129 446 129 347 q 179 619 129 539 l 39 760 l 168 888 l 306 749 q 485 800 389 800 q 665 750 583 800 l 804 888 l 932 760 l 792 619 q 843 446 843 538 q 788 267 843 347 l 932 122 l 804 -6 l 657 140 q 485 93 579 93 q 313 140 396 93 l 168 -6 l 39 122 l 182 267 m 485 272 q 574 296 533 272 q 640 360 615 319 q 664 446 664 400 q 640 534 664 493 q 574 599 615 575 q 485 622 533 622 q 397 599 438 622 q 332 534 356 575 q 308 446 308 493 q 332 359 308 399 q 397 296 356 319 q 485 272 438 272 z "},"¢":{"ha":874,"x_min":72,"x_max":810,"o":"m 461 179 q 565 215 518 179 q 629 304 613 250 l 810 279 q 711 92 789 171 q 525 -8 633 14 l 525 -156 l 371 -156 l 371 -8 q 218 63 286 10 q 111 194 150 117 q 72 360 72 272 q 111 524 72 447 q 218 654 150 601 q 371 725 286 707 l 371 876 l 525 876 l 525 726 q 711 626 633 704 q 810 439 789 547 l 629 413 q 565 502 613 467 q 461 538 518 538 q 335 485 388 538 q 283 358 283 433 q 307 269 283 310 q 372 203 331 228 q 461 179 413 179 z "},"£":{"ha":788,"x_min":65,"x_max":718,"o":"m 201 194 l 201 392 l 65 392 l 65 556 l 201 556 l 201 650 q 311 927 201 826 q 618 1028 421 1028 l 618 842 q 455 790 514 842 q 393 649 396 739 l 393 556 l 618 556 l 618 392 l 393 392 l 393 194 l 718 194 l 718 10 l 65 10 l 65 194 l 201 194 z "},"¥":{"ha":939,"x_min":42,"x_max":899,"o":"m 831 351 l 581 351 l 581 281 l 831 281 l 831 117 l 581 117 l 581 0 l 358 0 l 358 117 l 108 117 l 108 281 l 358 281 l 358 351 l 108 351 l 108 515 l 315 515 l 42 989 l 269 989 l 481 613 l 689 989 l 899 989 l 626 515 l 831 515 l 831 351 z "},"−":{"ha":814,"x_min":83,"x_max":731,"o":"m 731 393 l 83 393 l 83 578 l 731 578 l 731 393 z "},"±":{"ha":814,"x_min":83,"x_max":731,"o":"m 310 472 l 83 472 l 83 647 l 310 647 l 310 831 l 504 831 l 504 647 l 731 647 l 731 472 l 504 472 l 504 290 l 310 290 l 310 472 m 731 0 l 83 0 l 83 185 l 731 185 l 731 0 z "},"×":{"ha":804,"x_min":99,"x_max":706,"o":"m 99 314 l 272 486 l 99 658 l 229 789 l 403 617 l 575 789 l 706 658 l 532 486 l 706 314 l 575 183 l 403 356 l 229 183 l 99 314 z "},"÷":{"ha":840,"x_min":83,"x_max":757,"o":"m 421 653 q 333 692 371 653 q 294 781 294 731 q 331 871 294 833 q 421 908 367 908 q 512 870 476 908 q 547 781 547 832 q 509 690 547 726 q 421 653 471 653 m 83 578 l 757 578 l 757 393 l 83 393 l 83 578 m 421 64 q 333 102 371 64 q 294 192 294 140 q 331 282 294 244 q 421 319 367 319 q 512 281 476 319 q 547 192 547 243 q 509 101 547 138 q 421 64 471 64 z "},"¦":{"ha":417,"x_min":103,"x_max":313,"o":"m 313 544 l 103 544 l 103 1031 l 313 1031 l 313 544 m 313 -269 l 103 -269 l 103 217 l 313 217 l 313 -269 z "},"…":{"ha":1104,"x_min":83,"x_max":1021,"o":"m 210 -6 q 122 33 160 -6 q 83 122 83 71 q 119 213 83 175 q 210 250 156 250 q 301 212 265 250 q 336 122 336 174 q 298 31 336 68 q 210 -6 260 -6 m 551 -6 q 463 33 501 -6 q 425 122 425 71 q 462 213 425 175 q 551 250 499 250 q 642 212 607 250 q 678 122 678 174 q 640 31 678 68 q 551 -6 601 -6 m 893 -6 q 805 33 843 -6 q 767 122 767 71 q 803 213 767 175 q 893 250 840 250 q 985 212 950 250 q 1021 122 1021 174 q 983 31 1021 68 q 893 -6 944 -6 z "},"·":{"ha":419,"x_min":83,"x_max":336,"o":"m 210 258 q 122 297 160 258 q 83 386 83 335 q 119 476 83 439 q 210 514 156 514 q 301 476 265 514 q 336 386 336 438 q 298 295 336 332 q 210 258 260 258 z "},"¡":{"ha":385,"x_min":81,"x_max":306,"o":"m 193 772 q 269 738 236 772 q 303 660 303 704 q 271 581 303 614 q 193 547 239 547 q 112 581 143 547 q 81 660 81 614 q 115 740 81 707 q 193 772 149 772 m 125 469 l 260 469 l 306 -237 l 81 -237 l 125 469 z "},"¿":{"ha":601,"x_min":42,"x_max":582,"o":"m 313 717 q 389 683 356 717 q 422 604 422 649 q 390 525 422 558 q 313 492 358 492 q 231 525 263 492 q 200 604 200 558 q 234 684 200 651 q 313 717 268 717 m 379 414 q 367 288 381 340 q 313 174 353 235 l 289 139 q 235 53 253 88 q 218 -19 218 19 q 252 -102 218 -68 q 335 -136 286 -136 q 399 -116 371 -136 q 442 -65 428 -96 q 448 -50 444 -58 q 457 -32 451 -42 l 582 -79 q 488 -241 564 -176 q 310 -306 411 -306 q 174 -270 235 -306 q 77 -174 113 -235 q 42 -37 42 -112 q 67 78 42 24 q 149 201 92 132 q 243 414 242 317 l 379 414 z "},"°":{"ha":579,"x_min":42,"x_max":538,"o":"m 289 503 q 165 535 222 503 q 75 622 108 567 q 42 744 42 678 q 75 866 42 811 q 165 953 108 921 q 289 985 222 985 q 414 953 357 985 q 504 866 471 921 q 538 744 538 811 q 504 622 538 678 q 414 535 471 567 q 289 503 357 503 m 289 638 q 365 668 335 638 q 394 744 394 699 q 365 819 394 789 q 289 850 335 850 q 215 819 244 850 q 185 744 185 789 q 215 669 185 700 q 289 638 244 638 z "},"⁄":{"ha":442,"x_min":-208,"x_max":650,"o":"m 650 989 l -25 0 l -208 0 l 467 989 l 650 989 z "},"¶":{"ha":974,"x_min":26,"x_max":888,"o":"m 325 450 q 171 486 239 453 q 65 580 103 519 q 26 719 26 640 q 121 918 26 847 q 367 989 215 989 l 888 989 l 888 -139 l 676 -139 l 676 819 l 536 819 l 536 -139 l 325 -139 l 325 450 z "},"§":{"ha":815,"x_min":72,"x_max":742,"o":"m 740 433 q 702 320 739 365 q 615 257 665 275 q 721 82 721 193 q 628 -83 721 -25 q 390 -140 536 -140 q 212 -117 293 -140 q 72 -56 131 -93 l 140 101 q 265 50 197 68 q 389 32 332 32 q 474 48 446 32 q 501 99 501 64 q 458 151 501 129 q 314 203 414 172 l 246 225 q 126 296 171 247 q 81 419 81 344 q 116 534 81 485 q 206 607 151 583 q 133 680 157 635 q 108 774 108 725 q 195 945 108 886 q 440 1004 282 1004 q 600 981 513 1004 q 742 924 688 958 l 669 778 q 566 816 626 801 q 457 831 506 831 q 322 754 322 831 q 356 700 322 718 q 464 661 389 682 q 611 614 561 633 q 701 551 661 594 q 740 433 742 507 m 463 336 q 522 365 500 343 q 544 421 544 388 q 515 478 544 461 q 419 513 485 496 q 364 528 374 525 q 304 499 326 521 q 282 443 282 476 q 311 386 282 404 q 407 350 340 368 q 463 336 407 350 z "},"†":{"ha":844,"x_min":63,"x_max":782,"o":"m 63 707 l 317 707 l 317 1004 l 526 1004 l 526 707 l 782 707 l 782 522 l 526 522 l 526 -237 l 317 -237 l 317 522 l 63 522 l 63 707 z "},"‡":{"ha":844,"x_min":63,"x_max":782,"o":"m 782 250 l 782 65 l 526 65 l 526 -237 l 317 -237 l 317 65 l 63 65 l 63 250 l 317 250 l 317 522 l 63 522 l 63 707 l 317 707 l 317 1004 l 526 1004 l 526 707 l 782 707 l 782 522 l 526 522 l 526 250 l 782 250 z "},"~":{"ha":840,"x_min":64,"x_max":778,"o":"m 564 342 q 481 358 518 342 q 396 413 444 375 q 339 450 358 440 q 297 460 319 460 q 239 433 261 460 q 215 357 217 406 l 64 357 q 125 559 65 485 q 278 633 185 633 q 360 617 324 633 q 447 563 397 600 q 503 526 483 536 q 544 515 522 515 q 603 542 581 515 q 626 618 625 569 l 778 618 q 717 416 776 490 q 564 342 657 342 z "},"‹":{"ha":490,"x_min":46,"x_max":458,"o":"m 240 649 l 458 649 l 269 375 l 458 103 l 240 103 l 46 375 l 240 649 z "},"›":{"ha":490,"x_min":31,"x_max":443,"o":"m 221 375 l 31 649 l 249 649 l 443 375 l 249 103 l 31 103 l 221 375 z "},"ٚ":{"ha":0,"x_min":-219,"x_max":219,"o":"m -219 1276 q -60 1242 -118 1276 q 0 1135 -1 1207 q 59 1242 1 1207 q 219 1276 117 1276 l 219 1126 q 135 1110 168 1122 q 83 1066 103 1099 q 63 972 63 1033 l -62 972 q -83 1066 -62 1033 q -135 1110 -103 1099 q -219 1126 -168 1122 l -219 1276 z "},"ٛ":{"ha":0,"x_min":-219,"x_max":219,"o":"m -219 1121 q -135 1138 -168 1125 q -83 1183 -103 1150 q -62 1276 -62 1215 l 63 1276 q 83 1183 63 1215 q 135 1138 103 1150 q 219 1121 168 1125 l 219 972 q 59 1007 117 972 q 0 1114 1 1042 q -60 1007 -1 1042 q -219 972 -118 972 l -219 1121 z "},"Á":{"ha":983,"x_min":13,"x_max":972,"o":"m 751 0 l 686 181 l 300 181 l 235 0 l 13 0 l 371 989 l 614 989 l 972 0 l 751 0 m 369 375 l 615 375 l 493 714 l 369 375 m 581 1322 l 788 1322 l 582 1118 l 394 1118 l 581 1322 z "},"Ă":{"ha":983,"x_min":13,"x_max":972,"o":"m 751 0 l 686 181 l 300 181 l 235 0 l 13 0 l 371 989 l 614 989 l 972 0 l 751 0 m 369 375 l 615 375 l 493 714 l 369 375 m 488 1118 q 301 1176 374 1118 q 224 1333 228 1235 l 371 1333 q 406 1264 374 1290 q 488 1238 439 1238 q 569 1264 536 1238 q 604 1333 601 1290 l 751 1333 q 674 1176 747 1235 q 488 1118 601 1118 z "},"Â":{"ha":983,"x_min":13,"x_max":972,"o":"m 751 0 l 686 181 l 300 181 l 235 0 l 13 0 l 371 989 l 614 989 l 972 0 l 751 0 m 369 375 l 615 375 l 493 714 l 369 375 m 496 1229 l 369 1117 l 214 1117 l 390 1322 l 601 1322 l 776 1117 l 622 1117 l 496 1229 z "},"Ä":{"ha":983,"x_min":13,"x_max":972,"o":"m 751 0 l 686 181 l 300 181 l 235 0 l 13 0 l 371 989 l 614 989 l 972 0 l 751 0 m 369 375 l 615 375 l 493 714 l 369 375 m 381 1117 q 307 1147 338 1117 q 276 1221 276 1178 q 307 1294 276 1264 q 381 1324 338 1324 q 454 1294 424 1324 q 485 1221 485 1264 q 454 1147 485 1178 q 381 1117 424 1117 m 618 1117 q 544 1147 574 1117 q 514 1221 514 1178 q 544 1294 514 1264 q 618 1324 575 1324 q 691 1294 661 1324 q 721 1221 721 1264 q 691 1147 721 1178 q 618 1117 661 1117 z "},"À":{"ha":983,"x_min":13,"x_max":972,"o":"m 751 0 l 686 181 l 300 181 l 235 0 l 13 0 l 371 989 l 614 989 l 972 0 l 751 0 m 369 375 l 615 375 l 493 714 l 369 375 m 199 1322 l 406 1322 l 592 1118 l 404 1118 l 199 1322 z "},"Ā":{"ha":983,"x_min":13,"x_max":972,"o":"m 751 0 l 686 181 l 300 181 l 235 0 l 13 0 l 371 989 l 614 989 l 972 0 l 751 0 m 369 375 l 615 375 l 493 714 l 369 375 m 694 1118 l 283 1118 l 283 1247 l 694 1247 l 694 1118 z "},"Ą":{"ha":983,"x_min":13,"x_max":972,"o":"m 971 0 q 849 -71 890 -36 q 808 -146 808 -106 q 829 -193 808 -175 q 888 -211 850 -211 l 969 -211 l 969 -325 l 860 -325 q 715 -283 768 -325 q 663 -167 663 -240 q 765 0 663 -71 l 751 0 l 686 181 l 300 181 l 235 0 l 13 0 l 371 989 l 614 989 l 972 0 l 971 0 m 369 375 l 615 375 l 493 714 l 369 375 z "},"Å":{"ha":983,"x_min":13,"x_max":972,"o":"m 751 0 l 686 181 l 300 181 l 235 0 l 13 0 l 371 989 l 614 989 l 972 0 l 751 0 m 369 375 l 615 375 l 493 714 l 369 375 m 496 1118 q 369 1167 421 1118 q 318 1289 318 1217 q 370 1410 318 1361 q 496 1460 422 1460 q 623 1410 571 1460 q 675 1289 675 1361 q 623 1167 675 1217 q 496 1118 571 1118 m 496 1207 q 554 1231 531 1207 q 578 1289 578 1254 q 554 1348 578 1325 q 496 1371 531 1371 q 438 1347 461 1371 q 415 1289 415 1324 q 438 1230 415 1253 q 496 1207 461 1207 z "},"Ã":{"ha":983,"x_min":13,"x_max":972,"o":"m 751 0 l 686 181 l 300 181 l 235 0 l 13 0 l 371 989 l 614 989 l 972 0 l 751 0 m 369 375 l 615 375 l 493 714 l 369 375 m 613 1118 q 550 1130 578 1118 q 483 1169 522 1142 q 444 1195 458 1188 q 415 1203 429 1203 q 369 1183 388 1203 q 349 1129 351 1164 l 231 1129 q 278 1283 233 1226 q 400 1339 324 1339 q 463 1326 435 1339 q 529 1288 492 1314 q 569 1260 554 1268 q 599 1253 583 1253 q 643 1272 625 1253 q 664 1324 661 1292 l 782 1324 q 734 1174 779 1229 q 613 1118 689 1118 z "},"Æ":{"ha":1328,"x_min":11,"x_max":1286,"o":"m 822 404 l 822 193 l 1285 193 l 1285 0 l 611 0 l 611 181 l 299 181 l 233 0 l 11 0 l 369 989 l 1285 989 l 1286 794 l 822 796 l 822 583 l 1233 583 l 1233 404 l 822 404 m 368 375 l 611 375 l 611 796 l 521 796 l 368 375 z "},"Ć":{"ha":1078,"x_min":61,"x_max":1024,"o":"m 551 -19 q 306 50 418 -19 q 127 238 193 119 q 61 496 61 356 q 127 753 61 635 q 306 940 193 871 q 551 1010 418 1010 q 762 960 664 1010 q 928 822 860 910 q 1024 622 997 733 l 843 597 q 737 751 814 692 q 565 811 660 811 q 419 769 486 811 q 312 654 351 726 q 272 496 272 582 q 312 337 272 410 q 418 222 351 264 q 565 179 485 179 q 737 239 660 179 q 843 393 814 299 l 1024 371 q 928 171 997 260 q 762 31 860 82 q 551 -19 664 -19 m 631 1326 l 838 1326 l 632 1122 l 444 1122 l 631 1326 z "},"Č":{"ha":1078,"x_min":61,"x_max":1024,"o":"m 551 -19 q 306 50 418 -19 q 127 238 193 119 q 61 496 61 356 q 127 753 61 635 q 306 940 193 871 q 551 1010 418 1010 q 762 960 664 1010 q 928 822 860 910 q 1024 622 997 733 l 843 597 q 737 751 814 692 q 565 811 660 811 q 419 769 486 811 q 312 654 351 726 q 272 496 272 582 q 312 337 272 410 q 418 222 351 264 q 565 179 485 179 q 737 239 660 179 q 843 393 814 299 l 1024 371 q 928 171 997 260 q 762 31 860 82 q 551 -19 664 -19 m 651 1122 l 440 1122 l 264 1326 l 419 1326 l 546 1214 l 672 1326 l 826 1326 l 651 1122 z "},"Ç":{"ha":1078,"x_min":61,"x_max":1024,"o":"m 565 179 q 737 239 660 179 q 843 393 814 299 l 1024 371 q 941 187 1000 269 q 798 51 882 104 q 615 -15 714 -1 l 597 -89 q 684 -126 654 -96 q 714 -200 714 -156 q 658 -303 714 -265 q 506 -340 601 -340 l 389 -340 l 413 -236 l 517 -237 q 574 -194 574 -237 q 560 -163 574 -175 q 524 -151 547 -151 l 453 -151 l 486 -15 q 270 74 367 1 q 117 257 174 146 q 61 496 61 368 q 127 753 61 635 q 306 940 193 871 q 551 1010 418 1010 q 762 960 664 1010 q 928 822 860 910 q 1024 622 997 733 l 843 597 q 737 751 814 692 q 565 811 660 811 q 419 769 486 811 q 312 654 351 726 q 272 496 272 582 q 312 337 272 410 q 418 222 351 264 q 565 179 485 179 z "},"Ċ":{"ha":1078,"x_min":61,"x_max":1024,"o":"m 551 -19 q 306 50 418 -19 q 127 238 193 119 q 61 496 61 356 q 127 753 61 635 q 306 940 193 871 q 551 1010 418 1010 q 762 960 664 1010 q 928 822 860 910 q 1024 622 997 733 l 843 597 q 737 751 814 692 q 565 811 660 811 q 419 769 486 811 q 312 654 351 726 q 272 496 272 582 q 312 337 272 410 q 418 222 351 264 q 565 179 485 179 q 737 239 660 179 q 843 393 814 299 l 1024 371 q 928 171 997 260 q 762 31 860 82 q 551 -19 664 -19 m 553 1122 q 479 1153 510 1122 q 449 1226 449 1183 q 479 1299 449 1269 q 553 1329 510 1329 q 626 1299 596 1329 q 657 1226 657 1269 q 626 1153 657 1183 q 553 1122 596 1122 z "},"Ð":{"ha":1004,"x_min":17,"x_max":943,"o":"m 449 989 q 696 922 582 989 q 876 742 810 856 q 943 494 943 629 q 876 247 943 360 q 696 67 810 133 q 449 0 582 0 l 117 0 l 117 404 l 17 404 l 17 583 l 117 583 l 117 989 l 449 989 m 426 189 q 580 230 510 189 q 691 341 650 271 q 732 494 732 411 q 691 648 732 578 q 580 759 650 718 q 426 800 510 800 l 326 800 l 326 583 l 429 583 l 429 404 l 326 404 l 326 189 l 426 189 z "},"Ď":{"ha":963,"x_min":74,"x_max":900,"o":"m 406 989 q 653 922 540 989 q 833 742 767 856 q 900 494 900 629 q 833 247 900 360 q 653 67 767 133 q 406 0 540 0 l 74 0 l 74 989 l 406 989 m 385 189 q 538 230 468 189 q 649 341 608 271 q 690 494 690 411 q 649 648 690 578 q 538 759 608 718 q 385 800 468 800 l 285 800 l 285 189 l 385 189 m 461 1118 l 250 1118 l 74 1322 l 229 1322 l 356 1210 l 482 1322 l 636 1322 l 461 1118 z "},"Đ":{"ha":1004,"x_min":17,"x_max":943,"o":"m 449 989 q 696 922 582 989 q 876 742 810 856 q 943 494 943 629 q 876 247 943 360 q 696 67 810 133 q 449 0 582 0 l 117 0 l 117 404 l 17 404 l 17 583 l 117 583 l 117 989 l 449 989 m 426 189 q 580 230 510 189 q 691 341 650 271 q 732 494 732 411 q 691 648 732 578 q 580 759 650 718 q 426 800 510 800 l 326 800 l 326 583 l 429 583 l 429 404 l 326 404 l 326 189 l 426 189 z "},"É":{"ha":790,"x_min":74,"x_max":749,"o":"m 74 989 l 747 989 l 749 794 l 285 796 l 285 583 l 696 583 l 696 404 l 285 404 l 285 193 l 747 193 l 747 0 l 74 0 l 74 989 m 485 1322 l 692 1322 l 486 1118 l 299 1118 l 485 1322 z "},"Ě":{"ha":790,"x_min":74,"x_max":749,"o":"m 74 989 l 747 989 l 749 794 l 285 796 l 285 583 l 696 583 l 696 404 l 285 404 l 285 193 l 747 193 l 747 0 l 74 0 l 74 989 m 531 1118 l 319 1118 l 143 1322 l 299 1322 l 425 1210 l 551 1322 l 706 1322 l 531 1118 z "},"Ê":{"ha":790,"x_min":74,"x_max":749,"o":"m 74 989 l 747 989 l 749 794 l 285 796 l 285 583 l 696 583 l 696 404 l 285 404 l 285 193 l 747 193 l 747 0 l 74 0 l 74 989 m 418 1229 l 292 1117 l 136 1117 l 313 1322 l 524 1322 l 699 1117 l 544 1117 l 418 1229 z "},"Ë":{"ha":790,"x_min":74,"x_max":749,"o":"m 74 989 l 747 989 l 749 794 l 285 796 l 285 583 l 696 583 l 696 404 l 285 404 l 285 193 l 747 193 l 747 0 l 74 0 l 74 989 m 315 1117 q 242 1147 272 1117 q 211 1221 211 1178 q 242 1294 211 1264 q 315 1324 272 1324 q 389 1294 358 1324 q 419 1221 419 1264 q 389 1147 419 1178 q 315 1117 358 1117 m 553 1117 q 478 1147 508 1117 q 449 1221 449 1178 q 479 1294 449 1264 q 553 1324 510 1324 q 626 1294 596 1324 q 656 1221 656 1264 q 626 1147 656 1178 q 553 1117 596 1117 z "},"Ė":{"ha":790,"x_min":74,"x_max":749,"o":"m 74 989 l 747 989 l 749 794 l 285 796 l 285 583 l 696 583 l 696 404 l 285 404 l 285 193 l 747 193 l 747 0 l 74 0 l 74 989 m 415 1117 q 342 1147 372 1117 q 311 1221 311 1178 q 342 1294 311 1264 q 415 1324 372 1324 q 489 1294 458 1324 q 519 1221 519 1264 q 489 1147 519 1178 q 415 1117 458 1117 z "},"È":{"ha":790,"x_min":74,"x_max":749,"o":"m 74 989 l 747 989 l 749 794 l 285 796 l 285 583 l 696 583 l 696 404 l 285 404 l 285 193 l 747 193 l 747 0 l 74 0 l 74 989 m 207 1325 l 414 1325 l 600 1121 l 413 1121 l 207 1325 z "},"Ē":{"ha":790,"x_min":74,"x_max":749,"o":"m 74 989 l 747 989 l 749 794 l 285 796 l 285 583 l 696 583 l 696 404 l 285 404 l 285 193 l 747 193 l 747 0 l 74 0 l 74 989 m 629 1118 l 218 1118 l 218 1247 l 629 1247 l 629 1118 z "},"Ę":{"ha":790,"x_min":74,"x_max":749,"o":"m 285 193 l 747 193 l 747 0 q 626 -71 667 -36 q 585 -146 585 -106 q 606 -193 585 -175 q 664 -211 626 -211 l 744 -211 l 744 -325 l 636 -325 q 492 -283 544 -325 q 439 -167 439 -240 q 542 0 439 -69 l 74 0 l 74 989 l 747 989 l 749 794 l 285 796 l 285 583 l 696 583 l 696 404 l 285 404 l 285 193 z "},"Ğ":{"ha":1069,"x_min":46,"x_max":1024,"o":"m 1024 554 l 1024 496 q 958 238 1024 356 q 779 50 892 119 q 535 -19 667 -19 q 290 50 403 -19 q 112 238 178 119 q 46 496 46 356 q 112 753 46 635 q 290 940 178 871 q 535 1010 403 1010 q 807 922 685 1010 q 985 693 929 835 l 814 633 q 706 763 778 714 q 549 811 635 811 q 403 769 469 811 q 297 654 336 726 q 257 496 257 582 q 296 337 257 410 q 402 222 335 264 q 549 179 469 179 q 717 238 642 179 q 822 386 793 296 l 482 386 l 482 554 l 1024 554 m 526 1122 q 340 1181 413 1122 q 263 1338 267 1239 l 410 1338 q 445 1268 413 1294 q 526 1242 478 1242 q 608 1268 575 1242 q 643 1338 640 1294 l 790 1338 q 713 1181 786 1239 q 526 1122 640 1122 z "},"Ģ":{"ha":1069,"x_min":46,"x_max":1024,"o":"m 1024 554 l 1024 496 q 958 238 1024 356 q 779 50 892 119 q 535 -19 667 -19 q 290 50 403 -19 q 112 238 178 119 q 46 496 46 356 q 112 753 46 635 q 290 940 178 871 q 535 1010 403 1010 q 807 922 685 1010 q 985 693 929 835 l 814 633 q 706 763 778 714 q 549 811 635 811 q 403 769 469 811 q 297 654 336 726 q 257 496 257 582 q 296 337 257 410 q 402 222 335 264 q 549 179 469 179 q 717 238 642 179 q 822 386 793 296 l 482 386 l 482 554 l 1024 554 m 392 -547 q 488 -399 433 -493 l 506 -371 q 440 -339 471 -372 q 408 -262 408 -306 q 446 -171 408 -208 q 536 -133 483 -133 q 630 -171 594 -133 q 665 -261 665 -208 q 626 -425 665 -333 q 504 -624 588 -517 l 392 -547 z "},"Ġ":{"ha":1069,"x_min":46,"x_max":1024,"o":"m 1024 554 l 1024 496 q 958 238 1024 356 q 779 50 892 119 q 535 -19 667 -19 q 290 50 403 -19 q 112 238 178 119 q 46 496 46 356 q 112 753 46 635 q 290 940 178 871 q 535 1010 403 1010 q 807 922 685 1010 q 985 693 929 835 l 814 633 q 706 763 778 714 q 549 811 635 811 q 403 769 469 811 q 297 654 336 726 q 257 496 257 582 q 296 337 257 410 q 402 222 335 264 q 549 179 469 179 q 717 238 642 179 q 822 386 793 296 l 482 386 l 482 554 l 1024 554 m 532 1121 q 458 1151 489 1121 q 428 1225 428 1182 q 458 1298 428 1268 q 532 1328 489 1328 q 606 1298 575 1328 q 636 1225 636 1268 q 606 1151 636 1182 q 532 1121 575 1121 z "},"Ħ":{"ha":1019,"x_min":49,"x_max":971,"o":"m 971 886 l 971 708 l 925 708 l 925 0 l 715 0 l 715 404 l 304 404 l 304 0 l 94 0 l 94 708 l 49 708 l 49 886 l 94 886 l 94 989 l 304 989 l 304 886 l 715 886 l 715 989 l 925 989 l 925 886 l 971 886 m 715 583 l 715 708 l 304 708 l 304 583 l 715 583 z "},"Í":{"ha":357,"x_min":74,"x_max":471,"o":"m 74 0 l 74 989 l 285 989 l 285 0 l 74 0 m 264 1322 l 471 1322 l 265 1118 l 78 1118 l 264 1322 z "},"Î":{"ha":357,"x_min":-103,"x_max":460,"o":"m 74 0 l 74 989 l 285 989 l 285 0 l 74 0 m 179 1229 l 53 1117 l -103 1117 l 74 1322 l 285 1322 l 460 1117 l 306 1117 l 179 1229 z "},"Ï":{"ha":357,"x_min":-54,"x_max":390,"o":"m 74 0 l 74 989 l 285 989 l 285 0 l 74 0 m 50 1117 q -24 1147 7 1117 q -54 1221 -54 1178 q -24 1294 -54 1264 q 50 1324 7 1324 q 124 1294 93 1324 q 154 1221 154 1264 q 124 1147 154 1178 q 50 1117 93 1117 m 288 1117 q 213 1147 243 1117 q 183 1221 183 1178 q 214 1294 183 1264 q 288 1324 244 1324 q 360 1294 331 1324 q 390 1221 390 1264 q 360 1147 390 1178 q 288 1117 331 1117 z "},"İ":{"ha":357,"x_min":74,"x_max":286,"o":"m 74 0 l 74 989 l 285 989 l 285 0 l 74 0 m 182 1117 q 108 1147 139 1117 q 78 1221 78 1178 q 108 1294 78 1264 q 182 1324 139 1324 q 256 1294 225 1324 q 286 1221 286 1264 q 256 1147 286 1178 q 182 1117 225 1117 z "},"Ì":{"ha":357,"x_min":-115,"x_max":285,"o":"m 74 0 l 74 989 l 285 989 l 285 0 l 74 0 m -115 1322 l 92 1322 l 278 1118 l 90 1118 l -115 1322 z "},"Ī":{"ha":357,"x_min":-26,"x_max":385,"o":"m 74 0 l 74 989 l 285 989 l 285 0 l 74 0 m 385 1118 l -26 1118 l -26 1247 l 385 1247 l 385 1118 z "},"Į":{"ha":357,"x_min":-24,"x_max":285,"o":"m 285 0 q 163 -71 204 -36 q 121 -146 121 -106 q 142 -194 121 -176 q 201 -211 163 -211 l 282 -211 l 282 -325 l 172 -325 q 29 -283 82 -325 q -24 -167 -24 -240 q 79 0 -24 -69 l 74 0 l 74 989 l 285 989 l 285 0 z "},"Ķ":{"ha":924,"x_min":74,"x_max":910,"o":"m 664 0 l 382 407 l 285 297 l 285 0 l 74 0 l 74 989 l 285 989 l 285 615 l 626 989 l 896 989 l 519 563 l 910 0 l 664 0 m 303 -543 q 399 -394 344 -489 l 417 -367 q 351 -335 382 -368 q 319 -258 319 -301 q 357 -167 319 -204 q 447 -129 394 -129 q 541 -167 506 -129 q 576 -257 576 -204 q 538 -421 576 -329 q 415 -619 499 -512 l 303 -543 z "},"Ĺ":{"ha":685,"x_min":74,"x_max":660,"o":"m 660 0 l 74 0 l 74 989 l 285 989 l 285 193 l 660 193 l 660 0 m 264 1322 l 471 1322 l 265 1118 l 78 1118 l 264 1322 z "},"Ľ":{"ha":685,"x_min":-117,"x_max":660,"o":"m 660 0 l 74 0 l 74 989 l 285 989 l 285 193 l 660 193 l 660 0 m 271 1118 l 60 1118 l -117 1322 l 39 1322 l 165 1210 l 292 1322 l 446 1322 l 271 1118 z "},"Ļ":{"ha":685,"x_min":74,"x_max":660,"o":"m 660 0 l 74 0 l 74 989 l 285 989 l 285 193 l 660 193 l 660 0 m 206 -543 q 301 -394 247 -489 l 319 -367 q 253 -335 285 -368 q 222 -258 222 -301 q 260 -167 222 -204 q 350 -129 297 -129 q 444 -167 408 -129 q 479 -257 479 -204 q 440 -421 479 -329 q 318 -619 401 -512 l 206 -543 z "},"Ł":{"ha":790,"x_min":44,"x_max":765,"o":"m 389 193 l 765 193 l 765 0 l 179 0 l 179 329 l 135 304 l 44 460 l 179 538 l 179 988 l 389 988 l 389 657 l 492 717 l 581 561 l 389 450 l 389 193 z "},"Ń":{"ha":997,"x_min":74,"x_max":924,"o":"m 618 0 l 274 683 l 274 0 l 74 0 l 74 989 l 346 989 l 724 226 l 724 989 l 924 989 l 924 0 l 618 0 m 561 1322 l 768 1322 l 563 1118 l 375 1118 l 561 1322 z "},"Ň":{"ha":997,"x_min":74,"x_max":924,"o":"m 618 0 l 274 683 l 274 0 l 74 0 l 74 989 l 346 989 l 724 226 l 724 989 l 924 989 l 924 0 l 618 0 m 599 1118 l 388 1118 l 211 1322 l 367 1322 l 493 1210 l 619 1322 l 774 1322 l 599 1118 z "},"Ņ":{"ha":997,"x_min":74,"x_max":924,"o":"m 618 0 l 274 683 l 274 0 l 74 0 l 74 989 l 346 989 l 724 226 l 724 989 l 924 989 l 924 0 l 618 0 m 381 -543 q 476 -394 422 -489 l 494 -367 q 428 -335 460 -368 q 397 -258 397 -301 q 435 -167 397 -204 q 525 -129 472 -129 q 619 -167 583 -129 q 654 -257 654 -204 q 615 -421 654 -329 q 493 -619 576 -512 l 381 -543 z "},"Ŋ":{"ha":997,"x_min":74,"x_max":924,"o":"m 924 0 l 922 0 l 922 -21 q 887 -153 922 -93 q 791 -247 851 -212 q 660 -282 731 -282 l 571 -282 l 571 -85 l 658 -85 q 705 -66 686 -85 q 724 -21 724 -47 l 724 0 l 618 0 l 274 683 l 274 0 l 74 0 l 74 988 l 346 988 l 724 226 l 724 988 l 924 988 l 924 0 z "},"Ñ":{"ha":997,"x_min":74,"x_max":924,"o":"m 618 0 l 274 683 l 274 0 l 74 0 l 74 989 l 346 989 l 724 226 l 724 989 l 924 989 l 924 0 l 618 0 m 607 1118 q 544 1130 572 1118 q 478 1169 517 1142 q 438 1195 453 1188 q 410 1203 424 1203 q 364 1183 382 1203 q 343 1129 346 1164 l 225 1129 q 273 1283 228 1226 q 394 1339 318 1339 q 458 1326 429 1339 q 524 1288 486 1314 q 563 1260 549 1268 q 593 1253 578 1253 q 638 1272 619 1253 q 658 1324 656 1292 l 776 1324 q 728 1174 774 1229 q 607 1118 683 1118 z "},"Ó":{"ha":1143,"x_min":61,"x_max":1081,"o":"m 572 -19 q 316 50 433 -19 q 130 238 199 119 q 61 496 61 356 q 130 753 61 635 q 316 940 199 871 q 572 1010 433 1010 q 826 940 710 1010 q 1012 753 943 871 q 1081 496 1081 635 q 1012 238 1081 356 q 826 50 943 119 q 572 -19 710 -19 m 572 179 q 722 222 653 179 q 831 337 790 264 q 871 496 871 410 q 831 653 871 581 q 722 769 790 726 q 572 811 653 811 q 420 769 490 811 q 310 654 350 726 q 269 496 269 582 q 310 337 269 410 q 420 222 350 264 q 572 179 490 179 m 647 1326 l 854 1326 l 649 1122 l 461 1122 l 647 1326 z "},"Ô":{"ha":1143,"x_min":61,"x_max":1081,"o":"m 572 -19 q 316 50 433 -19 q 130 238 199 119 q 61 496 61 356 q 130 753 61 635 q 316 940 199 871 q 572 1010 433 1010 q 826 940 710 1010 q 1012 753 943 871 q 1081 496 1081 635 q 1012 238 1081 356 q 826 50 943 119 q 572 -19 710 -19 m 572 179 q 722 222 653 179 q 831 337 790 264 q 871 496 871 410 q 831 653 871 581 q 722 769 790 726 q 572 811 653 811 q 420 769 490 811 q 310 654 350 726 q 269 496 269 582 q 310 337 269 410 q 420 222 350 264 q 572 179 490 179 m 567 1235 l 440 1122 l 285 1122 l 461 1328 l 672 1328 l 847 1122 l 693 1122 l 567 1235 z "},"Ö":{"ha":1143,"x_min":61,"x_max":1081,"o":"m 572 -19 q 316 50 433 -19 q 130 238 199 119 q 61 496 61 356 q 130 753 61 635 q 316 940 199 871 q 572 1010 433 1010 q 826 940 710 1010 q 1012 753 943 871 q 1081 496 1081 635 q 1012 238 1081 356 q 826 50 943 119 q 572 -19 710 -19 m 572 179 q 722 222 653 179 q 831 337 790 264 q 871 496 871 410 q 831 653 871 581 q 722 769 790 726 q 572 811 653 811 q 420 769 490 811 q 310 654 350 726 q 269 496 269 582 q 310 337 269 410 q 420 222 350 264 q 572 179 490 179 m 457 1119 q 383 1150 414 1119 q 353 1224 353 1181 q 383 1297 353 1267 q 457 1326 414 1326 q 531 1297 500 1326 q 561 1224 561 1267 q 531 1150 561 1181 q 457 1119 500 1119 m 694 1119 q 620 1150 650 1119 q 590 1224 590 1181 q 621 1297 590 1267 q 694 1326 651 1326 q 767 1297 738 1326 q 797 1224 797 1267 q 767 1150 797 1181 q 694 1119 738 1119 z "},"Ò":{"ha":1143,"x_min":61,"x_max":1081,"o":"m 572 -19 q 316 50 433 -19 q 130 238 199 119 q 61 496 61 356 q 130 753 61 635 q 316 940 199 871 q 572 1010 433 1010 q 826 940 710 1010 q 1012 753 943 871 q 1081 496 1081 635 q 1012 238 1081 356 q 826 50 943 119 q 572 -19 710 -19 m 572 179 q 722 222 653 179 q 831 337 790 264 q 871 496 871 410 q 831 653 871 581 q 722 769 790 726 q 572 811 653 811 q 420 769 490 811 q 310 654 350 726 q 269 496 269 582 q 310 337 269 410 q 420 222 350 264 q 572 179 490 179 m 268 1326 l 475 1326 l 661 1122 l 474 1122 l 268 1326 z "},"Ő":{"ha":1143,"x_min":61,"x_max":1081,"o":"m 572 -19 q 316 50 433 -19 q 130 238 199 119 q 61 496 61 356 q 130 753 61 635 q 316 940 199 871 q 572 1010 433 1010 q 826 940 710 1010 q 1012 753 943 871 q 1081 496 1081 635 q 1012 238 1081 356 q 826 50 943 119 q 572 -19 710 -19 m 572 179 q 722 222 653 179 q 831 337 790 264 q 871 496 871 410 q 831 653 871 581 q 722 769 790 726 q 572 811 653 811 q 420 769 490 811 q 310 654 350 726 q 269 496 269 582 q 310 337 269 410 q 420 222 350 264 q 572 179 490 179 m 463 1325 l 667 1325 l 474 1121 l 286 1121 l 463 1325 m 744 1325 l 949 1325 l 754 1121 l 568 1121 l 744 1325 z "},"Ō":{"ha":1143,"x_min":61,"x_max":1081,"o":"m 572 -19 q 316 50 433 -19 q 130 238 199 119 q 61 496 61 356 q 130 753 61 635 q 316 940 199 871 q 572 1010 433 1010 q 826 940 710 1010 q 1012 753 943 871 q 1081 496 1081 635 q 1012 238 1081 356 q 826 50 943 119 q 572 -19 710 -19 m 572 179 q 722 222 653 179 q 831 337 790 264 q 871 496 871 410 q 831 653 871 581 q 722 769 790 726 q 572 811 653 811 q 420 769 490 811 q 310 654 350 726 q 269 496 269 582 q 310 337 269 410 q 420 222 350 264 q 572 179 490 179 m 775 1122 l 364 1122 l 364 1251 l 775 1251 l 775 1122 z "},"Ø":{"ha":1143,"x_min":61,"x_max":1081,"o":"m 832 938 q 1013 752 946 869 q 1081 496 1081 635 q 1012 238 1081 356 q 826 50 943 119 q 572 -19 710 -19 q 499 -14 531 -19 l 479 -69 l 268 -69 l 311 53 q 128 240 196 122 q 61 496 61 357 q 130 753 61 635 q 316 940 199 871 q 572 1010 433 1010 q 643 1004 614 1010 l 663 1058 l 874 1058 l 832 938 m 271 496 q 300 360 271 424 q 381 251 329 296 l 576 811 l 574 811 q 422 769 492 811 q 311 654 351 726 q 271 496 271 582 m 574 179 q 723 222 654 179 q 832 337 792 264 q 872 496 872 410 q 843 632 872 568 q 763 740 814 696 l 567 179 l 574 179 z "},"Õ":{"ha":1143,"x_min":61,"x_max":1081,"o":"m 572 -19 q 316 50 433 -19 q 130 238 199 119 q 61 496 61 356 q 130 753 61 635 q 316 940 199 871 q 572 1010 433 1010 q 826 940 710 1010 q 1012 753 943 871 q 1081 496 1081 635 q 1012 238 1081 356 q 826 50 943 119 q 572 -19 710 -19 m 572 179 q 722 222 653 179 q 831 337 790 264 q 871 496 871 410 q 831 653 871 581 q 722 769 790 726 q 572 811 653 811 q 420 769 490 811 q 310 654 350 726 q 269 496 269 582 q 310 337 269 410 q 420 222 350 264 q 572 179 490 179 m 672 1122 q 610 1134 638 1122 q 543 1174 582 1146 q 503 1199 518 1192 q 475 1207 489 1207 q 429 1188 447 1207 q 408 1133 411 1168 l 290 1133 q 338 1287 293 1231 q 460 1343 383 1343 q 523 1331 494 1343 q 589 1292 551 1318 q 628 1265 614 1272 q 658 1257 643 1257 q 703 1276 685 1257 q 724 1328 721 1296 l 842 1328 q 794 1178 839 1233 q 672 1122 749 1122 z "},"Œ":{"ha":1588,"x_min":61,"x_max":1546,"o":"m 1082 193 l 1544 193 l 1544 0 l 871 0 l 871 79 q 731 6 807 32 q 572 -19 654 -19 q 316 50 433 -19 q 130 238 199 119 q 61 496 61 356 q 130 753 61 635 q 316 940 199 871 q 572 1010 433 1010 q 731 984 654 1010 q 871 911 807 958 l 871 989 l 1544 989 l 1546 794 l 1082 796 l 1082 583 l 1494 583 l 1494 404 l 1082 404 l 1082 193 m 572 179 q 722 222 653 179 q 831 337 790 264 q 871 496 871 410 q 831 653 871 581 q 722 769 790 726 q 572 811 653 811 q 420 769 490 811 q 310 654 350 726 q 269 496 269 582 q 310 337 269 410 q 420 222 350 264 q 572 179 490 179 z "},"Þ":{"ha":832,"x_min":74,"x_max":794,"o":"m 447 854 q 622 808 542 854 q 748 681 701 761 q 794 508 794 601 q 748 333 794 414 q 622 206 701 253 q 447 160 542 160 l 285 160 l 285 0 l 74 0 l 74 989 l 285 989 l 285 854 l 447 854 m 433 353 q 540 399 494 353 q 585 508 585 444 q 540 615 585 569 q 433 661 494 661 l 285 661 l 285 353 l 433 353 z "},"Ŕ":{"ha":878,"x_min":74,"x_max":851,"o":"m 851 0 l 643 0 l 547 228 q 497 300 526 276 q 407 324 467 324 l 285 324 l 285 0 l 74 0 l 74 989 l 449 989 q 622 942 542 989 q 748 816 701 896 q 794 642 794 736 q 758 492 794 558 q 656 383 721 426 q 743 263 707 349 l 851 0 m 285 488 l 433 488 q 539 533 494 488 q 583 642 583 579 q 539 750 583 704 q 433 796 494 796 l 285 796 l 285 488 m 463 1322 l 669 1322 l 464 1118 l 276 1118 l 463 1322 z "},"Ř":{"ha":878,"x_min":74,"x_max":851,"o":"m 851 0 l 643 0 l 547 228 q 497 300 526 276 q 407 324 467 324 l 285 324 l 285 0 l 74 0 l 74 989 l 449 989 q 622 942 542 989 q 748 816 701 896 q 794 642 794 736 q 758 492 794 558 q 656 383 721 426 q 743 263 707 349 l 851 0 m 285 488 l 433 488 q 539 533 494 488 q 583 642 583 579 q 539 750 583 704 q 433 796 494 796 l 285 796 l 285 488 m 485 1118 l 274 1118 l 97 1322 l 253 1322 l 379 1210 l 506 1322 l 660 1322 l 485 1118 z "},"Ŗ":{"ha":878,"x_min":74,"x_max":851,"o":"m 851 0 l 643 0 l 547 228 q 497 300 526 276 q 407 324 467 324 l 285 324 l 285 0 l 74 0 l 74 989 l 449 989 q 622 942 542 989 q 748 816 701 896 q 794 642 794 736 q 758 492 794 558 q 656 383 721 426 q 743 263 707 349 l 851 0 m 285 488 l 433 488 q 539 533 494 488 q 583 642 583 579 q 539 750 583 704 q 433 796 494 796 l 285 796 l 285 488 m 308 -543 q 404 -394 350 -489 l 422 -367 q 356 -335 388 -368 q 325 -258 325 -301 q 363 -167 325 -204 q 453 -129 400 -129 q 547 -167 511 -129 q 582 -257 582 -204 q 543 -421 582 -329 q 421 -619 504 -512 l 308 -543 z "},"Ś":{"ha":875,"x_min":44,"x_max":832,"o":"m 440 -19 q 231 9 339 -19 q 44 82 122 38 l 117 258 q 267 201 175 225 q 433 176 360 176 q 570 202 518 176 q 622 274 622 228 q 582 338 622 317 q 449 383 542 358 l 410 394 q 203 475 278 432 q 97 574 129 518 q 65 710 65 629 q 117 869 65 801 q 260 974 169 938 q 467 1011 351 1011 q 797 944 618 1011 l 728 763 q 464 814 576 814 q 328 786 379 814 q 276 710 276 758 q 297 655 276 675 q 358 621 318 635 q 485 586 399 607 q 755 469 678 539 q 832 293 832 399 q 782 126 832 197 q 643 18 732 56 q 440 -19 554 -19 m 518 1326 l 725 1326 l 519 1122 l 332 1122 l 518 1326 z "},"Š":{"ha":875,"x_min":44,"x_max":832,"o":"m 440 -19 q 231 9 339 -19 q 44 82 122 38 l 117 258 q 267 201 175 225 q 433 176 360 176 q 570 202 518 176 q 622 274 622 228 q 582 338 622 317 q 449 383 542 358 l 410 394 q 203 475 278 432 q 97 574 129 518 q 65 710 65 629 q 117 869 65 801 q 260 974 169 938 q 467 1011 351 1011 q 797 944 618 1011 l 728 763 q 464 814 576 814 q 328 786 379 814 q 276 710 276 758 q 297 655 276 675 q 358 621 318 635 q 485 586 399 607 q 755 469 678 539 q 832 293 832 399 q 782 126 832 197 q 643 18 732 56 q 440 -19 554 -19 m 556 1122 l 344 1122 l 168 1326 l 324 1326 l 450 1214 l 576 1326 l 731 1326 l 556 1122 z "},"Ş":{"ha":875,"x_min":44,"x_max":832,"o":"m 832 293 q 744 82 832 164 q 510 -15 656 0 l 492 -90 q 578 -127 549 -97 q 608 -201 608 -157 q 551 -303 608 -265 q 400 -342 494 -342 l 283 -342 l 307 -237 l 411 -239 q 468 -194 468 -239 q 455 -163 468 -175 q 418 -151 442 -151 l 347 -151 l 381 -17 q 201 17 290 -10 q 44 82 111 44 l 117 258 q 267 201 175 225 q 433 176 360 176 q 570 202 518 176 q 622 274 622 228 q 582 338 622 317 q 449 383 542 358 l 410 394 q 203 475 278 432 q 97 574 129 518 q 65 710 65 629 q 117 869 65 801 q 260 974 169 938 q 467 1011 351 1011 q 797 944 618 1011 l 728 763 q 464 814 576 814 q 328 786 379 814 q 276 710 276 758 q 297 655 276 675 q 358 621 318 635 q 485 586 399 607 q 755 469 678 539 q 832 293 832 399 z "},"Ș":{"ha":875,"x_min":44,"x_max":832,"o":"m 440 -19 q 231 9 339 -19 q 44 82 122 38 l 117 258 q 267 201 175 225 q 433 176 360 176 q 570 202 518 176 q 622 274 622 228 q 582 338 622 317 q 449 383 542 358 l 410 394 q 203 475 278 432 q 97 574 129 518 q 65 710 65 629 q 117 869 65 801 q 260 974 169 938 q 467 1011 351 1011 q 797 944 618 1011 l 728 763 q 464 814 576 814 q 328 786 379 814 q 276 710 276 758 q 297 655 276 675 q 358 621 318 635 q 485 586 399 607 q 755 469 678 539 q 832 293 832 399 q 782 126 832 197 q 643 18 732 56 q 440 -19 554 -19 m 286 -549 q 382 -400 328 -494 l 400 -372 q 334 -340 365 -374 q 303 -264 303 -307 q 340 -172 303 -210 q 431 -135 378 -135 q 524 -172 489 -135 q 560 -262 560 -210 q 521 -426 560 -335 q 399 -625 482 -518 l 286 -549 z "},"ẞ":{"ha":1021,"x_min":85,"x_max":975,"o":"m 719 619 q 904 513 833 594 q 975 317 975 431 q 928 149 975 226 q 801 27 882 72 q 626 -18 721 -18 q 477 15 547 -18 q 358 104 407 47 l 510 242 q 561 195 531 213 q 626 178 592 178 q 724 219 683 178 q 765 317 765 260 q 724 415 765 374 q 626 456 683 456 q 569 447 597 456 q 494 421 540 439 l 388 568 l 665 796 l 360 796 q 313 777 332 796 q 294 728 294 758 l 294 0 l 85 0 l 85 728 q 120 860 85 800 q 216 954 156 919 q 347 989 276 989 l 910 989 l 910 788 l 719 619 z "},"Ŧ":{"ha":754,"x_min":14,"x_max":739,"o":"m 739 796 l 481 796 l 481 583 l 583 583 l 583 404 l 481 404 l 481 0 l 271 0 l 271 404 l 171 404 l 171 583 l 271 583 l 271 796 l 15 796 l 14 989 l 739 989 l 739 796 z "},"Ť":{"ha":754,"x_min":14,"x_max":739,"o":"m 271 796 l 15 796 l 14 989 l 739 989 l 739 796 l 481 796 l 481 0 l 271 0 l 271 796 m 482 1118 l 271 1118 l 94 1322 l 250 1322 l 376 1210 l 503 1322 l 657 1322 l 482 1118 z "},"Ţ":{"ha":754,"x_min":14,"x_max":739,"o":"m 271 796 l 15 796 l 14 989 l 739 989 l 739 796 l 481 796 l 481 0 l 271 0 l 271 796 m 276 -232 l 379 -233 q 423 -223 410 -233 q 436 -190 436 -212 q 424 -159 436 -171 q 388 -147 411 -147 l 317 -147 l 353 0 l 481 0 l 461 -86 q 548 -123 518 -93 q 578 -197 578 -153 q 521 -299 578 -261 q 368 -337 464 -337 l 253 -337 l 276 -232 z "},"Ț":{"ha":754,"x_min":14,"x_max":739,"o":"m 271 796 l 15 796 l 14 989 l 739 989 l 739 796 l 481 796 l 481 0 l 271 0 l 271 796 m 232 -543 q 328 -394 274 -489 l 346 -367 q 280 -335 311 -368 q 249 -258 249 -301 q 286 -167 249 -204 q 376 -129 324 -129 q 470 -167 435 -129 q 506 -257 506 -204 q 467 -421 506 -329 q 344 -619 428 -512 l 232 -543 z "},"Ú":{"ha":921,"x_min":71,"x_max":850,"o":"m 460 -8 q 265 44 354 -8 q 123 187 175 97 q 71 382 71 276 l 71 989 l 281 989 l 281 371 q 305 281 281 322 q 370 216 329 240 q 460 192 411 192 q 550 216 508 192 q 616 281 592 240 q 640 371 640 322 l 640 989 l 850 989 l 850 382 q 798 187 850 276 q 656 44 746 97 q 460 -8 567 -8 m 550 1322 l 757 1322 l 551 1118 l 364 1118 l 550 1322 z "},"Û":{"ha":921,"x_min":71,"x_max":850,"o":"m 460 -8 q 265 44 354 -8 q 123 187 175 97 q 71 382 71 276 l 71 989 l 281 989 l 281 371 q 305 281 281 322 q 370 216 329 240 q 460 192 411 192 q 550 216 508 192 q 616 281 592 240 q 640 371 640 322 l 640 989 l 850 989 l 850 382 q 798 187 850 276 q 656 44 746 97 q 460 -8 567 -8 m 464 1229 l 338 1117 l 182 1117 l 358 1322 l 569 1322 l 744 1117 l 590 1117 l 464 1229 z "},"Ü":{"ha":921,"x_min":71,"x_max":850,"o":"m 460 -8 q 265 44 354 -8 q 123 187 175 97 q 71 382 71 276 l 71 989 l 281 989 l 281 371 q 305 281 281 322 q 370 216 329 240 q 460 192 411 192 q 550 216 508 192 q 616 281 592 240 q 640 371 640 322 l 640 989 l 850 989 l 850 382 q 798 187 850 276 q 656 44 746 97 q 460 -8 567 -8 m 349 1117 q 275 1147 306 1117 q 244 1221 244 1178 q 275 1294 244 1264 q 349 1324 306 1324 q 422 1294 392 1324 q 453 1221 453 1264 q 422 1147 453 1178 q 349 1117 392 1117 m 586 1117 q 512 1147 542 1117 q 482 1221 482 1178 q 513 1294 482 1264 q 586 1324 543 1324 q 659 1294 629 1324 q 689 1221 689 1264 q 659 1147 689 1178 q 586 1117 629 1117 z "},"Ù":{"ha":921,"x_min":71,"x_max":850,"o":"m 460 -8 q 265 44 354 -8 q 123 187 175 97 q 71 382 71 276 l 71 989 l 281 989 l 281 371 q 305 281 281 322 q 370 216 329 240 q 460 192 411 192 q 550 216 508 192 q 616 281 592 240 q 640 371 640 322 l 640 989 l 850 989 l 850 382 q 798 187 850 276 q 656 44 746 97 q 460 -8 567 -8 m 167 1322 l 374 1322 l 560 1118 l 372 1118 l 167 1322 z "},"Ű":{"ha":921,"x_min":71,"x_max":854,"o":"m 460 -8 q 265 44 354 -8 q 123 187 175 97 q 71 382 71 276 l 71 989 l 281 989 l 281 371 q 305 281 281 322 q 370 216 329 240 q 460 192 411 192 q 550 216 508 192 q 616 281 592 240 q 640 371 640 322 l 640 989 l 850 989 l 850 382 q 798 187 850 276 q 656 44 746 97 q 460 -8 567 -8 m 368 1322 l 572 1322 l 379 1118 l 192 1118 l 368 1322 m 650 1322 l 854 1322 l 660 1118 l 474 1118 l 650 1322 z "},"Ū":{"ha":921,"x_min":71,"x_max":850,"o":"m 460 -8 q 265 44 354 -8 q 123 187 175 97 q 71 382 71 276 l 71 989 l 281 989 l 281 371 q 305 281 281 322 q 370 216 329 240 q 460 192 411 192 q 550 216 508 192 q 616 281 592 240 q 640 371 640 322 l 640 989 l 850 989 l 850 382 q 798 187 850 276 q 656 44 746 97 q 460 -8 567 -8 m 665 1118 l 254 1118 l 254 1247 l 665 1247 l 665 1118 z "},"Ų":{"ha":921,"x_min":71,"x_max":850,"o":"m 850 989 l 850 382 q 810 212 850 292 q 702 76 771 132 q 547 1 633 21 q 442 -65 478 -32 q 406 -135 406 -97 q 426 -183 406 -165 q 486 -200 447 -200 l 567 -200 l 567 -314 l 457 -314 q 313 -272 365 -314 q 261 -156 261 -229 q 356 6 261 -61 q 209 83 274 28 q 108 217 144 139 q 71 382 71 294 l 71 989 l 281 989 l 281 371 q 305 281 281 322 q 370 216 329 240 q 460 192 411 192 q 550 216 508 192 q 616 281 592 240 q 640 371 640 322 l 640 989 l 850 989 z "},"Ů":{"ha":921,"x_min":71,"x_max":850,"o":"m 460 -8 q 265 44 354 -8 q 123 187 175 97 q 71 382 71 276 l 71 989 l 281 989 l 281 371 q 305 281 281 322 q 370 216 329 240 q 460 192 411 192 q 550 216 508 192 q 616 281 592 240 q 640 371 640 322 l 640 989 l 850 989 l 850 382 q 798 187 850 276 q 656 44 746 97 q 460 -8 567 -8 m 464 1118 q 338 1167 389 1118 q 286 1289 286 1217 q 338 1410 286 1361 q 464 1460 390 1460 q 591 1410 539 1460 q 643 1289 643 1361 q 591 1167 643 1217 q 464 1118 539 1118 m 464 1207 q 522 1231 499 1207 q 546 1289 546 1254 q 522 1348 546 1325 q 464 1371 499 1371 q 406 1347 429 1371 q 383 1289 383 1324 q 406 1230 383 1253 q 464 1207 429 1207 z "},"Ẃ":{"ha":1253,"x_min":13,"x_max":1240,"o":"m 13 989 l 219 989 l 332 213 l 499 910 l 756 910 l 921 213 l 1035 989 l 1240 989 l 1061 0 l 778 0 l 626 721 l 475 0 l 193 0 l 13 989 m 715 1256 l 922 1256 l 717 1051 l 529 1051 l 715 1256 z "},"Ŵ":{"ha":1253,"x_min":13,"x_max":1240,"o":"m 13 989 l 219 989 l 332 213 l 499 910 l 756 910 l 921 213 l 1035 989 l 1240 989 l 1061 0 l 778 0 l 626 721 l 475 0 l 193 0 l 13 989 m 607 1164 l 481 1051 l 325 1051 l 501 1257 l 713 1257 l 888 1051 l 733 1051 l 607 1164 z "},"Ẅ":{"ha":1253,"x_min":13,"x_max":1240,"o":"m 13 989 l 219 989 l 332 213 l 499 910 l 756 910 l 921 213 l 1035 989 l 1240 989 l 1061 0 l 778 0 l 626 721 l 475 0 l 193 0 l 13 989 m 511 946 q 438 976 468 946 q 407 1050 407 1007 q 438 1123 407 1093 q 511 1153 468 1153 q 585 1123 554 1153 q 615 1050 615 1093 q 585 976 615 1007 q 511 946 554 946 m 749 946 q 674 976 704 946 q 644 1050 644 1007 q 675 1123 644 1093 q 749 1153 706 1153 q 822 1123 792 1153 q 851 1050 851 1093 q 822 976 851 1007 q 749 946 792 946 z "},"Ẁ":{"ha":1253,"x_min":13,"x_max":1240,"o":"m 13 989 l 219 989 l 332 213 l 499 910 l 756 910 l 921 213 l 1035 989 l 1240 989 l 1061 0 l 778 0 l 626 721 l 475 0 l 193 0 l 13 989 m 329 1257 l 536 1257 l 722 1053 l 535 1053 l 329 1257 z "},"Ý":{"ha":849,"x_min":13,"x_max":836,"o":"m 317 331 l 13 989 l 240 989 l 419 583 l 608 989 l 836 989 l 526 331 l 526 0 l 317 0 l 317 331 m 513 1322 l 719 1322 l 514 1118 l 326 1118 l 513 1322 z "},"Ŷ":{"ha":849,"x_min":13,"x_max":836,"o":"m 317 331 l 13 989 l 240 989 l 419 583 l 608 989 l 836 989 l 526 331 l 526 0 l 317 0 l 317 331 m 426 1229 l 300 1117 l 144 1117 l 321 1322 l 532 1322 l 707 1117 l 553 1117 l 426 1229 z "},"Ÿ":{"ha":849,"x_min":13,"x_max":836,"o":"m 317 331 l 13 989 l 240 989 l 419 583 l 608 989 l 836 989 l 526 331 l 526 0 l 317 0 l 317 331 m 314 1117 q 240 1147 271 1117 q 210 1221 210 1178 q 240 1294 210 1264 q 314 1324 271 1324 q 388 1294 357 1324 q 418 1221 418 1264 q 388 1147 418 1178 q 314 1117 357 1117 m 551 1117 q 477 1147 507 1117 q 447 1221 447 1178 q 478 1294 447 1264 q 551 1324 508 1324 q 624 1294 594 1324 q 654 1221 654 1264 q 624 1147 654 1178 q 551 1117 594 1117 z "},"Ỳ":{"ha":849,"x_min":13,"x_max":836,"o":"m 317 331 l 13 989 l 240 989 l 419 583 l 608 989 l 836 989 l 526 331 l 526 0 l 317 0 l 317 331 m 142 1322 l 349 1322 l 535 1118 l 347 1118 l 142 1322 z "},"Ź":{"ha":803,"x_min":32,"x_max":771,"o":"m 771 0 l 32 0 l 32 231 l 524 796 l 43 796 l 43 989 l 767 989 l 767 758 l 278 193 l 769 193 l 771 0 m 453 1322 l 660 1322 l 454 1118 l 267 1118 l 453 1322 z "},"Ž":{"ha":803,"x_min":32,"x_max":771,"o":"m 771 0 l 32 0 l 32 231 l 524 796 l 43 796 l 43 989 l 767 989 l 767 758 l 278 193 l 769 193 l 771 0 m 511 1118 l 300 1118 l 124 1322 l 279 1322 l 406 1210 l 532 1322 l 686 1322 l 511 1118 z "},"Ż":{"ha":803,"x_min":32,"x_max":771,"o":"m 771 0 l 32 0 l 32 231 l 524 796 l 43 796 l 43 989 l 767 989 l 767 758 l 278 193 l 769 193 l 771 0 m 404 1117 q 331 1147 361 1117 q 300 1221 300 1178 q 331 1294 300 1264 q 404 1324 361 1324 q 478 1294 447 1324 q 508 1221 508 1264 q 478 1147 508 1178 q 404 1117 447 1117 z "},"á":{"ha":885,"x_min":47,"x_max":824,"o":"m 824 717 l 824 0 l 650 0 l 650 96 q 424 -17 569 -17 q 235 35 321 -17 q 98 172 149 86 q 47 360 47 258 q 98 546 47 460 q 235 683 149 632 q 424 733 321 733 q 650 621 569 733 l 650 717 l 824 717 m 436 181 q 562 232 510 181 q 614 358 614 283 q 562 485 614 433 q 436 538 510 538 q 310 485 361 538 q 258 358 258 433 q 310 232 258 283 q 436 181 361 181 m 489 1078 l 696 1078 l 490 874 l 303 874 l 489 1078 z "},"ă":{"ha":885,"x_min":47,"x_max":824,"o":"m 824 717 l 824 0 l 650 0 l 650 96 q 424 -17 569 -17 q 235 35 321 -17 q 98 172 149 86 q 47 360 47 258 q 98 546 47 460 q 235 683 149 632 q 424 733 321 733 q 650 621 569 733 l 650 717 l 824 717 m 436 181 q 562 232 510 181 q 614 358 614 283 q 562 485 614 433 q 436 538 510 538 q 310 485 361 538 q 258 358 258 433 q 310 232 258 283 q 436 181 361 181 m 415 872 q 228 931 301 872 q 151 1088 156 989 l 299 1088 q 334 1018 301 1044 q 415 992 367 992 q 497 1018 464 992 q 532 1088 529 1044 l 679 1088 q 602 931 675 989 q 415 872 529 872 z "},"â":{"ha":885,"x_min":47,"x_max":824,"o":"m 824 717 l 824 0 l 650 0 l 650 96 q 424 -17 569 -17 q 235 35 321 -17 q 98 172 149 86 q 47 360 47 258 q 98 546 47 460 q 235 683 149 632 q 424 733 321 733 q 650 621 569 733 l 650 717 l 824 717 m 436 181 q 562 232 510 181 q 614 358 614 283 q 562 485 614 433 q 436 538 510 538 q 310 485 361 538 q 258 358 258 433 q 310 232 258 283 q 436 181 361 181 m 425 981 l 299 868 l 143 868 l 319 1074 l 531 1074 l 706 868 l 551 868 l 425 981 z "},"ä":{"ha":885,"x_min":47,"x_max":824,"o":"m 824 717 l 824 0 l 650 0 l 650 96 q 424 -17 569 -17 q 235 35 321 -17 q 98 172 149 86 q 47 360 47 258 q 98 546 47 460 q 235 683 149 632 q 424 733 321 733 q 650 621 569 733 l 650 717 l 824 717 m 436 181 q 562 232 510 181 q 614 358 614 283 q 562 485 614 433 q 436 538 510 538 q 310 485 361 538 q 258 358 258 433 q 310 232 258 283 q 436 181 361 181 m 306 864 q 232 894 263 864 q 201 968 201 925 q 232 1041 201 1011 q 306 1071 263 1071 q 379 1041 349 1071 q 410 968 410 1011 q 379 894 410 925 q 306 864 349 864 m 543 864 q 469 894 499 864 q 439 968 439 925 q 469 1041 439 1011 q 543 1071 500 1071 q 616 1041 586 1071 q 646 968 646 1011 q 616 894 646 925 q 543 864 586 864 z "},"à":{"ha":885,"x_min":47,"x_max":824,"o":"m 824 717 l 824 0 l 650 0 l 650 96 q 424 -17 569 -17 q 235 35 321 -17 q 98 172 149 86 q 47 360 47 258 q 98 546 47 460 q 235 683 149 632 q 424 733 321 733 q 650 621 569 733 l 650 717 l 824 717 m 436 181 q 562 232 510 181 q 614 358 614 283 q 562 485 614 433 q 436 538 510 538 q 310 485 361 538 q 258 358 258 433 q 310 232 258 283 q 436 181 361 181 m 135 1078 l 342 1078 l 528 874 l 340 874 l 135 1078 z "},"ā":{"ha":885,"x_min":47,"x_max":824,"o":"m 824 717 l 824 0 l 650 0 l 650 96 q 424 -17 569 -17 q 235 35 321 -17 q 98 172 149 86 q 47 360 47 258 q 98 546 47 460 q 235 683 149 632 q 424 733 321 733 q 650 621 569 733 l 650 717 l 824 717 m 436 181 q 562 232 510 181 q 614 358 614 283 q 562 485 614 433 q 436 538 510 538 q 310 485 361 538 q 258 358 258 433 q 310 232 258 283 q 436 181 361 181 m 619 874 l 208 874 l 208 1003 l 619 1003 l 619 874 z "},"ą":{"ha":885,"x_min":47,"x_max":824,"o":"m 824 717 l 824 0 q 702 -71 743 -36 q 661 -146 661 -106 q 682 -194 661 -176 q 742 -211 703 -211 l 822 -211 l 822 -325 l 713 -325 q 568 -283 621 -325 q 515 -167 515 -240 q 550 -64 515 -111 q 650 19 585 -17 l 650 96 q 424 -17 569 -17 q 235 35 321 -17 q 98 172 149 86 q 47 360 47 258 q 98 546 47 460 q 235 683 149 632 q 424 733 321 733 q 650 621 569 733 l 650 717 l 824 717 m 436 181 q 562 232 510 181 q 614 358 614 283 q 562 485 614 433 q 436 538 510 538 q 310 485 361 538 q 258 358 258 433 q 310 232 258 283 q 436 181 361 181 z "},"å":{"ha":885,"x_min":47,"x_max":824,"o":"m 824 717 l 824 0 l 650 0 l 650 96 q 424 -17 569 -17 q 235 35 321 -17 q 98 172 149 86 q 47 360 47 258 q 98 546 47 460 q 235 683 149 632 q 424 733 321 733 q 650 621 569 733 l 650 717 l 824 717 m 436 181 q 562 232 510 181 q 614 358 614 283 q 562 485 614 433 q 436 538 510 538 q 310 485 361 538 q 258 358 258 433 q 310 232 258 283 q 436 181 361 181 m 418 872 q 292 922 343 872 q 240 1043 240 971 q 292 1165 240 1115 q 418 1214 344 1214 q 545 1165 493 1214 q 597 1043 597 1115 q 545 922 597 971 q 418 872 493 872 m 418 961 q 476 985 453 961 q 500 1043 500 1008 q 476 1102 500 1079 q 418 1125 453 1125 q 360 1101 383 1125 q 338 1043 338 1078 q 360 984 338 1007 q 418 961 383 961 z "},"ã":{"ha":885,"x_min":47,"x_max":824,"o":"m 824 717 l 824 0 l 650 0 l 650 96 q 424 -17 569 -17 q 235 35 321 -17 q 98 172 149 86 q 47 360 47 258 q 98 546 47 460 q 235 683 149 632 q 424 733 321 733 q 650 621 569 733 l 650 717 l 824 717 m 436 181 q 562 232 510 181 q 614 358 614 283 q 562 485 614 433 q 436 538 510 538 q 310 485 361 538 q 258 358 258 433 q 310 232 258 283 q 436 181 361 181 m 543 879 q 481 891 508 879 q 414 931 453 903 q 374 956 389 949 q 346 964 360 964 q 300 944 318 964 q 279 890 282 925 l 161 890 q 209 1044 164 988 q 331 1100 254 1100 q 394 1088 365 1100 q 460 1049 422 1075 q 499 1022 485 1029 q 529 1014 514 1014 q 574 1033 556 1014 q 594 1085 592 1053 l 713 1085 q 665 935 710 990 q 543 879 619 879 z "},"æ":{"ha":1417,"x_min":47,"x_max":1378,"o":"m 1378 360 q 1371 279 1378 318 l 839 279 q 909 188 861 222 q 1022 154 957 154 q 1183 226 1124 154 l 1336 146 q 1202 26 1285 68 q 1019 -17 1119 -17 q 807 75 892 -17 l 807 0 l 649 0 l 649 94 q 424 -17 567 -17 q 235 35 321 -17 q 98 172 149 86 q 47 360 47 258 q 98 546 47 460 q 235 683 149 632 q 424 733 321 733 q 649 622 567 733 l 649 717 l 807 717 l 807 643 q 1019 733 893 733 q 1205 683 1124 733 q 1332 547 1286 633 q 1378 360 1378 461 m 1022 557 q 910 522 960 557 q 838 432 860 488 l 1206 432 q 1135 522 1185 488 q 1022 557 1085 557 m 436 181 q 562 232 510 181 q 614 358 614 283 q 562 485 614 433 q 436 538 510 538 q 310 485 361 538 q 258 358 258 433 q 310 232 258 283 q 436 181 361 181 z "},"ć":{"ha":832,"x_min":47,"x_max":785,"o":"m 424 -17 q 235 35 321 -17 q 98 172 149 86 q 47 360 47 258 q 98 546 47 460 q 235 683 149 632 q 424 733 321 733 q 590 694 514 733 q 718 589 667 656 q 785 439 769 522 l 604 413 q 540 502 588 467 q 436 538 493 538 q 310 485 363 538 q 258 358 258 433 q 282 269 258 310 q 347 203 306 228 q 436 179 388 179 q 540 215 493 179 q 604 304 588 250 l 785 279 q 718 128 769 196 q 590 22 667 61 q 424 -17 514 -17 m 496 1075 l 703 1075 l 497 871 l 310 871 l 496 1075 z "},"č":{"ha":832,"x_min":47,"x_max":785,"o":"m 424 -17 q 235 35 321 -17 q 98 172 149 86 q 47 360 47 258 q 98 546 47 460 q 235 683 149 632 q 424 733 321 733 q 590 694 514 733 q 718 589 667 656 q 785 439 769 522 l 604 413 q 540 502 588 467 q 436 538 493 538 q 310 485 363 538 q 258 358 258 433 q 282 269 258 310 q 347 203 306 228 q 436 179 388 179 q 540 215 493 179 q 604 304 588 250 l 785 279 q 718 128 769 196 q 590 22 667 61 q 424 -17 514 -17 m 531 872 l 319 872 l 143 1076 l 299 1076 l 425 964 l 551 1076 l 706 1076 l 531 872 z "},"ç":{"ha":832,"x_min":47,"x_max":785,"o":"m 436 179 q 540 215 493 179 q 604 304 588 250 l 785 279 q 681 86 764 167 q 483 -12 599 6 l 467 -86 q 553 -123 524 -93 q 583 -197 583 -153 q 526 -299 583 -261 q 374 -337 469 -337 l 258 -337 l 282 -232 l 385 -233 q 428 -223 415 -233 q 442 -190 442 -212 q 429 -159 442 -171 q 393 -147 417 -147 l 322 -147 l 356 -11 q 199 59 269 6 q 88 191 128 113 q 47 360 47 269 q 98 546 47 460 q 235 683 149 632 q 424 733 321 733 q 590 694 514 733 q 718 589 667 656 q 785 439 769 522 l 604 413 q 540 502 588 467 q 436 538 493 538 q 310 485 363 538 q 258 358 258 433 q 282 269 258 310 q 347 203 306 228 q 436 179 388 179 z "},"ċ":{"ha":832,"x_min":47,"x_max":785,"o":"m 424 -17 q 235 35 321 -17 q 98 172 149 86 q 47 360 47 258 q 98 546 47 460 q 235 683 149 632 q 424 733 321 733 q 590 694 514 733 q 718 589 667 656 q 785 439 769 522 l 604 413 q 540 502 588 467 q 436 538 493 538 q 310 485 363 538 q 258 358 258 433 q 282 269 258 310 q 347 203 306 228 q 436 179 388 179 q 540 215 493 179 q 604 304 588 250 l 785 279 q 718 128 769 196 q 590 22 667 61 q 424 -17 514 -17 m 419 869 q 346 900 376 869 q 315 974 315 931 q 346 1047 315 1017 q 419 1076 376 1076 q 493 1047 463 1076 q 524 974 524 1017 q 493 900 524 931 q 419 869 463 869 z "},"ð":{"ha":879,"x_min":78,"x_max":813,"o":"m 729 822 q 813 451 813 679 q 767 205 813 311 q 636 41 722 99 q 433 -17 550 -17 q 256 31 338 -17 q 126 161 174 79 q 78 340 78 243 q 125 506 78 435 q 251 616 172 578 q 424 654 329 654 l 372 735 l 478 799 q 424 810 451 810 l 331 810 l 331 1003 l 419 1003 q 664 908 565 1003 l 744 957 l 801 865 l 729 822 m 590 569 q 556 719 593 650 l 444 653 q 529 625 490 647 q 590 569 568 603 m 439 176 q 544 219 500 176 q 588 322 588 263 q 544 425 588 382 q 439 468 500 468 q 332 425 376 468 q 288 322 288 382 q 332 219 288 263 q 439 176 376 176 z "},"ď":{"ha":903,"x_min":47,"x_max":999,"o":"m 825 1031 l 825 0 l 650 0 l 650 96 q 424 -17 569 -17 q 235 35 321 -17 q 98 172 149 86 q 47 360 47 258 q 98 546 47 460 q 235 683 149 632 q 424 733 321 733 q 614 663 539 733 l 614 1031 l 825 1031 m 436 181 q 562 232 510 181 q 614 358 614 283 q 562 485 614 433 q 436 538 510 538 q 310 485 363 538 q 258 358 258 433 q 310 232 258 283 q 436 181 363 181 m 824 1169 l 613 1169 l 436 1374 l 592 1374 l 718 1261 l 844 1374 l 999 1374 l 824 1169 z "},"đ":{"ha":938,"x_min":47,"x_max":896,"o":"m 896 771 l 825 771 l 825 0 l 650 0 l 650 96 q 424 -17 569 -17 q 235 35 321 -17 q 98 172 149 86 q 47 360 47 258 q 98 546 47 460 q 235 683 149 632 q 424 733 321 733 q 614 663 539 733 l 614 771 l 526 771 l 526 950 l 614 950 l 614 1031 l 825 1031 l 825 950 l 896 950 l 896 771 m 436 181 q 562 232 510 181 q 614 358 614 283 q 562 485 614 433 q 436 538 510 538 q 310 485 363 538 q 258 358 258 433 q 310 232 258 283 q 436 181 363 181 z "},"é":{"ha":826,"x_min":53,"x_max":786,"o":"m 786 360 q 781 279 786 311 l 249 279 q 318 189 271 224 q 431 154 365 154 q 593 226 532 154 l 746 146 q 611 26 694 68 q 428 -17 528 -17 q 240 35 326 -17 q 103 172 154 86 q 53 360 53 258 q 103 546 53 460 q 240 683 154 632 q 428 733 326 733 q 613 683 532 733 q 740 547 694 633 q 786 360 786 461 m 431 557 q 323 525 371 557 q 251 442 275 493 l 610 442 q 538 525 586 493 q 431 557 490 557 m 507 1074 l 714 1074 l 508 869 l 321 869 l 507 1074 z "},"ě":{"ha":826,"x_min":53,"x_max":786,"o":"m 786 360 q 781 279 786 311 l 249 279 q 318 189 271 224 q 431 154 365 154 q 593 226 532 154 l 746 146 q 611 26 694 68 q 428 -17 528 -17 q 240 35 326 -17 q 103 172 154 86 q 53 360 53 258 q 103 546 53 460 q 240 683 154 632 q 428 733 326 733 q 613 683 532 733 q 740 547 694 633 q 786 360 786 461 m 431 557 q 323 525 371 557 q 251 442 275 493 l 610 442 q 538 525 586 493 q 431 557 490 557 m 535 874 l 324 874 l 147 1078 l 303 1078 l 429 965 l 556 1078 l 710 1078 l 535 874 z "},"ê":{"ha":826,"x_min":53,"x_max":786,"o":"m 786 360 q 781 279 786 311 l 249 279 q 318 189 271 224 q 431 154 365 154 q 593 226 532 154 l 746 146 q 611 26 694 68 q 428 -17 528 -17 q 240 35 326 -17 q 103 172 154 86 q 53 360 53 258 q 103 546 53 460 q 240 683 154 632 q 428 733 326 733 q 613 683 532 733 q 740 547 694 633 q 786 360 786 461 m 431 557 q 323 525 371 557 q 251 442 275 493 l 610 442 q 538 525 586 493 q 431 557 490 557 m 439 976 l 313 864 l 157 864 l 333 1069 l 544 1069 l 719 864 l 565 864 l 439 976 z "},"ë":{"ha":826,"x_min":53,"x_max":786,"o":"m 786 360 q 781 279 786 311 l 249 279 q 318 189 271 224 q 431 154 365 154 q 593 226 532 154 l 746 146 q 611 26 694 68 q 428 -17 528 -17 q 240 35 326 -17 q 103 172 154 86 q 53 360 53 258 q 103 546 53 460 q 240 683 154 632 q 428 733 326 733 q 613 683 532 733 q 740 547 694 633 q 786 360 786 461 m 431 557 q 323 525 371 557 q 251 442 275 493 l 610 442 q 538 525 586 493 q 431 557 490 557 m 308 858 q 235 889 265 858 q 204 963 204 919 q 235 1035 204 1006 q 308 1065 265 1065 q 382 1035 351 1065 q 413 963 413 1006 q 382 889 413 919 q 308 858 351 858 m 546 858 q 472 889 501 858 q 442 963 442 919 q 472 1035 442 1006 q 546 1065 503 1065 q 619 1035 589 1065 q 649 963 649 1006 q 619 889 649 919 q 546 858 589 858 z "},"ė":{"ha":826,"x_min":53,"x_max":786,"o":"m 786 360 q 781 279 786 311 l 249 279 q 318 189 271 224 q 431 154 365 154 q 593 226 532 154 l 746 146 q 611 26 694 68 q 428 -17 528 -17 q 240 35 326 -17 q 103 172 154 86 q 53 360 53 258 q 103 546 53 460 q 240 683 154 632 q 428 733 326 733 q 613 683 532 733 q 740 547 694 633 q 786 360 786 461 m 431 557 q 323 525 371 557 q 251 442 275 493 l 610 442 q 538 525 586 493 q 431 557 490 557 m 426 872 q 353 903 383 872 q 322 976 322 933 q 353 1049 322 1019 q 426 1079 383 1079 q 500 1049 469 1079 q 531 976 531 1019 q 500 903 531 933 q 426 872 469 872 z "},"è":{"ha":826,"x_min":53,"x_max":786,"o":"m 786 360 q 781 279 786 311 l 249 279 q 318 189 271 224 q 431 154 365 154 q 593 226 532 154 l 746 146 q 611 26 694 68 q 428 -17 528 -17 q 240 35 326 -17 q 103 172 154 86 q 53 360 53 258 q 103 546 53 460 q 240 683 154 632 q 428 733 326 733 q 613 683 532 733 q 740 547 694 633 q 786 360 786 461 m 431 557 q 323 525 371 557 q 251 442 275 493 l 610 442 q 538 525 586 493 q 431 557 490 557 m 151 1076 l 358 1076 l 544 872 l 357 872 l 151 1076 z "},"ē":{"ha":826,"x_min":53,"x_max":786,"o":"m 786 360 q 781 279 786 311 l 249 279 q 318 189 271 224 q 431 154 365 154 q 593 226 532 154 l 746 146 q 611 26 694 68 q 428 -17 528 -17 q 240 35 326 -17 q 103 172 154 86 q 53 360 53 258 q 103 546 53 460 q 240 683 154 632 q 428 733 326 733 q 613 683 532 733 q 740 547 694 633 q 786 360 786 461 m 431 557 q 323 525 371 557 q 251 442 275 493 l 610 442 q 538 525 586 493 q 431 557 490 557 m 628 872 l 217 872 l 217 1001 l 628 1001 l 628 872 z "},"ę":{"ha":826,"x_min":53,"x_max":786,"o":"m 786 360 q 781 279 786 311 l 249 279 q 318 189 271 224 q 431 154 365 154 q 593 226 532 154 l 746 146 q 654 52 708 90 q 533 -4 600 14 q 421 -72 460 -37 q 382 -144 382 -106 q 403 -192 382 -175 q 463 -210 424 -210 l 543 -210 l 543 -324 l 433 -324 q 289 -281 342 -324 q 236 -165 236 -239 q 332 -4 236 -72 q 188 70 251 17 q 89 199 125 124 q 53 360 53 275 q 103 546 53 460 q 240 683 154 632 q 428 733 326 733 q 613 683 532 733 q 740 547 694 633 q 786 360 786 461 m 431 557 q 323 525 371 557 q 251 442 275 493 l 610 442 q 538 525 586 493 q 431 557 490 557 z "},"ğ":{"ha":881,"x_min":47,"x_max":825,"o":"m 825 717 l 825 35 q 778 -143 825 -61 q 650 -274 731 -225 q 475 -322 569 -322 l 201 -322 l 201 -124 l 490 -124 q 599 -78 553 -124 q 646 33 646 -32 l 646 90 q 424 -17 564 -17 q 235 35 321 -17 q 98 172 149 86 q 47 360 47 258 q 98 546 47 460 q 235 683 149 632 q 424 733 321 733 q 650 621 569 733 l 650 717 l 825 717 m 436 179 q 526 203 485 179 q 590 269 567 228 q 614 358 614 310 q 562 485 614 433 q 436 538 510 538 q 310 485 363 538 q 258 358 258 433 q 282 269 258 310 q 347 203 306 228 q 436 179 388 179 m 407 874 q 220 932 293 874 q 143 1089 147 990 l 290 1089 q 326 1019 293 1046 q 407 993 358 993 q 488 1019 456 993 q 524 1089 521 1046 l 671 1089 q 594 932 667 990 q 407 874 521 874 z "},"ģ":{"ha":881,"x_min":47,"x_max":825,"o":"m 825 717 l 825 35 q 778 -143 825 -61 q 650 -274 731 -225 q 475 -322 569 -322 l 201 -322 l 201 -124 l 490 -124 q 599 -78 553 -124 q 646 33 646 -32 l 646 90 q 424 -17 564 -17 q 235 35 321 -17 q 98 172 149 86 q 47 360 47 258 q 98 546 47 460 q 235 683 149 632 q 424 733 321 733 q 650 621 569 733 l 650 717 l 825 717 m 436 179 q 526 203 485 179 q 590 269 567 228 q 614 358 614 310 q 562 485 614 433 q 436 538 510 538 q 310 485 363 538 q 258 358 258 433 q 282 269 258 310 q 347 203 306 228 q 436 179 388 179 m 563 1285 q 467 1136 521 1231 l 449 1108 q 515 1076 483 1110 q 546 999 546 1042 q 508 908 546 946 q 418 871 471 871 q 324 908 360 871 q 289 999 289 946 q 328 1162 289 1071 q 450 1361 367 1253 l 563 1285 z "},"ġ":{"ha":881,"x_min":47,"x_max":825,"o":"m 825 717 l 825 35 q 778 -143 825 -61 q 650 -274 731 -225 q 475 -322 569 -322 l 201 -322 l 201 -124 l 490 -124 q 599 -78 553 -124 q 646 33 646 -32 l 646 90 q 424 -17 564 -17 q 235 35 321 -17 q 98 172 149 86 q 47 360 47 258 q 98 546 47 460 q 235 683 149 632 q 424 733 321 733 q 650 621 569 733 l 650 717 l 825 717 m 436 179 q 526 203 485 179 q 590 269 567 228 q 614 358 614 310 q 562 485 614 433 q 436 538 510 538 q 310 485 363 538 q 258 358 258 433 q 282 269 258 310 q 347 203 306 228 q 436 179 388 179 m 425 872 q 351 903 382 872 q 321 976 321 933 q 351 1049 321 1019 q 425 1079 382 1079 q 499 1049 468 1079 q 529 976 529 1019 q 499 903 529 933 q 425 872 468 872 z "},"ħ":{"ha":822,"x_min":42,"x_max":778,"o":"m 479 733 q 632 689 564 733 q 739 569 700 644 q 778 406 778 494 l 778 0 l 568 0 l 568 399 q 531 488 568 450 q 440 525 494 525 q 353 488 390 525 q 315 399 315 450 l 315 0 l 104 0 l 104 782 l 42 782 l 42 960 l 104 960 l 104 1031 l 315 1031 l 315 960 l 411 960 l 411 782 l 315 782 l 315 671 q 479 733 385 733 z "},"ı":{"ha":340,"x_min":65,"x_max":275,"o":"m 65 717 l 275 717 l 275 0 l 65 0 l 65 717 z "},"í":{"ha":340,"x_min":65,"x_max":468,"o":"m 261 1061 l 468 1061 l 263 856 l 75 856 l 261 1061 m 65 717 l 275 717 l 275 0 l 65 0 l 65 717 z "},"î":{"ha":340,"x_min":-111,"x_max":451,"o":"m 171 968 l 44 856 l -111 856 l 65 1061 l 276 1061 l 451 856 l 297 856 l 171 968 m 65 717 l 275 717 l 275 0 l 65 0 l 65 717 z "},"ï":{"ha":340,"x_min":-51,"x_max":393,"o":"m 51 856 q -22 886 8 856 q -51 960 -51 917 q -22 1033 -51 1003 q 51 1063 8 1063 q 125 1033 94 1063 q 156 960 156 1003 q 125 886 156 917 q 51 856 94 856 m 289 856 q 215 886 246 856 q 185 960 185 917 q 215 1033 185 1003 q 289 1063 246 1063 q 363 1033 332 1063 q 393 960 393 1003 q 363 886 393 917 q 289 856 332 856 m 65 717 l 275 717 l 275 0 l 65 0 l 65 717 z "},"ì":{"ha":340,"x_min":-125,"x_max":275,"o":"m -125 1061 l 82 1061 l 268 856 l 81 856 l -125 1061 m 65 717 l 275 717 l 275 0 l 65 0 l 65 717 z "},"ī":{"ha":340,"x_min":-35,"x_max":376,"o":"m 376 856 l -35 856 l -35 986 l 376 986 l 376 856 m 65 717 l 275 717 l 275 0 l 65 0 l 65 717 z "},"į":{"ha":340,"x_min":-32,"x_max":275,"o":"m 275 0 q 153 -71 194 -36 q 113 -146 113 -106 q 133 -194 113 -176 q 193 -211 154 -211 l 274 -211 l 274 -325 l 164 -325 q 20 -283 72 -325 q -32 -167 -32 -240 q 69 0 -32 -69 l 65 0 l 65 717 l 275 717 l 275 0 z "},"ķ":{"ha":792,"x_min":74,"x_max":772,"o":"m 772 0 l 526 0 l 343 274 l 285 210 l 285 0 l 74 0 l 74 1029 l 285 1029 l 285 500 l 490 717 l 749 717 l 488 431 l 772 0 m 244 -553 q 340 -404 286 -499 l 358 -376 q 292 -344 324 -378 q 261 -268 261 -311 q 299 -176 261 -214 q 389 -139 336 -139 q 483 -176 447 -139 q 518 -267 518 -214 q 479 -431 518 -339 q 357 -629 440 -522 l 244 -553 z "},"ĺ":{"ha":367,"x_min":74,"x_max":475,"o":"m 317 0 q 195 32 251 0 q 106 119 139 64 q 74 240 74 174 l 74 1029 l 283 1029 l 283 228 q 292 206 283 214 q 317 197 301 197 l 340 197 l 340 0 l 317 0 m 268 1372 l 475 1372 l 269 1168 l 82 1168 l 268 1372 z "},"ľ":{"ha":376,"x_min":-100,"x_max":463,"o":"m 317 0 q 195 32 251 0 q 106 119 139 64 q 74 240 74 174 l 74 1029 l 283 1029 l 283 228 q 292 206 283 214 q 317 197 301 197 l 340 197 l 340 0 l 317 0 m 288 1168 l 76 1168 l -100 1372 l 56 1372 l 182 1260 l 308 1372 l 463 1372 l 288 1168 z "},"ļ":{"ha":383,"x_min":74,"x_max":347,"o":"m 317 0 q 195 32 251 0 q 106 119 139 64 q 74 240 74 174 l 74 1029 l 283 1029 l 283 228 q 292 206 283 214 q 317 197 301 197 l 340 197 l 340 0 l 317 0 m 74 -553 q 169 -404 115 -499 l 188 -376 q 122 -344 153 -378 q 90 -268 90 -311 q 128 -176 90 -214 q 218 -139 165 -139 q 312 -176 276 -139 q 347 -267 347 -214 q 308 -431 347 -339 q 186 -629 269 -522 l 74 -553 z "},"ł":{"ha":626,"x_min":44,"x_max":581,"o":"m 414 228 q 423 206 414 214 q 447 197 432 197 l 471 197 l 471 0 l 447 0 q 326 32 382 0 q 237 119 269 64 q 204 240 204 174 l 204 344 l 135 304 l 44 460 l 204 551 l 204 1029 l 414 1029 l 414 672 l 492 717 l 581 561 l 414 465 l 414 228 z "},"ń":{"ha":778,"x_min":60,"x_max":735,"o":"m 435 733 q 588 689 519 733 q 696 569 657 644 q 735 406 735 494 l 735 0 l 524 0 l 524 400 q 487 489 524 451 q 396 526 450 526 q 308 489 346 526 q 271 400 271 451 l 271 0 l 60 0 l 60 717 l 235 717 l 235 631 q 322 706 271 679 q 435 733 372 733 m 506 1074 l 713 1074 l 507 869 l 319 869 l 506 1074 z "},"ň":{"ha":778,"x_min":60,"x_max":735,"o":"m 435 733 q 588 689 519 733 q 696 569 657 644 q 735 406 735 494 l 735 0 l 524 0 l 524 400 q 487 489 524 451 q 396 526 450 526 q 308 489 346 526 q 271 400 271 451 l 271 0 l 60 0 l 60 717 l 235 717 l 235 631 q 322 706 271 679 q 435 733 372 733 m 540 869 l 329 869 l 153 1074 l 308 1074 l 435 961 l 561 1074 l 715 1074 l 540 869 z "},"ņ":{"ha":778,"x_min":60,"x_max":735,"o":"m 435 733 q 588 689 519 733 q 696 569 657 644 q 735 406 735 494 l 735 0 l 524 0 l 524 400 q 487 489 524 451 q 396 526 450 526 q 308 489 346 526 q 271 400 271 451 l 271 0 l 60 0 l 60 717 l 235 717 l 235 631 q 322 706 271 679 q 435 733 372 733 m 247 -553 q 343 -404 289 -499 l 361 -376 q 295 -344 326 -378 q 264 -268 264 -311 q 301 -176 264 -214 q 392 -139 339 -139 q 485 -176 450 -139 q 521 -267 521 -214 q 482 -431 521 -339 q 360 -629 443 -522 l 247 -553 z "},"ŋ":{"ha":792,"x_min":60,"x_max":735,"o":"m 435 733 q 588 689 519 733 q 696 569 657 644 q 735 406 735 494 l 735 -21 q 699 -153 735 -93 q 603 -247 664 -212 q 471 -282 542 -282 l 383 -282 l 383 -85 l 460 -85 q 506 -67 488 -85 q 524 -21 524 -49 l 524 400 q 487 489 524 451 q 396 526 450 526 q 308 489 346 526 q 271 400 271 451 l 271 0 l 60 0 l 60 717 l 235 717 l 235 631 q 322 706 271 679 q 435 733 372 733 z "},"ñ":{"ha":778,"x_min":60,"x_max":735,"o":"m 435 733 q 588 689 519 733 q 696 569 657 644 q 735 406 735 494 l 735 0 l 524 0 l 524 400 q 487 489 524 451 q 396 526 450 526 q 308 489 346 526 q 271 400 271 451 l 271 0 l 60 0 l 60 717 l 235 717 l 235 631 q 322 706 271 679 q 435 733 372 733 m 557 865 q 494 877 522 865 q 428 917 467 889 q 388 942 403 935 q 360 950 374 950 q 314 931 332 950 q 293 876 296 911 l 175 876 q 223 1030 178 974 q 344 1086 268 1086 q 408 1074 379 1086 q 474 1035 436 1061 q 513 1008 499 1015 q 543 1000 528 1000 q 588 1019 569 1000 q 608 1071 606 1039 l 726 1071 q 678 921 724 976 q 557 865 633 865 z "},"ó":{"ha":872,"x_min":47,"x_max":824,"o":"m 438 -17 q 241 34 331 -17 q 99 171 151 85 q 47 360 47 257 q 99 547 47 461 q 241 683 151 633 q 438 733 331 733 q 631 683 543 733 q 772 547 719 633 q 824 360 824 461 q 772 171 824 257 q 631 34 719 85 q 438 -17 543 -17 m 436 181 q 562 232 510 181 q 614 358 614 283 q 562 485 614 433 q 436 538 510 538 q 310 485 361 538 q 258 358 258 433 q 310 232 258 283 q 436 181 361 181 m 510 1072 l 717 1072 l 511 868 l 324 868 l 510 1072 z "},"ô":{"ha":872,"x_min":47,"x_max":824,"o":"m 438 -17 q 241 34 331 -17 q 99 171 151 85 q 47 360 47 257 q 99 547 47 461 q 241 683 151 633 q 438 733 331 733 q 631 683 543 733 q 772 547 719 633 q 824 360 824 461 q 772 171 824 257 q 631 34 719 85 q 438 -17 543 -17 m 436 181 q 562 232 510 181 q 614 358 614 283 q 562 485 614 433 q 436 538 510 538 q 310 485 361 538 q 258 358 258 433 q 310 232 258 283 q 436 181 361 181 m 436 972 l 310 860 l 154 860 l 331 1065 l 542 1065 l 717 860 l 563 860 l 436 972 z "},"ö":{"ha":872,"x_min":47,"x_max":824,"o":"m 438 -17 q 241 34 331 -17 q 99 171 151 85 q 47 360 47 257 q 99 547 47 461 q 241 683 151 633 q 438 733 331 733 q 631 683 543 733 q 772 547 719 633 q 824 360 824 461 q 772 171 824 257 q 631 34 719 85 q 438 -17 543 -17 m 436 181 q 562 232 510 181 q 614 358 614 283 q 562 485 614 433 q 436 538 510 538 q 310 485 361 538 q 258 358 258 433 q 310 232 258 283 q 436 181 361 181 m 318 858 q 244 889 275 858 q 214 963 214 919 q 244 1035 214 1006 q 318 1065 275 1065 q 392 1035 361 1065 q 422 963 422 1006 q 392 889 422 919 q 318 858 361 858 m 556 858 q 481 889 511 858 q 451 963 451 919 q 482 1035 451 1006 q 556 1065 513 1065 q 628 1035 599 1065 q 658 963 658 1006 q 628 889 658 919 q 556 858 599 858 z "},"ò":{"ha":872,"x_min":47,"x_max":824,"o":"m 438 -17 q 241 34 331 -17 q 99 171 151 85 q 47 360 47 257 q 99 547 47 461 q 241 683 151 633 q 438 733 331 733 q 631 683 543 733 q 772 547 719 633 q 824 360 824 461 q 772 171 824 257 q 631 34 719 85 q 438 -17 543 -17 m 436 181 q 562 232 510 181 q 614 358 614 283 q 562 485 614 433 q 436 538 510 538 q 310 485 361 538 q 258 358 258 433 q 310 232 258 283 q 436 181 361 181 m 139 1074 l 346 1074 l 532 869 l 344 869 l 139 1074 z "},"ő":{"ha":872,"x_min":47,"x_max":835,"o":"m 438 -17 q 241 34 331 -17 q 99 171 151 85 q 47 360 47 257 q 99 547 47 461 q 241 683 151 633 q 438 733 331 733 q 631 683 543 733 q 772 547 719 633 q 824 360 824 461 q 772 171 824 257 q 631 34 719 85 q 438 -17 543 -17 m 436 181 q 562 232 510 181 q 614 358 614 283 q 562 485 614 433 q 436 538 510 538 q 310 485 361 538 q 258 358 258 433 q 310 232 258 283 q 436 181 361 181 m 349 1075 l 553 1075 l 360 871 l 172 871 l 349 1075 m 631 1075 l 835 1075 l 640 871 l 454 871 l 631 1075 z "},"ō":{"ha":872,"x_min":47,"x_max":824,"o":"m 438 -17 q 241 34 331 -17 q 99 171 151 85 q 47 360 47 257 q 99 547 47 461 q 241 683 151 633 q 438 733 331 733 q 631 683 543 733 q 772 547 719 633 q 824 360 824 461 q 772 171 824 257 q 631 34 719 85 q 438 -17 543 -17 m 436 181 q 562 232 510 181 q 614 358 614 283 q 562 485 614 433 q 436 538 510 538 q 310 485 361 538 q 258 358 258 433 q 310 232 258 283 q 436 181 361 181 m 635 872 l 224 872 l 224 1001 l 635 1001 l 635 872 z "},"ø":{"ha":872,"x_min":47,"x_max":824,"o":"m 638 679 q 774 544 724 629 q 824 360 824 460 q 772 171 824 257 q 631 34 719 85 q 438 -17 543 -17 q 394 -14 422 -17 l 375 -69 l 196 -69 l 233 39 q 98 174 149 89 q 47 360 47 260 q 99 547 47 461 q 241 683 151 633 q 438 733 331 733 q 476 732 464 733 l 499 793 l 678 793 l 638 679 m 250 358 q 263 288 250 321 q 301 229 276 254 l 411 544 q 296 482 342 535 q 250 358 250 429 m 460 174 q 576 235 529 183 q 622 358 622 288 q 609 429 622 396 q 571 488 596 463 l 460 174 z "},"õ":{"ha":872,"x_min":47,"x_max":824,"o":"m 438 -17 q 241 34 331 -17 q 99 171 151 85 q 47 360 47 257 q 99 547 47 461 q 241 683 151 633 q 438 733 331 733 q 631 683 543 733 q 772 547 719 633 q 824 360 824 461 q 772 171 824 257 q 631 34 719 85 q 438 -17 543 -17 m 436 181 q 562 232 510 181 q 614 358 614 283 q 562 485 614 433 q 436 538 510 538 q 310 485 361 538 q 258 358 258 433 q 310 232 258 283 q 436 181 361 181 m 551 863 q 489 874 517 863 q 422 914 461 886 q 383 940 397 932 q 354 947 368 947 q 308 928 326 947 q 288 874 290 908 l 169 874 q 217 1027 172 971 q 339 1083 263 1083 q 402 1071 374 1083 q 468 1032 431 1058 q 508 1005 493 1013 q 538 997 522 997 q 582 1017 564 997 q 603 1068 600 1036 l 721 1068 q 673 918 718 974 q 551 863 628 863 z "},"œ":{"ha":1390,"x_min":47,"x_max":1351,"o":"m 815 279 l 814 276 q 883 188 836 221 q 996 154 931 154 q 1157 226 1097 154 l 1310 146 q 1176 26 1258 68 q 993 -17 1093 -17 q 843 15 914 -17 q 719 103 772 46 q 593 15 667 47 q 438 -17 519 -17 q 241 34 331 -17 q 99 171 151 85 q 47 360 47 257 q 99 547 47 461 q 241 683 151 633 q 438 733 331 733 q 593 702 519 733 q 719 615 667 671 q 843 702 772 671 q 993 733 914 733 q 1178 683 1097 733 q 1306 547 1260 633 q 1351 360 1351 461 q 1344 279 1351 318 l 815 279 m 996 557 q 888 524 936 557 q 815 439 839 492 l 817 432 l 1179 432 q 1108 522 1158 488 q 996 557 1058 557 m 436 181 q 562 232 510 181 q 614 358 614 283 q 562 485 614 433 q 436 538 510 538 q 310 485 361 538 q 258 358 258 433 q 310 232 258 283 q 436 181 361 181 z "},"þ":{"ha":893,"x_min":69,"x_max":846,"o":"m 471 733 q 658 683 572 733 q 795 546 744 632 q 846 358 846 460 q 795 172 846 258 q 658 34 744 85 q 471 -17 572 -17 q 279 56 354 -17 l 279 -271 l 69 -271 l 69 1019 l 279 1019 l 279 663 q 471 733 354 733 m 457 179 q 547 203 506 179 q 611 269 588 228 q 635 358 635 310 q 583 485 635 433 q 457 538 532 538 q 331 485 383 538 q 279 358 279 433 q 303 269 279 310 q 367 203 326 228 q 457 179 408 179 z "},"ŕ":{"ha":549,"x_min":60,"x_max":574,"o":"m 518 718 l 518 525 l 413 525 q 313 482 356 525 q 271 382 271 439 l 271 0 l 60 0 l 60 717 l 235 717 l 235 585 q 337 683 276 647 q 475 718 397 718 l 518 718 m 367 1061 l 574 1061 l 368 857 l 181 857 l 367 1061 z "},"ř":{"ha":549,"x_min":25,"x_max":588,"o":"m 518 718 l 518 525 l 413 525 q 313 482 356 525 q 271 382 271 439 l 271 0 l 60 0 l 60 717 l 235 717 l 235 585 q 337 683 276 647 q 475 718 397 718 l 518 718 m 413 856 l 201 856 l 25 1060 l 181 1060 l 307 947 l 433 1060 l 588 1060 l 413 856 z "},"ŗ":{"ha":549,"x_min":42,"x_max":518,"o":"m 518 718 l 518 525 l 413 525 q 313 482 356 525 q 271 382 271 439 l 271 0 l 60 0 l 60 717 l 235 717 l 235 585 q 337 683 276 647 q 475 718 397 718 l 518 718 m 42 -553 q 138 -404 83 -499 l 156 -376 q 90 -344 121 -378 q 58 -268 58 -311 q 96 -176 58 -214 q 186 -139 133 -139 q 280 -176 244 -139 q 315 -267 315 -214 q 276 -431 315 -339 q 154 -629 238 -522 l 42 -553 z "},"ś":{"ha":747,"x_min":47,"x_max":704,"o":"m 390 -17 q 203 12 292 -17 q 47 92 115 40 l 136 229 q 390 156 264 156 q 472 169 447 156 q 496 207 496 182 q 471 242 496 231 q 379 271 446 254 q 159 358 228 306 q 90 506 90 410 q 172 671 90 608 q 392 733 254 733 q 539 713 465 733 q 672 657 613 692 l 600 510 q 392 560 490 560 q 324 544 350 560 q 299 503 299 529 q 324 464 299 475 q 418 442 349 453 q 632 360 560 415 q 704 211 704 304 q 620 44 704 106 q 390 -17 536 -17 m 468 1076 l 675 1076 l 469 872 l 282 872 l 468 1076 z "},"š":{"ha":747,"x_min":47,"x_max":704,"o":"m 390 -17 q 203 12 292 -17 q 47 92 115 40 l 136 229 q 390 156 264 156 q 472 169 447 156 q 496 207 496 182 q 471 242 496 231 q 379 271 446 254 q 159 358 228 306 q 90 506 90 410 q 172 671 90 608 q 392 733 254 733 q 539 713 465 733 q 672 657 613 692 l 600 510 q 392 560 490 560 q 324 544 350 560 q 299 503 299 529 q 324 464 299 475 q 418 442 349 453 q 632 360 560 415 q 704 211 704 304 q 620 44 704 106 q 390 -17 536 -17 m 489 872 l 278 872 l 101 1076 l 257 1076 l 383 964 l 510 1076 l 664 1076 l 489 872 z "},"ş":{"ha":747,"x_min":47,"x_max":704,"o":"m 704 211 q 635 56 704 115 q 443 -14 565 -3 l 426 -86 q 513 -123 483 -93 q 543 -197 543 -153 q 486 -299 543 -261 q 333 -337 429 -337 l 218 -337 l 242 -232 l 346 -233 q 388 -223 375 -233 q 401 -190 401 -212 q 389 -159 401 -171 q 353 -147 376 -147 l 282 -147 l 315 -12 q 47 92 161 6 l 136 229 q 390 156 264 156 q 472 169 447 156 q 496 207 496 182 q 471 242 496 231 q 379 271 446 254 q 159 358 228 306 q 90 506 90 410 q 172 671 90 608 q 392 733 254 733 q 539 713 465 733 q 672 657 613 692 l 600 510 q 392 560 490 560 q 324 544 350 560 q 299 503 299 529 q 324 464 299 475 q 418 442 349 453 q 632 360 560 415 q 704 211 704 304 z "},"ș":{"ha":747,"x_min":47,"x_max":704,"o":"m 390 -17 q 203 12 292 -17 q 47 92 115 40 l 136 229 q 390 156 264 156 q 472 169 447 156 q 496 207 496 182 q 471 242 496 231 q 379 271 446 254 q 159 358 228 306 q 90 506 90 410 q 172 671 90 608 q 392 733 254 733 q 539 713 465 733 q 672 657 613 692 l 600 510 q 392 560 490 560 q 324 544 350 560 q 299 503 299 529 q 324 464 299 475 q 418 442 349 453 q 632 360 560 415 q 704 211 704 304 q 620 44 704 106 q 390 -17 536 -17 m 243 -562 q 339 -414 285 -508 l 357 -386 q 291 -354 322 -387 q 260 -278 260 -321 q 297 -186 260 -224 q 388 -149 335 -149 q 481 -186 446 -149 q 517 -276 517 -224 q 478 -440 517 -349 q 356 -639 439 -532 l 243 -562 z "},"ß":{"ha":847,"x_min":75,"x_max":800,"o":"m 617 561 q 750 459 700 528 q 800 297 800 390 q 756 133 800 208 q 638 15 713 58 q 475 -28 564 -28 q 340 0 404 -28 l 418 171 q 476 158 443 158 q 573 198 533 158 q 613 296 613 238 q 573 392 613 353 q 476 432 533 432 l 369 432 l 369 586 l 371 586 l 371 617 q 452 650 419 617 q 485 732 485 683 q 451 812 485 779 q 371 844 418 844 q 291 812 324 844 q 258 732 258 779 l 258 0 l 75 -1 l 75 732 q 115 881 75 813 q 222 989 154 949 q 371 1029 290 1029 q 520 989 451 1029 q 629 881 589 949 q 669 732 669 813 q 617 561 669 638 z "},"ŧ":{"ha":714,"x_min":26,"x_max":603,"o":"m 603 193 l 603 0 l 447 0 q 315 33 375 0 q 219 126 254 67 q 183 257 183 185 l 183 315 l 107 315 l 107 449 l 183 449 l 183 522 l 26 522 l 26 717 l 183 717 l 183 929 l 394 929 l 394 717 l 589 717 l 589 524 l 394 524 l 394 449 l 478 449 l 478 315 l 394 315 l 394 257 q 413 212 394 231 q 458 193 432 193 l 603 193 z "},"ť":{"ha":647,"x_min":7,"x_max":603,"o":"m 603 193 l 603 0 l 447 0 q 315 33 375 0 q 219 126 254 67 q 183 257 183 185 l 183 522 l 26 522 l 26 717 l 183 717 l 183 929 l 394 929 l 394 717 l 589 717 l 589 524 l 394 524 l 394 257 q 413 212 394 231 q 458 193 432 193 l 603 193 m 394 1067 l 183 1067 l 7 1271 l 163 1271 l 289 1158 l 415 1271 l 569 1271 l 394 1067 z "},"ţ":{"ha":647,"x_min":26,"x_max":603,"o":"m 463 0 l 447 -61 q 534 -99 504 -68 q 564 -172 564 -129 q 508 -275 564 -237 q 356 -312 451 -312 l 239 -312 l 263 -208 l 367 -210 q 424 -167 424 -210 q 410 -135 424 -147 q 374 -124 397 -124 l 303 -124 l 339 22 q 226 115 268 51 q 183 257 183 178 l 183 522 l 26 522 l 26 717 l 183 717 l 183 929 l 394 929 l 394 717 l 589 717 l 589 524 l 394 524 l 394 257 q 413 212 394 231 q 458 193 432 193 l 603 193 l 603 0 l 463 0 z "},"ț":{"ha":647,"x_min":26,"x_max":603,"o":"m 603 193 l 603 0 l 447 0 q 315 33 375 0 q 219 126 254 67 q 183 257 183 185 l 183 522 l 26 522 l 26 717 l 183 717 l 183 929 l 394 929 l 394 717 l 589 717 l 589 524 l 394 524 l 394 257 q 413 212 394 231 q 458 193 432 193 l 603 193 m 249 -553 q 344 -404 290 -499 l 363 -376 q 297 -344 328 -378 q 265 -268 265 -311 q 303 -176 265 -214 q 393 -139 340 -139 q 487 -176 451 -139 q 522 -267 522 -214 q 483 -431 522 -339 q 361 -629 444 -522 l 249 -553 z "},"ú":{"ha":782,"x_min":44,"x_max":718,"o":"m 718 717 l 718 0 l 544 0 l 544 86 q 458 10 508 38 q 343 -17 407 -17 q 190 28 258 -17 q 83 147 122 72 q 44 311 44 222 l 44 717 l 254 717 l 254 318 q 292 229 254 267 q 382 192 329 192 q 471 229 433 192 q 508 318 508 267 l 508 717 l 718 717 m 468 1058 l 675 1058 l 469 854 l 282 854 l 468 1058 z "},"û":{"ha":782,"x_min":44,"x_max":718,"o":"m 718 717 l 718 0 l 544 0 l 544 86 q 458 10 508 38 q 343 -17 407 -17 q 190 28 258 -17 q 83 147 122 72 q 44 311 44 222 l 44 717 l 254 717 l 254 318 q 292 229 254 267 q 382 192 329 192 q 471 229 433 192 q 508 318 508 267 l 508 717 l 718 717 m 389 968 l 263 856 l 107 856 l 283 1061 l 494 1061 l 669 856 l 515 856 l 389 968 z "},"ü":{"ha":782,"x_min":44,"x_max":718,"o":"m 718 717 l 718 0 l 544 0 l 544 86 q 458 10 508 38 q 343 -17 407 -17 q 190 28 258 -17 q 83 147 122 72 q 44 311 44 222 l 44 717 l 254 717 l 254 318 q 292 229 254 267 q 382 192 329 192 q 471 229 433 192 q 508 318 508 267 l 508 717 l 718 717 m 267 853 q 193 883 224 853 q 163 957 163 914 q 193 1030 163 1000 q 267 1060 224 1060 q 340 1030 310 1060 q 371 957 371 1000 q 340 883 371 914 q 267 853 310 853 m 504 853 q 430 883 460 853 q 400 957 400 914 q 431 1030 400 1000 q 504 1060 461 1060 q 577 1030 547 1060 q 607 957 607 1000 q 577 883 607 914 q 504 853 547 853 z "},"ù":{"ha":782,"x_min":44,"x_max":718,"o":"m 718 717 l 718 0 l 544 0 l 544 86 q 458 10 508 38 q 343 -17 407 -17 q 190 28 258 -17 q 83 147 122 72 q 44 311 44 222 l 44 717 l 254 717 l 254 318 q 292 229 254 267 q 382 192 329 192 q 471 229 433 192 q 508 318 508 267 l 508 717 l 718 717 m 82 1061 l 289 1061 l 475 857 l 288 857 l 82 1061 z "},"ű":{"ha":782,"x_min":44,"x_max":785,"o":"m 718 717 l 718 0 l 544 0 l 544 86 q 458 10 508 38 q 343 -17 407 -17 q 190 28 258 -17 q 83 147 122 72 q 44 311 44 222 l 44 717 l 254 717 l 254 318 q 292 229 254 267 q 382 192 329 192 q 471 229 433 192 q 508 318 508 267 l 508 717 l 718 717 m 299 1060 l 503 1060 l 310 856 l 122 856 l 299 1060 m 581 1060 l 785 1060 l 590 856 l 404 856 l 581 1060 z "},"ū":{"ha":782,"x_min":44,"x_max":718,"o":"m 718 717 l 718 0 l 544 0 l 544 86 q 458 10 508 38 q 343 -17 407 -17 q 190 28 258 -17 q 83 147 122 72 q 44 311 44 222 l 44 717 l 254 717 l 254 318 q 292 229 254 267 q 382 192 329 192 q 471 229 433 192 q 508 318 508 267 l 508 717 l 718 717 m 588 856 l 176 856 l 176 985 l 588 985 l 588 856 z "},"ų":{"ha":782,"x_min":44,"x_max":718,"o":"m 718 0 q 597 -71 638 -36 q 556 -146 556 -106 q 576 -194 556 -176 q 636 -211 597 -211 l 717 -211 l 717 -325 l 607 -325 q 463 -283 515 -325 q 410 -167 410 -240 q 444 -64 410 -111 q 544 19 479 -17 l 544 86 q 458 10 508 38 q 343 -17 407 -17 q 190 28 258 -17 q 83 147 122 72 q 44 311 44 222 l 44 717 l 254 717 l 254 318 q 292 229 254 267 q 382 192 329 192 q 471 229 433 192 q 508 318 508 267 l 508 717 l 718 717 l 718 0 z "},"ů":{"ha":782,"x_min":44,"x_max":718,"o":"m 718 717 l 718 0 l 544 0 l 544 86 q 458 10 508 38 q 343 -17 407 -17 q 190 28 258 -17 q 83 147 122 72 q 44 311 44 222 l 44 717 l 254 717 l 254 318 q 292 229 254 267 q 382 192 329 192 q 471 229 433 192 q 508 318 508 267 l 508 717 l 718 717 m 374 857 q 247 906 299 857 q 196 1028 196 956 q 248 1149 196 1100 q 374 1199 300 1199 q 501 1149 449 1199 q 553 1028 553 1100 q 501 906 553 956 q 374 857 449 857 m 374 946 q 432 969 408 946 q 456 1028 456 993 q 432 1087 456 1064 q 374 1110 408 1110 q 316 1086 339 1110 q 293 1028 293 1063 q 316 969 293 992 q 374 946 339 946 z "},"ẃ":{"ha":1015,"x_min":11,"x_max":1004,"o":"m 11 717 l 215 717 l 296 292 l 425 681 l 603 681 l 732 292 l 801 717 l 1004 717 l 885 0 l 653 0 l 514 399 l 375 0 l 147 0 l 11 717 m 603 1025 l 810 1025 l 604 821 l 417 821 l 603 1025 z "},"ŵ":{"ha":1015,"x_min":11,"x_max":1004,"o":"m 11 717 l 215 717 l 296 292 l 425 681 l 603 681 l 732 292 l 801 717 l 1004 717 l 885 0 l 653 0 l 514 399 l 375 0 l 147 0 l 11 717 m 515 932 l 389 819 l 233 819 l 410 1025 l 621 1025 l 796 819 l 642 819 l 515 932 z "},"ẅ":{"ha":1015,"x_min":11,"x_max":1004,"o":"m 11 717 l 215 717 l 296 292 l 425 681 l 603 681 l 732 292 l 801 717 l 1004 717 l 885 0 l 653 0 l 514 399 l 375 0 l 147 0 l 11 717 m 401 819 q 328 850 358 819 q 297 924 297 881 q 328 997 297 967 q 401 1026 358 1026 q 475 997 444 1026 q 506 924 506 967 q 475 850 506 881 q 401 819 444 819 m 639 819 q 565 850 594 819 q 535 924 535 881 q 565 997 535 967 q 639 1026 596 1026 q 712 997 682 1026 q 742 924 742 967 q 712 850 742 881 q 639 819 682 819 z "},"ẁ":{"ha":1015,"x_min":11,"x_max":1004,"o":"m 11 717 l 215 717 l 296 292 l 425 681 l 603 681 l 732 292 l 801 717 l 1004 717 l 885 0 l 653 0 l 514 399 l 375 0 l 147 0 l 11 717 m 217 1024 l 424 1024 l 610 819 l 422 819 l 217 1024 z "},"ý":{"ha":789,"x_min":14,"x_max":769,"o":"m 769 717 l 518 -94 q 408 -267 490 -200 q 215 -335 325 -335 l 71 -335 l 71 -133 l 200 -133 q 273 -110 242 -133 q 317 -49 304 -87 l 332 0 l 218 0 l 14 717 l 226 717 l 383 165 l 556 717 l 769 717 m 479 1060 l 686 1060 l 481 856 l 293 856 l 479 1060 z "},"ŷ":{"ha":789,"x_min":14,"x_max":769,"o":"m 769 717 l 518 -94 q 408 -267 490 -200 q 215 -335 325 -335 l 71 -335 l 71 -133 l 200 -133 q 273 -110 242 -133 q 317 -49 304 -87 l 332 0 l 218 0 l 14 717 l 226 717 l 383 165 l 556 717 l 769 717 m 394 968 l 268 856 l 113 856 l 289 1061 l 500 1061 l 675 856 l 521 856 l 394 968 z "},"ÿ":{"ha":789,"x_min":14,"x_max":769,"o":"m 769 717 l 518 -94 q 408 -267 490 -200 q 215 -335 325 -335 l 71 -335 l 71 -133 l 200 -133 q 273 -110 242 -133 q 317 -49 304 -87 l 332 0 l 218 0 l 14 717 l 226 717 l 383 165 l 556 717 l 769 717 m 274 854 q 200 885 231 854 q 169 958 169 915 q 200 1031 169 1001 q 274 1061 231 1061 q 347 1031 317 1061 q 378 958 378 1001 q 347 885 378 915 q 274 854 317 854 m 511 854 q 437 885 467 854 q 407 958 407 915 q 438 1031 407 1001 q 511 1061 468 1061 q 584 1031 554 1061 q 614 958 614 1001 q 584 885 614 915 q 511 854 554 854 z "},"ỳ":{"ha":789,"x_min":14,"x_max":769,"o":"m 769 717 l 518 -94 q 408 -267 490 -200 q 215 -335 325 -335 l 71 -335 l 71 -133 l 200 -133 q 273 -110 242 -133 q 317 -49 304 -87 l 332 0 l 218 0 l 14 717 l 226 717 l 383 165 l 556 717 l 769 717 m 107 1061 l 314 1061 l 500 857 l 313 857 l 107 1061 z "},"ź":{"ha":704,"x_min":39,"x_max":664,"o":"m 658 0 l 46 0 l 46 197 l 379 524 l 39 524 l 39 717 l 664 717 l 664 521 l 338 193 l 658 193 l 658 0 m 422 1061 l 629 1061 l 424 857 l 236 857 l 422 1061 z "},"ž":{"ha":704,"x_min":39,"x_max":664,"o":"m 658 0 l 46 0 l 46 197 l 379 524 l 39 524 l 39 717 l 664 717 l 664 521 l 338 193 l 658 193 l 658 0 m 467 857 l 256 857 l 79 1061 l 235 1061 l 361 949 l 488 1061 l 642 1061 l 467 857 z "},"ż":{"ha":704,"x_min":39,"x_max":664,"o":"m 658 0 l 46 0 l 46 197 l 379 524 l 39 524 l 39 717 l 664 717 l 664 521 l 338 193 l 658 193 l 658 0 m 353 851 q 279 882 310 851 q 249 956 249 913 q 279 1028 249 999 q 353 1058 310 1058 q 426 1028 396 1058 q 457 956 457 999 q 426 882 457 913 q 353 851 396 851 z "},"ء":{"ha":733,"x_min":46,"x_max":690,"o":"m 690 192 l 113 -19 l 46 168 l 213 229 q 167 304 183 258 q 153 386 153 344 q 197 513 153 458 q 321 596 242 568 l 468 651 l 536 463 l 394 411 q 367 392 376 406 q 357 363 357 379 q 372 322 357 339 q 410 304 388 304 q 422 306 418 304 l 622 379 l 690 192 z "},"ا":{"ha":319,"x_min":64,"x_max":264,"o":"m 64 936 l 264 936 l 264 0 l 64 0 l 64 936 z "},"ﺎ":{"ha":403,"x_min":64,"x_max":417,"o":"m 325 0 q 193 35 253 0 q 99 131 133 71 q 64 263 64 192 l 64 936 l 264 936 l 264 275 q 282 228 264 247 q 326 210 300 210 l 403 210 q 417 196 417 210 l 417 14 q 403 0 417 0 l 325 0 z "},"أ":{"ha":319,"x_min":-100,"x_max":372,"o":"m 24 1090 q -25 1154 -10 1115 q -32 1199 -32 1174 q 1 1296 -32 1251 q 90 1360 35 1340 l 204 1400 l 256 1257 l 158 1221 q 132 1188 132 1213 q 143 1157 132 1169 q 171 1144 154 1144 q 189 1149 181 1144 l 321 1196 l 372 1056 l -50 901 l -100 1044 l 24 1090 m 64 881 l 264 881 l 264 0 l 64 0 l 64 881 z "},"ﺄ":{"ha":403,"x_min":-49,"x_max":424,"o":"m 75 1090 q 28 1154 42 1117 q 19 1200 19 1178 q 53 1296 19 1251 q 143 1360 88 1340 l 257 1400 l 308 1257 l 210 1221 q 190 1207 197 1217 q 183 1186 183 1197 q 194 1157 183 1168 q 224 1146 206 1146 q 242 1149 236 1146 l 372 1196 l 424 1056 l 1 901 l -49 1044 l 75 1090 m 325 0 q 193 35 253 0 q 99 131 133 71 q 64 263 64 192 l 64 881 l 264 881 l 264 275 q 282 228 264 247 q 326 210 300 210 l 403 210 q 417 196 417 210 l 417 14 q 403 0 417 0 l 325 0 z "},"إ":{"ha":319,"x_min":-62,"x_max":410,"o":"m 64 936 l 264 936 l 264 0 l 64 0 l 64 936 m 61 -379 q 14 -315 28 -353 q 6 -269 6 -293 q 40 -173 6 -218 q 129 -108 74 -128 l 243 -69 l 294 -212 l 197 -249 q 176 -262 183 -253 q 169 -283 169 -272 q 172 -297 169 -289 q 210 -324 185 -324 q 228 -321 222 -324 l 358 -272 l 410 -414 l -11 -568 l -62 -425 l 61 -379 z "},"ﺈ":{"ha":403,"x_min":-44,"x_max":428,"o":"m 325 0 q 193 35 253 0 q 99 131 133 71 q 64 263 64 192 l 64 936 l 264 936 l 264 275 q 282 228 264 247 q 326 210 300 210 l 403 210 q 417 196 417 210 l 417 14 q 403 0 417 0 l 325 0 m 79 -379 q 32 -315 46 -353 q 24 -269 24 -293 q 58 -173 24 -218 q 147 -108 92 -128 l 260 -69 l 311 -212 l 214 -249 q 194 -262 201 -253 q 188 -283 188 -272 q 199 -312 188 -301 q 228 -324 210 -324 q 244 -321 239 -324 l 376 -272 l 428 -414 l 6 -568 l -44 -425 l 79 -379 z "},"آ":{"ha":315,"x_min":-131,"x_max":363,"o":"m -131 1003 q -90 1105 -131 1067 q 11 1143 -49 1143 l 363 1143 l 363 992 l 38 992 q 11 983 21 992 q 1 956 1 974 l 1 889 l -131 889 l -131 1003 m 63 881 l 263 881 l 263 0 l 63 0 l 63 881 z "},"ﺂ":{"ha":403,"x_min":-131,"x_max":417,"o":"m -131 1003 q -90 1105 -131 1067 q 11 1143 -49 1143 l 363 1143 l 363 992 l 38 992 q 11 983 21 992 q 1 956 1 974 l 1 889 l -131 889 l -131 1003 m 325 0 q 193 35 253 0 q 99 131 133 71 q 64 263 64 192 l 64 881 l 264 881 l 264 275 q 282 228 264 247 q 326 210 300 210 l 403 210 q 417 196 417 210 l 417 14 q 403 0 417 0 l 325 0 z "},"ٱ":{"ha":319,"x_min":-157,"x_max":432,"o":"m 269 1261 q 350 1239 313 1261 q 410 1179 388 1217 q 432 1099 432 1142 q 385 981 432 1029 q 269 933 338 933 l 140 933 q 53 967 90 933 q 11 1053 17 1001 l -86 994 l -157 1117 l 38 1232 l 71 1172 l 174 1235 q 269 1261 215 1261 m 269 1063 q 294 1073 283 1063 q 304 1099 304 1083 q 294 1126 304 1115 q 268 1139 285 1138 q 248 1133 260 1139 q 217 1114 236 1126 l 135 1064 q 147 1063 139 1063 l 269 1063 m 63 0 l 63 881 l 263 881 l 263 0 l 63 0 z "},"ﭑ":{"ha":403,"x_min":-157,"x_max":432,"o":"m 140 933 q 53 967 90 933 q 11 1053 17 1001 l -86 994 l -157 1117 l 38 1232 l 71 1172 l 174 1235 q 269 1261 215 1261 q 350 1239 313 1261 q 410 1179 388 1217 q 432 1099 432 1142 q 385 981 432 1029 q 269 933 338 933 l 140 933 m 136 1065 q 147 1063 144 1063 l 269 1063 q 294 1073 283 1063 q 304 1099 304 1083 q 294 1126 304 1115 q 268 1139 285 1138 q 248 1133 260 1139 q 217 1114 236 1126 l 136 1065 m 403 210 q 417 196 417 210 l 417 14 q 403 0 417 0 l 325 0 q 193 35 253 0 q 99 131 133 71 q 64 263 64 192 l 64 881 l 264 881 l 264 275 q 282 228 264 247 q 326 210 300 210 l 403 210 z "},"ٮ":{"ha":1192,"x_min":64,"x_max":1149,"o":"m 415 0 q 239 47 319 0 q 111 175 158 94 q 64 351 64 256 l 64 518 l 264 518 l 264 363 q 308 255 264 300 q 415 210 353 210 l 857 210 q 923 237 897 210 q 949 304 949 264 l 949 518 l 1149 518 l 1149 304 q 1110 151 1149 221 q 1006 41 1072 82 q 857 0 939 0 l 415 0 z "},"ب":{"ha":1192,"x_min":64,"x_max":1149,"o":"m 415 0 q 239 47 319 0 q 111 175 158 94 q 64 351 64 256 l 64 518 l 264 518 l 264 363 q 308 255 264 300 q 415 210 353 210 l 857 210 q 923 237 897 210 q 949 304 949 264 l 949 518 l 1149 518 l 1149 304 q 1110 151 1149 221 q 1006 41 1072 82 q 857 0 939 0 l 415 0 m 731 -296 l 553 -296 l 553 -118 l 731 -118 l 731 -296 z "},"ﺐ":{"ha":1271,"x_min":64,"x_max":1285,"o":"m 415 0 q 239 47 319 0 q 111 175 158 94 q 64 351 64 256 l 64 518 l 264 518 l 264 363 q 308 255 264 300 q 415 210 353 210 l 857 210 q 923 237 897 210 q 949 304 949 264 l 949 518 l 1149 518 l 1149 275 q 1167 228 1149 247 q 1213 210 1185 210 l 1271 210 q 1285 196 1285 210 l 1285 14 q 1271 0 1285 0 l 1213 0 q 1042 76 1106 0 q 857 0 968 0 l 415 0 m 560 -118 l 739 -118 l 739 -296 l 560 -296 l 560 -118 z "},"ﺒ":{"ha":446,"x_min":-14,"x_max":460,"o":"m 0 0 q -14 14 -14 0 l -14 196 q 0 210 -14 210 l 58 210 q 105 228 86 210 q 124 275 124 247 l 124 518 l 322 518 l 322 275 q 340 228 322 247 q 386 210 358 210 l 446 210 q 460 196 460 210 l 460 14 q 446 0 460 0 l 386 0 q 222 68 286 0 q 58 0 161 0 l 0 0 m 138 -117 l 315 -117 l 315 -296 l 138 -296 l 138 -117 z "},"ﺑ":{"ha":381,"x_min":-14,"x_max":338,"o":"m 0 0 q -14 14 -14 0 l -14 196 q 0 210 -14 210 l 75 210 q 120 229 101 210 q 139 275 139 249 l 139 560 l 338 560 l 338 263 q 303 131 338 192 q 208 35 268 71 q 76 0 149 0 l 0 0 m -1 -118 l 178 -118 l 178 -296 l -1 -296 l -1 -118 z "},"پ":{"ha":1192,"x_min":64,"x_max":1149,"o":"m 415 0 q 239 47 319 0 q 111 175 158 94 q 64 351 64 256 l 64 518 l 264 518 l 264 363 q 308 255 264 300 q 415 210 353 210 l 857 210 q 923 237 897 210 q 949 304 949 264 l 949 518 l 1149 518 l 1149 304 q 1110 151 1149 221 q 1006 41 1072 82 q 857 0 939 0 l 415 0 m 426 -118 l 604 -118 l 604 -296 l 426 -296 l 426 -118 m 675 -118 l 854 -118 l 854 -296 l 675 -296 l 675 -118 m 553 -367 l 732 -367 l 732 -544 l 553 -544 l 553 -367 z "},"ﭗ":{"ha":1271,"x_min":64,"x_max":1285,"o":"m 1271 210 q 1285 196 1285 210 l 1285 14 q 1271 0 1285 0 l 1213 0 q 1042 82 1103 0 q 857 0 971 0 l 415 0 q 239 47 319 0 q 111 175 158 94 q 64 351 64 256 l 64 518 l 264 518 l 264 363 q 308 255 264 300 q 415 210 353 210 l 857 210 q 923 237 897 210 q 949 304 949 264 l 949 518 l 1149 518 l 1149 275 q 1167 228 1149 247 q 1213 210 1185 210 l 1271 210 m 604 -118 l 604 -296 l 426 -296 l 426 -118 l 604 -118 m 675 -296 l 675 -118 l 854 -118 l 854 -296 l 675 -296 m 553 -544 l 553 -367 l 732 -367 l 732 -544 l 553 -544 z "},"ﭙ":{"ha":508,"x_min":-14,"x_max":522,"o":"m -14 196 q 0 210 -14 210 l 90 210 q 136 228 118 210 q 154 275 154 247 l 154 518 l 354 518 l 354 275 q 372 228 354 247 q 418 210 390 210 l 508 210 q 522 196 522 210 l 522 14 q 508 0 522 0 l 418 0 q 254 68 315 0 q 90 0 190 0 l 0 0 q -14 14 -14 0 l -14 196 m 39 -118 l 218 -118 l 218 -296 l 39 -296 l 39 -118 m 289 -118 l 467 -118 l 467 -296 l 289 -296 l 289 -118 m 165 -367 l 344 -367 l 344 -544 l 165 -544 l 165 -367 z "},"ﭘ":{"ha":467,"x_min":-14,"x_max":426,"o":"m 0 0 q -14 14 -14 0 l -14 196 q 0 210 -14 210 l 150 210 q 195 229 176 210 q 214 275 214 249 l 214 560 l 413 560 l 413 263 q 378 131 413 192 q 283 35 343 71 q 151 0 224 0 l 0 0 m -1 -118 l 178 -118 l 178 -296 l -1 -296 l -1 -118 m 249 -118 l 426 -118 l 426 -296 l 249 -296 l 249 -118 m 126 -367 l 304 -367 l 304 -544 l 126 -544 l 126 -367 z "},"ت":{"ha":1192,"x_min":64,"x_max":1149,"o":"m 394 697 l 572 697 l 572 518 l 394 518 l 394 697 m 644 697 l 822 697 l 822 518 l 644 518 l 644 697 m 415 0 q 239 47 319 0 q 111 175 158 94 q 64 351 64 256 l 64 518 l 264 518 l 264 363 q 308 255 264 300 q 415 210 353 210 l 857 210 q 923 237 897 210 q 949 304 949 264 l 949 518 l 1149 518 l 1149 304 q 1110 151 1149 221 q 1006 41 1072 82 q 857 0 939 0 l 415 0 z "},"ﺖ":{"ha":1271,"x_min":64,"x_max":1285,"o":"m 394 697 l 572 697 l 572 518 l 394 518 l 394 697 m 644 697 l 822 697 l 822 518 l 644 518 l 644 697 m 264 518 l 264 363 q 308 255 264 300 q 415 210 353 210 l 857 210 q 923 237 897 210 q 949 304 949 264 l 949 518 l 1149 518 l 1149 275 q 1167 228 1149 247 q 1213 210 1185 210 l 1271 210 q 1285 196 1285 210 l 1285 14 q 1271 0 1285 0 l 1213 0 q 1042 76 1106 0 q 857 0 968 0 l 415 0 q 239 47 319 0 q 111 175 158 94 q 64 351 64 256 l 64 518 l 264 518 z "},"ﺘ":{"ha":508,"x_min":-14,"x_max":522,"o":"m 40 817 l 218 817 l 218 639 l 40 639 l 40 817 m 290 817 l 469 817 l 469 639 l 290 639 l 290 817 m -14 196 q 0 210 -14 210 l 90 210 q 136 228 118 210 q 154 275 154 247 l 154 518 l 354 518 l 354 275 q 372 228 354 247 q 418 210 390 210 l 508 210 q 522 196 522 210 l 522 14 q 508 0 522 0 l 418 0 q 254 68 315 0 q 90 0 190 0 l 0 0 q -14 14 -14 0 l -14 196 z "},"ﺗ":{"ha":456,"x_min":-18,"x_max":413,"o":"m -18 857 l 161 857 l 161 678 l -18 678 l -18 857 m 233 857 l 411 857 l 411 678 l 233 678 l 233 857 m 0 0 q -14 14 -14 0 l -14 196 q 0 210 -14 210 l 150 210 q 195 229 176 210 q 214 275 214 249 l 214 560 l 413 560 l 413 263 q 378 131 413 192 q 283 35 343 71 q 151 0 224 0 l 0 0 z "},"ث":{"ha":1192,"x_min":64,"x_max":1149,"o":"m 699 946 l 699 767 l 521 767 l 521 946 l 699 946 m 572 697 l 572 518 l 394 518 l 394 697 l 572 697 m 824 697 l 824 518 l 644 518 l 644 697 l 824 697 m 415 0 q 239 47 319 0 q 111 175 158 94 q 64 351 64 256 l 64 518 l 264 518 l 264 363 q 308 255 264 300 q 415 210 353 210 l 857 210 q 923 237 897 210 q 949 304 949 264 l 949 518 l 1149 518 l 1149 304 q 1110 151 1149 221 q 1006 41 1072 82 q 857 0 939 0 l 415 0 z "},"ﺚ":{"ha":1271,"x_min":64,"x_max":1285,"o":"m 700 946 l 700 767 l 522 767 l 522 946 l 700 946 m 574 697 l 574 518 l 396 518 l 396 697 l 574 697 m 646 518 l 646 697 l 824 697 l 824 518 l 646 518 m 1271 210 q 1285 196 1285 210 l 1285 14 q 1271 0 1285 0 l 1213 0 q 1042 82 1103 0 q 857 0 971 0 l 415 0 q 239 47 319 0 q 111 175 158 94 q 64 351 64 256 l 64 518 l 264 518 l 264 363 q 308 255 264 300 q 415 210 353 210 l 857 210 q 923 237 897 210 q 949 304 949 264 l 949 518 l 1149 518 l 1149 275 q 1167 228 1149 247 q 1213 210 1185 210 l 1271 210 z "},"ﺜ":{"ha":508,"x_min":-14,"x_max":522,"o":"m 165 1065 l 344 1065 l 344 886 l 165 886 l 165 1065 m 39 817 l 218 817 l 218 638 l 39 638 l 39 817 m 290 817 l 468 817 l 468 638 l 290 638 l 290 817 m 0 0 q -14 14 -14 0 l -14 196 q 0 210 -14 210 l 90 210 q 136 228 118 210 q 154 275 154 247 l 154 518 l 354 518 l 354 275 q 372 228 354 247 q 418 210 390 210 l 508 210 q 522 196 522 210 l 522 14 q 508 0 522 0 l 418 0 q 323 21 365 0 q 254 78 281 42 q 185 21 228 42 q 90 0 143 0 l 0 0 z "},"ﺛ":{"ha":456,"x_min":-18,"x_max":413,"o":"m 108 1106 l 288 1106 l 288 926 l 108 926 l 108 1106 m -18 857 l 161 857 l 161 678 l -18 678 l -18 857 m 233 857 l 411 857 l 411 678 l 233 678 l 233 857 m 0 0 q -14 14 -14 0 l -14 196 q 0 210 -14 210 l 150 210 q 195 229 176 210 q 214 275 214 249 l 214 560 l 413 560 l 413 263 q 378 131 413 192 q 283 35 343 71 q 151 0 224 0 l 0 0 z "},"ٹ":{"ha":1192,"x_min":64,"x_max":1149,"o":"m 594 946 q 582 860 594 897 q 546 807 569 822 l 440 743 q 456 772 451 751 q 461 831 461 793 l 461 974 l 594 974 l 594 947 l 594 946 m 442 624 l 404 721 l 567 819 q 661 847 611 847 q 776 799 728 847 q 824 685 824 751 q 776 567 824 615 q 661 518 729 518 l 442 518 l 442 624 m 525 649 l 661 649 q 687 659 676 649 q 697 685 697 669 q 687 713 697 703 q 657 724 676 724 q 638 717 649 724 q 608 700 626 711 l 525 649 m 1149 518 l 1149 304 q 1110 151 1149 221 q 1006 41 1072 82 q 857 0 939 0 l 417 0 q 240 47 321 0 q 111 175 158 94 q 64 351 64 256 l 64 518 l 264 518 l 264 363 q 308 255 264 300 q 417 210 353 210 l 857 210 q 924 237 897 210 q 950 304 950 264 l 950 518 l 1149 518 z "},"ﭧ":{"ha":1271,"x_min":64,"x_max":1285,"o":"m 404 724 l 450 751 l 440 746 q 456 774 451 753 q 461 833 461 794 l 461 975 l 594 975 l 594 949 l 594 947 q 583 867 594 903 q 551 814 572 832 l 565 822 q 660 849 607 849 q 775 801 726 849 q 824 686 824 753 q 776 569 824 617 q 660 521 728 521 l 442 521 l 442 624 l 404 724 m 525 651 l 660 651 q 685 661 675 651 q 696 686 696 671 q 687 715 696 704 q 660 726 678 725 q 640 720 651 726 q 608 701 628 714 l 525 651 m 1271 210 q 1285 196 1285 210 l 1285 14 q 1271 0 1285 0 l 1213 0 q 1042 82 1103 0 q 857 0 971 0 l 415 0 q 239 47 319 0 q 111 175 158 94 q 64 351 64 256 l 64 518 l 264 518 l 264 363 q 308 255 264 300 q 415 210 353 210 l 857 210 q 923 237 897 210 q 949 304 949 264 l 949 518 l 1149 518 l 1149 275 q 1167 228 1149 247 q 1213 210 1185 210 l 1271 210 z "},"ﭩ":{"ha":467,"x_min":-14,"x_max":481,"o":"m 236 1085 q 223 999 236 1036 q 186 946 210 961 l 81 882 q 103 969 103 899 l 103 1113 l 236 1113 l 236 1086 l 236 1085 m 83 760 l 44 860 l 207 958 q 301 986 251 986 q 416 938 368 986 q 464 824 464 890 q 417 706 464 754 q 301 657 369 657 l 83 657 l 83 760 m 165 788 l 301 788 q 327 798 317 788 q 338 824 338 808 q 327 852 338 842 q 297 863 317 863 q 279 856 290 863 q 250 839 268 850 l 165 788 m 467 210 q 481 196 481 210 l 481 14 q 467 0 481 0 l 397 0 q 302 21 344 0 q 233 78 260 42 q 165 21 207 42 q 69 0 122 0 l 0 0 q -14 14 -14 0 l -14 196 q 0 210 -14 210 l 69 210 q 115 228 97 210 q 133 275 133 247 l 133 518 l 333 518 l 333 275 q 351 228 333 247 q 397 210 369 210 l 467 210 z "},"ﭨ":{"ha":381,"x_min":-36,"x_max":383,"o":"m -36 901 l 4 926 q 21 1010 21 943 l 21 1153 l 154 1153 l 154 1126 l 154 1125 q 144 1047 154 1082 q 115 993 133 1013 l 125 1000 q 221 1026 167 1026 q 301 1004 264 1026 q 361 944 339 982 q 383 864 383 907 q 336 747 383 794 q 221 699 289 699 l 1 699 l 1 800 l -36 901 m 83 828 l 221 828 q 245 838 235 828 q 256 864 256 849 q 247 892 256 882 q 219 904 238 903 q 199 898 211 904 q 168 879 188 892 l 83 828 m 139 560 l 338 560 l 338 263 q 303 131 338 192 q 208 35 268 71 q 76 0 149 0 l 0 0 q -14 14 -14 0 l -14 196 q 0 210 -14 210 l 75 210 q 120 229 101 210 q 139 275 139 249 l 139 560 z "},"ݖ":{"ha":1192,"x_min":64,"x_max":1149,"o":"m 557 524 q 537 617 557 585 q 483 663 517 650 q 399 679 450 675 l 399 828 q 559 793 501 828 q 618 686 617 758 q 678 793 619 758 q 839 828 736 828 l 839 679 q 755 663 788 675 q 702 617 722 650 q 682 524 682 585 l 557 524 m 415 0 q 239 47 319 0 q 111 175 158 94 q 64 351 64 256 l 64 518 l 264 518 l 264 363 q 308 255 264 300 q 415 210 353 210 l 857 210 q 923 237 897 210 q 949 304 949 264 l 949 518 l 1149 518 l 1149 304 q 1110 151 1149 221 q 1006 41 1072 82 q 857 0 939 0 l 415 0 z "},"ࢠ":{"ha":1192,"x_min":64,"x_max":1149,"o":"m 415 0 q 239 47 319 0 q 111 175 158 94 q 64 351 64 256 l 64 518 l 264 518 l 264 363 q 308 255 264 300 q 415 210 353 210 l 857 210 q 923 237 897 210 q 949 304 949 264 l 949 518 l 1149 518 l 1149 304 q 1110 151 1149 221 q 1006 41 1072 82 q 857 0 939 0 l 415 0 m 565 -442 q 545 -348 565 -381 q 492 -303 525 -315 q 408 -286 460 -290 l 408 -137 q 568 -172 510 -137 q 628 -279 626 -207 q 687 -172 629 -207 q 847 -137 744 -137 l 847 -286 q 763 -303 796 -290 q 710 -348 731 -315 q 690 -442 690 -381 l 565 -442 z "},"ج":{"ha":985,"x_min":65,"x_max":942,"o":"m 424 -442 q 251 -394 331 -442 q 124 -267 171 -347 q 78 -96 78 -187 q 112 53 78 -18 q 207 174 146 124 l 564 436 l 415 507 q 375 518 393 518 q 308 489 340 518 l 204 376 l 65 497 l 171 624 q 263 693 210 671 q 374 715 317 715 q 493 685 436 715 l 793 544 q 814 542 804 542 l 942 542 l 942 346 l 774 346 l 344 31 q 288 -92 288 -15 q 333 -199 288 -154 q 439 -243 378 -243 l 842 -243 l 842 -442 l 424 -442 m 551 65 l 729 65 l 729 -112 l 551 -112 l 551 65 z "},"ﺞ":{"ha":992,"x_min":65,"x_max":1006,"o":"m 424 -442 q 251 -394 331 -442 q 124 -267 171 -347 q 78 -96 78 -187 q 112 53 78 -18 q 207 174 146 124 l 564 436 l 415 507 q 375 518 393 518 q 308 489 340 518 l 204 376 l 65 497 l 171 624 q 263 693 210 671 q 374 715 317 715 q 493 685 436 715 l 793 544 q 814 542 804 542 l 942 542 l 942 346 l 772 346 l 747 328 l 747 275 q 765 228 747 247 q 811 210 783 210 l 992 210 q 1006 196 1006 210 l 1006 14 q 992 0 1006 0 l 811 0 q 649 51 708 0 q 589 197 590 103 l 589 211 l 344 31 q 288 -92 288 -15 q 333 -199 288 -154 q 439 -243 378 -243 l 842 -243 l 842 -442 l 424 -442 m 454 6 l 601 6 l 601 -146 l 454 -146 l 454 6 z "},"ﺠ":{"ha":999,"x_min":-14,"x_max":1013,"o":"m 0 0 q -14 14 -14 0 l -14 196 q 0 210 -14 210 l 289 210 q 469 276 397 210 l 604 399 l 411 492 q 369 503 383 503 q 334 494 351 503 q 304 472 317 486 l 176 331 l 38 453 l 165 608 q 259 677 206 654 q 368 700 313 700 q 434 691 407 700 q 489 668 461 682 l 788 529 q 810 525 796 525 l 958 525 l 958 331 l 799 331 l 774 308 l 774 275 q 792 228 774 247 q 839 210 811 210 l 999 210 q 1013 196 1013 210 l 1013 14 q 999 0 1013 0 l 839 0 q 703 44 757 0 q 625 164 650 88 l 579 121 q 432 31 515 61 q 260 0 349 0 l 0 0 m 214 -118 l 392 -118 l 392 -296 l 214 -296 l 214 -118 z "},"ﺟ":{"ha":1001,"x_min":-14,"x_max":958,"o":"m 0 0 q -14 14 -14 0 l -14 196 q 0 210 -14 210 l 289 210 q 469 276 397 210 l 604 399 l 411 492 q 369 503 383 503 q 334 494 351 503 q 304 472 317 486 l 176 331 l 38 453 l 165 608 q 259 677 206 654 q 368 700 313 700 q 434 691 407 700 q 489 668 461 682 l 788 529 q 810 525 796 525 l 958 525 l 958 331 l 804 331 l 579 121 q 432 31 515 61 q 260 0 349 0 l 0 0 m 218 -118 l 394 -118 l 394 -296 l 218 -296 l 218 -118 z "},"چ":{"ha":985,"x_min":65,"x_max":942,"o":"m 424 -442 q 251 -394 331 -442 q 124 -267 171 -347 q 78 -96 78 -187 q 112 53 78 -18 q 207 174 146 124 l 564 436 l 415 507 q 375 518 393 518 q 308 489 340 518 l 204 376 l 65 497 l 171 624 q 263 693 210 671 q 374 715 317 715 q 493 685 436 715 l 793 544 q 814 542 804 542 l 942 542 l 942 346 l 774 346 l 344 31 q 288 -92 288 -15 q 333 -199 288 -154 q 439 -243 378 -243 l 842 -243 l 842 -442 l 424 -442 m 525 119 l 672 119 l 672 -29 l 525 -29 l 525 119 m 701 119 l 850 119 l 850 -29 l 701 -29 l 701 119 m 611 -58 l 758 -58 l 758 -193 l 611 -193 l 611 -58 z "},"ﭻ":{"ha":992,"x_min":65,"x_max":1006,"o":"m 424 -442 q 251 -394 331 -442 q 124 -267 171 -347 q 78 -96 78 -187 q 112 53 78 -18 q 207 174 146 124 l 564 436 l 415 507 q 375 518 393 518 q 308 489 340 518 l 204 376 l 65 497 l 171 624 q 263 693 210 671 q 374 715 317 715 q 493 685 436 715 l 793 544 q 814 542 804 542 l 942 542 l 942 346 l 772 346 l 747 328 l 747 275 q 765 228 747 247 q 811 210 783 210 l 992 210 q 1006 196 1006 210 l 1006 14 q 992 0 1006 0 l 811 0 q 649 51 708 0 q 589 197 590 103 l 589 211 l 344 31 q 288 -92 288 -15 q 333 -199 288 -154 q 439 -243 378 -243 l 842 -243 l 842 -442 l 424 -442 m 388 22 l 485 22 l 485 -78 l 388 -78 l 388 22 m 515 22 l 615 22 l 615 -78 l 515 -78 l 515 22 m 451 -110 l 551 -110 l 551 -210 l 451 -210 l 451 -110 z "},"ﭽ":{"ha":999,"x_min":-14,"x_max":1013,"o":"m 0 0 q -14 14 -14 0 l -14 196 q 0 210 -14 210 l 289 210 q 469 276 397 210 l 604 399 l 411 492 q 369 503 383 503 q 333 494 351 503 q 304 472 315 486 l 176 331 l 38 453 l 165 608 q 259 677 206 654 q 368 700 313 700 q 434 691 407 700 q 489 668 461 682 l 788 529 q 810 525 800 525 l 958 525 l 958 331 l 799 331 l 774 308 l 774 275 q 792 228 774 247 q 839 210 811 210 l 999 210 q 1013 196 1013 210 l 1013 14 q 999 0 1013 0 l 839 0 q 702 46 757 0 q 628 167 647 92 l 579 121 q 432 31 515 61 q 260 0 349 0 l 0 0 m 176 -118 l 356 -118 l 356 -296 l 176 -296 l 176 -118 m 426 -118 l 604 -118 l 604 -296 l 426 -296 l 426 -118 m 304 -367 l 482 -367 l 482 -544 l 304 -544 l 304 -367 z "},"ﭼ":{"ha":1001,"x_min":-14,"x_max":958,"o":"m 0 0 q -14 14 -14 0 l -14 196 q 0 210 -14 210 l 289 210 q 469 276 397 210 l 604 399 l 411 492 q 369 503 383 503 q 334 494 351 503 q 304 472 317 486 l 176 331 l 38 453 l 165 608 q 259 677 206 654 q 368 700 313 700 q 434 691 407 700 q 489 668 461 682 l 788 529 q 810 525 796 525 l 958 525 l 958 331 l 804 331 l 579 121 q 432 31 515 61 q 260 0 349 0 l 0 0 m 176 -119 l 356 -119 l 356 -297 l 176 -297 l 176 -119 m 426 -119 l 604 -119 l 604 -297 l 426 -297 l 426 -119 m 304 -368 l 482 -368 l 482 -546 l 304 -546 l 304 -368 z "},"ح":{"ha":985,"x_min":65,"x_max":942,"o":"m 424 -442 q 251 -394 331 -442 q 124 -267 171 -347 q 78 -96 78 -187 q 112 53 78 -18 q 207 174 146 124 l 564 436 l 415 507 q 375 518 393 518 q 308 489 340 518 l 204 376 l 65 497 l 171 624 q 263 693 210 671 q 374 715 317 715 q 493 685 436 715 l 793 544 q 814 542 804 542 l 942 542 l 942 346 l 774 346 l 344 31 q 288 -92 288 -15 q 333 -199 288 -154 q 439 -243 378 -243 l 842 -243 l 842 -442 l 424 -442 z "},"ﺢ":{"ha":992,"x_min":65,"x_max":1006,"o":"m 424 -442 q 251 -394 331 -442 q 124 -267 171 -347 q 78 -96 78 -187 q 112 53 78 -18 q 207 174 146 124 l 564 436 l 415 507 q 375 518 393 518 q 308 489 340 518 l 204 376 l 65 497 l 171 624 q 263 693 210 671 q 374 715 317 715 q 493 685 436 715 l 793 544 q 814 542 804 542 l 942 542 l 942 346 l 772 346 l 747 328 l 747 275 q 765 228 747 247 q 811 210 783 210 l 992 210 q 1006 196 1006 210 l 1006 14 q 992 0 1006 0 l 811 0 q 649 51 708 0 q 589 197 590 103 l 589 211 l 344 31 q 288 -92 288 -15 q 333 -199 288 -154 q 439 -243 378 -243 l 842 -243 l 842 -442 l 424 -442 z "},"ﺤ":{"ha":999,"x_min":-14,"x_max":1013,"o":"m 0 0 q -14 14 -14 0 l -14 196 q 0 210 -14 210 l 289 210 q 469 276 397 210 l 604 399 l 411 492 q 369 503 383 503 q 334 494 351 503 q 304 472 317 486 l 176 331 l 38 453 l 165 608 q 259 677 206 654 q 368 700 313 700 q 434 691 407 700 q 489 668 461 682 l 788 529 q 810 525 796 525 l 958 525 l 958 331 l 799 331 l 774 308 l 774 275 q 792 228 774 247 q 839 210 811 210 l 999 210 q 1013 196 1013 210 l 1013 14 q 999 0 1013 0 l 839 0 q 702 46 757 0 q 628 167 647 92 l 579 121 q 432 31 515 61 q 260 0 349 0 l 0 0 z "},"ﺣ":{"ha":1001,"x_min":-14,"x_max":958,"o":"m 0 0 q -14 14 -14 0 l -14 196 q 0 210 -14 210 l 289 210 q 469 276 397 210 l 604 399 l 411 492 q 369 503 383 503 q 334 494 351 503 q 304 472 317 486 l 176 331 l 38 453 l 165 608 q 259 677 206 654 q 368 700 313 700 q 434 691 407 700 q 489 668 461 682 l 788 529 q 810 525 796 525 l 958 525 l 958 331 l 804 331 l 579 121 q 432 31 515 61 q 260 0 349 0 l 0 0 z "},"خ":{"ha":985,"x_min":65,"x_max":942,"o":"m 283 1001 l 461 1001 l 461 824 l 283 824 l 283 1001 m 424 -442 q 251 -394 331 -442 q 124 -267 171 -347 q 78 -96 78 -187 q 112 53 78 -18 q 207 174 146 124 l 564 436 l 415 507 q 375 518 393 518 q 308 489 340 518 l 204 376 l 65 497 l 171 624 q 263 693 210 671 q 374 715 317 715 q 493 685 436 715 l 793 544 q 814 542 804 542 l 942 542 l 942 346 l 774 346 l 344 31 q 288 -92 288 -15 q 333 -199 288 -154 q 439 -243 378 -243 l 842 -243 l 842 -442 l 424 -442 z "},"ﺦ":{"ha":992,"x_min":65,"x_max":1006,"o":"m 283 1001 l 461 1001 l 461 824 l 283 824 l 283 1001 m 424 -442 q 251 -394 331 -442 q 124 -267 171 -347 q 78 -96 78 -187 q 112 53 78 -18 q 207 174 146 124 l 564 436 l 415 507 q 375 518 393 518 q 308 489 340 518 l 204 376 l 65 497 l 171 624 q 263 693 210 671 q 374 715 317 715 q 493 685 436 715 l 793 544 q 814 542 804 542 l 942 542 l 942 346 l 774 346 l 747 326 l 747 275 q 765 228 747 247 q 811 210 783 210 l 992 210 q 1006 196 1006 210 l 1006 14 q 992 0 1006 0 l 811 0 q 649 51 708 0 q 589 197 590 103 l 589 211 l 344 31 q 288 -92 288 -15 q 333 -199 288 -154 q 439 -243 378 -243 l 842 -243 l 842 -442 l 424 -442 z "},"ﺨ":{"ha":999,"x_min":-14,"x_max":1013,"o":"m 460 808 l 281 808 l 281 986 l 460 986 l 460 808 m 0 0 q -14 14 -14 0 l -14 196 q 0 210 -14 210 l 289 210 q 469 276 397 210 l 604 399 l 411 492 q 369 503 383 503 q 334 494 351 503 q 304 472 317 486 l 176 331 l 38 453 l 165 608 q 259 677 206 654 q 368 700 313 700 q 434 691 407 700 q 489 668 461 682 l 788 529 q 810 525 796 525 l 958 525 l 958 331 l 804 331 l 774 304 l 774 275 q 792 228 774 247 q 839 210 811 210 l 999 210 q 1013 196 1013 210 l 1013 14 q 999 0 1013 0 l 839 0 q 703 44 757 0 q 625 164 650 88 l 579 121 q 432 31 515 61 q 260 0 349 0 l 0 0 z "},"ﺧ":{"ha":1001,"x_min":-14,"x_max":958,"o":"m 281 986 l 458 986 l 458 808 l 281 808 l 281 986 m 0 0 q -14 14 -14 0 l -14 196 q 0 210 -14 210 l 289 210 q 469 276 397 210 l 604 399 l 411 492 q 369 503 383 503 q 334 494 351 503 q 304 472 317 486 l 176 331 l 38 453 l 165 608 q 259 677 206 654 q 368 700 313 700 q 434 691 407 700 q 489 668 461 682 l 788 529 q 810 525 796 525 l 958 525 l 958 331 l 804 331 l 579 121 q 432 31 515 61 q 260 0 349 0 l 0 0 z "},"د":{"ha":719,"x_min":61,"x_max":675,"o":"m 408 210 q 458 228 439 210 q 476 274 476 246 q 465 308 476 293 q 422 343 453 322 l 131 543 l 243 708 l 568 483 q 648 395 621 443 q 675 279 675 347 q 637 138 675 201 q 533 37 599 74 q 392 0 468 0 l 61 0 l 61 210 l 408 210 z "},"ﺪ":{"ha":767,"x_min":61,"x_max":781,"o":"m 392 210 q 443 227 422 210 q 464 275 464 244 q 456 311 464 283 l 324 669 l 513 740 l 683 267 q 758 210 707 210 l 767 210 q 781 196 781 210 l 781 14 q 767 0 781 0 l 749 0 q 647 22 692 0 q 581 78 603 44 q 496 17 536 33 q 392 0 456 0 l 61 0 l 61 210 l 392 210 z "},"ذ":{"ha":719,"x_min":61,"x_max":675,"o":"m 160 994 l 338 994 l 338 815 l 160 815 l 160 994 m 408 210 q 458 228 439 210 q 476 274 476 246 q 465 308 476 293 q 422 343 453 322 l 131 543 l 243 708 l 568 483 q 648 395 621 443 q 675 279 675 347 q 637 138 675 201 q 533 37 599 74 q 392 0 468 0 l 61 0 l 61 210 l 408 210 z "},"ﺬ":{"ha":767,"x_min":61,"x_max":781,"o":"m 325 1008 l 504 1008 l 504 831 l 325 831 l 325 1008 m 392 210 q 443 227 422 210 q 464 275 464 244 q 456 311 464 283 l 324 669 l 513 740 l 683 267 q 758 210 704 210 l 767 210 q 781 196 781 210 l 781 14 q 767 0 781 0 l 749 0 q 647 22 692 0 q 581 78 603 44 q 496 17 536 33 q 392 0 456 0 l 61 0 l 61 210 l 392 210 z "},"ڈ":{"ha":719,"x_min":53,"x_max":675,"o":"m 53 1051 l 99 1079 l 89 1074 q 105 1101 100 1081 q 110 1160 110 1122 l 110 1303 l 243 1303 l 243 1276 l 243 1275 q 232 1195 243 1231 q 200 1142 221 1160 l 214 1150 q 308 1176 256 1176 q 424 1128 375 1176 q 472 1014 472 1081 q 425 897 472 944 q 308 849 378 849 l 90 849 l 90 950 l 53 1051 m 175 979 l 308 979 q 334 989 324 979 q 344 1014 344 999 q 335 1042 344 1031 q 308 1054 325 1053 q 288 1048 300 1054 q 257 1029 276 1042 l 175 979 m 568 483 q 648 395 621 443 q 675 279 675 347 q 637 138 675 201 q 533 37 599 74 q 392 0 468 0 l 61 0 l 61 210 l 408 210 q 458 228 439 210 q 476 274 476 246 q 465 308 476 293 q 422 343 453 322 l 131 543 l 243 708 l 568 483 z "},"ﮉ":{"ha":767,"x_min":61,"x_max":781,"o":"m 232 1083 l 268 1106 q 290 1192 290 1119 l 290 1335 l 424 1335 l 424 1308 l 424 1307 q 413 1227 424 1263 q 381 1174 401 1192 l 394 1182 q 489 1208 436 1208 q 603 1161 556 1208 q 651 1046 651 1114 q 604 928 651 976 q 489 881 557 881 l 271 881 l 271 982 l 232 1083 m 356 1011 l 489 1011 q 515 1021 504 1011 q 525 1046 525 1031 q 515 1074 525 1063 q 489 1086 506 1085 q 469 1080 481 1086 q 438 1061 457 1074 l 356 1011 m 767 210 q 781 196 781 210 l 781 14 q 767 0 781 0 l 749 0 q 647 22 692 0 q 581 78 603 44 q 496 17 536 33 q 392 0 456 0 l 61 0 l 61 210 l 392 210 q 443 227 422 210 q 464 275 464 244 q 456 311 464 283 l 324 669 l 513 740 l 683 267 q 758 210 707 210 l 767 210 z "},"ر":{"ha":397,"x_min":-61,"x_max":349,"o":"m -61 -226 q 79 -135 38 -169 q 135 -60 121 -100 q 149 57 149 -19 l 149 518 l 349 518 l 349 57 q 319 -135 349 -60 q 219 -269 290 -210 q 14 -394 149 -328 l -61 -226 z "},"ﺮ":{"ha":471,"x_min":-61,"x_max":485,"o":"m 471 210 q 485 196 485 210 l 485 14 q 471 0 485 0 l 413 0 q 347 8 376 0 q 310 -156 342 -89 q 208 -278 278 -224 q 14 -394 139 -333 l -61 -226 q 79 -135 38 -169 q 135 -60 121 -100 q 149 57 149 -19 l 149 518 l 349 518 l 349 275 q 367 228 349 247 q 413 210 385 210 l 471 210 z "},"ز":{"ha":401,"x_min":-61,"x_max":349,"o":"m 160 815 l 338 815 l 338 638 l 160 638 l 160 815 m -61 -226 q 79 -135 38 -169 q 135 -60 121 -100 q 149 57 149 -19 l 149 518 l 349 518 l 349 57 q 319 -135 349 -60 q 219 -269 290 -210 q 14 -394 149 -328 l -61 -226 z "},"ﺰ":{"ha":471,"x_min":-61,"x_max":485,"o":"m 338 815 l 338 638 l 160 638 l 160 815 l 338 815 m 471 210 q 485 196 485 210 l 485 14 q 471 0 485 0 l 413 0 q 347 8 376 0 q 310 -156 342 -89 q 208 -278 278 -224 q 14 -394 139 -333 l -61 -226 q 79 -135 38 -169 q 135 -60 121 -100 q 149 57 149 -19 l 149 518 l 349 518 l 349 275 q 367 228 349 247 q 413 210 385 210 l 471 210 z "},"ڑ":{"ha":397,"x_min":-61,"x_max":458,"o":"m 296 996 q 410 948 363 996 q 458 833 458 900 q 411 716 458 764 q 296 668 364 668 l 76 668 l 76 771 l 39 871 l 81 897 l 75 893 q 91 921 86 900 q 96 981 96 942 l 96 1122 l 229 1122 l 229 1096 l 229 1094 q 219 1017 229 1051 q 189 963 208 982 l 200 969 q 296 996 242 996 m 296 799 q 320 808 310 799 q 331 833 331 818 q 294 874 331 872 q 274 867 286 874 q 243 849 263 861 l 160 799 l 296 799 m 149 518 l 349 518 l 349 57 q 319 -135 349 -60 q 219 -269 290 -210 q 14 -394 149 -328 l -61 -226 q 79 -135 38 -169 q 135 -60 121 -100 q 149 57 149 -19 l 149 518 z "},"ﮍ":{"ha":471,"x_min":-61,"x_max":485,"o":"m 63 865 l 99 888 q 121 975 121 901 l 121 1118 l 254 1118 l 254 1090 l 254 1089 q 243 1009 254 1044 q 211 956 232 974 l 225 964 q 319 992 269 992 q 434 944 386 992 q 482 828 482 896 q 435 710 482 758 q 319 663 388 663 l 101 663 l 101 765 l 63 865 m 185 793 l 319 793 q 345 803 335 793 q 356 828 356 814 q 346 857 356 846 q 319 868 336 868 q 299 862 311 868 q 268 843 288 856 l 185 793 m 471 210 q 485 196 485 210 l 485 14 q 471 0 485 0 l 413 0 q 347 8 376 0 q 310 -156 342 -89 q 208 -278 278 -224 q 14 -394 139 -333 l -61 -226 q 79 -135 38 -169 q 135 -60 121 -100 q 149 57 149 -19 l 149 518 l 349 518 l 349 275 q 367 228 349 247 q 413 210 385 210 l 471 210 z "},"ڕ":{"ha":401,"x_min":-61,"x_max":404,"o":"m -61 -226 q 79 -135 38 -169 q 135 -60 121 -100 q 149 57 149 -19 l 149 518 l 349 518 l 349 57 q 319 -135 349 -60 q 219 -269 290 -210 q 14 -394 149 -328 l -61 -226 m -36 -504 q 124 -537 67 -503 q 183 -644 182 -572 q 244 -537 185 -572 q 404 -504 303 -503 l 404 -653 q 320 -669 353 -657 q 267 -715 288 -682 q 247 -808 247 -747 l 122 -808 q 102 -715 122 -747 q 49 -669 82 -682 q -36 -653 15 -657 l -36 -504 z "},"ژ":{"ha":449,"x_min":-61,"x_max":456,"o":"m 158 1065 l 336 1065 l 336 886 l 158 886 l 158 1065 m 38 815 l 215 815 l 215 638 l 38 638 l 38 815 m 278 815 l 456 815 l 456 638 l 278 638 l 278 815 m -61 -226 q 79 -135 38 -169 q 135 -60 121 -100 q 149 57 149 -19 l 149 518 l 349 518 l 349 57 q 319 -135 349 -60 q 219 -269 290 -210 q 14 -394 149 -328 l -61 -226 z "},"ﮋ":{"ha":535,"x_min":-61,"x_max":549,"o":"m 349 1065 l 349 886 l 171 886 l 171 1065 l 349 1065 m 222 815 l 222 638 l 44 638 l 44 815 l 222 815 m 294 638 l 294 815 l 472 815 l 472 638 l 294 638 m 535 210 q 549 196 549 210 l 549 14 q 535 0 549 0 l 413 0 q 347 8 376 0 q 310 -156 342 -89 q 208 -278 278 -224 q 14 -394 139 -333 l -61 -226 q 79 -135 38 -169 q 135 -60 121 -100 q 149 57 149 -19 l 149 518 l 349 518 l 349 275 q 367 228 349 247 q 413 210 385 210 l 535 210 z "},"س":{"ha":1646,"x_min":64,"x_max":1603,"o":"m 1603 560 l 1603 0 l 1353 0 q 1192 71 1253 0 q 1026 -3 1132 -3 q 919 29 960 -3 q 758 -169 868 -94 q 511 -244 649 -244 q 288 -184 390 -244 q 124 -21 185 -124 q 64 203 64 82 l 64 463 l 264 463 l 264 214 q 297 90 264 147 q 388 0 331 33 q 511 -33 444 -33 q 637 0 579 -33 q 728 90 694 33 q 761 214 761 147 l 761 518 l 963 518 l 963 272 q 981 226 963 244 q 1026 207 1000 207 q 1072 226 1054 207 q 1090 272 1090 244 l 1090 518 l 1290 518 l 1290 275 q 1308 228 1290 247 q 1353 210 1326 210 l 1403 210 l 1403 560 l 1603 560 z "},"ﺲ":{"ha":1740,"x_min":64,"x_max":1754,"o":"m 1740 210 q 1754 196 1754 210 l 1754 14 q 1740 0 1754 0 l 1681 0 q 1518 71 1578 0 q 1354 -3 1458 -3 q 1190 69 1251 -3 q 1026 -3 1129 -3 q 919 29 960 -3 q 758 -169 868 -94 q 511 -244 649 -244 q 288 -184 390 -244 q 124 -21 185 -124 q 64 203 64 82 l 64 463 l 264 463 l 264 214 q 297 90 264 147 q 388 0 331 33 q 511 -33 444 -33 q 637 0 579 -33 q 728 90 694 33 q 761 214 761 147 l 761 518 l 963 518 l 963 272 q 981 226 963 244 q 1026 207 1000 207 q 1072 226 1054 207 q 1090 272 1090 244 l 1090 518 l 1290 518 l 1290 272 q 1308 226 1290 244 q 1354 207 1326 207 q 1400 226 1382 207 q 1418 272 1418 244 l 1418 560 l 1617 560 l 1617 275 q 1635 228 1617 247 q 1681 210 1654 210 l 1740 210 z "},"ﺴ":{"ha":1100,"x_min":-14,"x_max":1114,"o":"m 1100 210 q 1114 196 1114 210 l 1114 14 q 1100 0 1114 0 l 1040 0 q 878 71 938 0 q 714 -3 818 -3 q 550 69 611 -3 q 386 -3 489 -3 q 222 71 282 -3 q 58 0 163 0 l 0 0 q -14 14 -14 0 l -14 196 q 0 210 -14 210 l 58 210 q 105 228 86 210 q 124 275 124 247 l 124 518 l 322 518 l 322 272 q 340 226 322 244 q 386 207 358 207 q 432 226 414 207 q 450 272 450 244 l 450 518 l 650 518 l 650 272 q 668 226 650 244 q 714 207 686 207 q 759 226 740 207 q 778 272 778 244 l 778 560 l 976 560 l 976 275 q 994 228 976 247 q 1040 210 1013 210 l 1100 210 z "},"ﺳ":{"ha":1006,"x_min":-14,"x_max":963,"o":"m 963 560 l 963 0 l 713 0 q 551 72 613 0 q 386 -3 492 -3 q 222 71 282 -3 q 58 0 163 0 l 0 0 q -14 14 -14 0 l -14 196 q 0 210 -14 210 l 58 210 q 105 228 86 210 q 124 275 124 247 l 124 518 l 322 518 l 322 272 q 340 226 322 244 q 386 207 358 207 q 432 226 414 207 q 450 272 450 244 l 450 518 l 650 518 l 650 275 q 668 228 650 247 q 713 210 686 210 l 763 210 l 763 560 l 963 560 z "},"ش":{"ha":1646,"x_min":64,"x_max":1603,"o":"m 1282 1061 l 1282 883 l 1103 883 l 1103 1061 l 1282 1061 m 1156 813 l 1156 635 l 976 635 l 976 813 l 1156 813 m 1228 635 l 1228 813 l 1406 813 l 1406 635 l 1228 635 m 1603 560 l 1603 0 l 1353 0 q 1192 71 1253 0 q 1026 -3 1132 -3 q 919 29 960 -3 q 758 -169 868 -94 q 511 -244 649 -244 q 288 -184 390 -244 q 124 -21 185 -124 q 64 203 64 82 l 64 463 l 264 463 l 264 214 q 297 90 264 147 q 388 0 331 33 q 511 -33 444 -33 q 637 0 579 -33 q 728 90 694 33 q 761 214 761 147 l 761 518 l 963 518 l 963 272 q 981 226 963 244 q 1026 207 1000 207 q 1072 226 1054 207 q 1090 272 1090 244 l 1090 518 l 1290 518 l 1290 275 q 1308 228 1290 247 q 1353 210 1326 210 l 1403 210 l 1403 560 l 1603 560 z "},"ﺶ":{"ha":1740,"x_min":64,"x_max":1754,"o":"m 1282 1063 l 1282 883 l 1103 883 l 1103 1063 l 1282 1063 m 1156 813 l 1156 635 l 976 635 l 976 813 l 1156 813 m 1228 635 l 1228 813 l 1406 813 l 1406 635 l 1228 635 m 1740 210 q 1754 196 1754 210 l 1754 14 q 1740 0 1754 0 l 1681 0 q 1518 71 1578 0 q 1354 -3 1458 -3 q 1190 69 1251 -3 q 1026 -3 1129 -3 q 919 29 960 -3 q 758 -169 868 -94 q 511 -244 649 -244 q 288 -184 390 -244 q 124 -21 185 -124 q 64 203 64 82 l 64 463 l 264 463 l 264 214 q 297 90 264 147 q 388 0 331 33 q 511 -33 444 -33 q 637 0 579 -33 q 728 90 694 33 q 761 214 761 147 l 761 518 l 963 518 l 963 272 q 981 226 963 244 q 1026 207 1000 207 q 1072 226 1054 207 q 1090 272 1090 244 l 1090 518 l 1290 518 l 1290 272 q 1308 226 1290 244 q 1354 207 1326 207 q 1400 226 1382 207 q 1418 272 1418 244 l 1418 560 l 1617 560 l 1617 275 q 1635 228 1617 247 q 1681 210 1654 210 l 1740 210 z "},"ﺸ":{"ha":1100,"x_min":-14,"x_max":1114,"o":"m 639 1060 l 639 881 l 461 881 l 461 1060 l 639 1060 m 513 810 l 513 632 l 335 632 l 335 810 l 513 810 m 585 632 l 585 810 l 764 810 l 764 632 l 585 632 m 1100 210 q 1114 196 1114 210 l 1114 14 q 1100 0 1114 0 l 1040 0 q 878 71 938 0 q 714 -3 818 -3 q 550 69 611 -3 q 386 -3 489 -3 q 222 71 282 -3 q 58 0 163 0 l 0 0 q -14 14 -14 0 l -14 196 q 0 210 -14 210 l 58 210 q 105 228 86 210 q 124 275 124 247 l 124 518 l 322 518 l 322 272 q 340 226 322 244 q 386 207 358 207 q 432 226 414 207 q 450 272 450 244 l 450 518 l 650 518 l 650 272 q 668 226 650 244 q 714 207 686 207 q 759 226 740 207 q 778 272 778 244 l 778 560 l 976 560 l 976 275 q 994 228 976 247 q 1040 210 1013 210 l 1100 210 z "},"ﺷ":{"ha":1006,"x_min":-14,"x_max":963,"o":"m 639 1060 l 639 881 l 461 881 l 461 1060 l 639 1060 m 513 810 l 513 632 l 335 632 l 335 810 l 513 810 m 585 632 l 585 810 l 764 810 l 764 632 l 585 632 m 963 560 l 963 0 l 713 0 q 551 72 613 0 q 386 -3 492 -3 q 222 71 282 -3 q 58 0 163 0 l 0 0 q -14 14 -14 0 l -14 196 q 0 210 -14 210 l 58 210 q 105 228 86 210 q 124 275 124 247 l 124 518 l 322 518 l 322 272 q 340 226 322 244 q 386 207 358 207 q 432 226 414 207 q 450 272 450 244 l 450 518 l 650 518 l 650 275 q 668 228 650 247 q 713 210 686 210 l 763 210 l 763 560 l 963 560 z "},"ص":{"ha":1793,"x_min":64,"x_max":1750,"o":"m 1443 618 q 1596 576 1525 618 q 1708 463 1667 535 q 1750 308 1750 392 q 1708 155 1750 226 q 1595 42 1667 83 q 1442 0 1524 0 l 1113 0 q 931 60 1008 0 q 841 -97 903 -28 q 694 -206 779 -167 q 511 -244 608 -244 q 288 -184 390 -244 q 124 -21 185 -124 q 64 203 64 82 l 64 463 l 264 463 l 264 214 q 297 90 264 147 q 388 0 331 33 q 511 -33 444 -33 q 637 0 579 -33 q 728 90 694 33 q 761 214 761 147 l 761 518 l 963 518 l 963 381 l 1253 553 q 1349 603 1310 588 q 1443 618 1389 618 m 1443 210 q 1515 240 1485 210 q 1544 313 1544 271 q 1515 389 1544 357 q 1439 421 1485 421 q 1396 412 1419 421 q 1333 378 1372 403 l 1058 213 q 1082 210 1072 210 l 1443 210 z "},"ﺺ":{"ha":1874,"x_min":64,"x_max":1888,"o":"m 1874 210 q 1888 196 1888 210 l 1888 14 q 1874 0 1888 0 l 1814 0 q 1646 79 1707 0 q 1551 21 1603 42 q 1442 0 1499 0 l 1113 0 q 931 60 1008 0 q 841 -97 903 -28 q 694 -206 779 -167 q 511 -244 608 -244 q 288 -184 390 -244 q 124 -21 185 -124 q 64 203 64 82 l 64 463 l 264 463 l 264 214 q 297 90 264 147 q 388 0 331 33 q 511 -33 444 -33 q 637 0 579 -33 q 728 90 694 33 q 761 214 761 147 l 761 518 l 963 518 l 963 381 l 1253 553 q 1349 603 1310 588 q 1443 618 1389 618 q 1596 576 1525 618 q 1708 463 1667 535 q 1750 308 1750 392 l 1750 307 l 1750 275 q 1769 228 1750 247 q 1814 210 1788 210 l 1874 210 m 1443 210 q 1515 240 1485 210 q 1544 313 1544 271 q 1515 389 1544 357 q 1439 421 1485 421 q 1396 412 1419 421 q 1333 378 1372 403 l 1058 213 q 1082 210 1072 210 l 1443 210 z "},"ﺼ":{"ha":1232,"x_min":-14,"x_max":1246,"o":"m 1232 210 q 1246 196 1246 210 l 1246 14 q 1232 0 1246 0 l 1174 0 q 1006 78 1067 0 q 910 20 963 40 q 801 0 858 0 l 471 0 q 244 104 329 0 q 169 27 217 54 q 58 0 122 0 l 0 0 q -14 14 -14 0 l -14 196 q 0 210 -14 210 l 58 210 q 105 228 86 210 q 124 275 124 247 l 124 518 l 322 518 l 322 381 l 611 553 q 708 603 668 588 q 801 618 749 618 q 956 576 885 618 q 1068 463 1026 535 q 1110 308 1110 392 l 1110 307 l 1110 275 q 1128 228 1110 247 q 1174 210 1146 210 l 1232 210 m 801 210 q 874 240 844 210 q 904 313 904 271 q 874 389 904 357 q 797 421 843 421 q 755 412 778 421 q 693 378 732 403 l 417 213 q 440 210 433 210 l 801 210 z "},"ﺻ":{"ha":1153,"x_min":-14,"x_max":1110,"o":"m 801 618 q 956 576 885 618 q 1068 463 1026 535 q 1110 308 1110 392 q 1068 155 1110 226 q 955 42 1026 83 q 801 0 883 0 l 471 0 q 244 104 329 0 q 169 27 217 54 q 58 0 122 0 l 0 0 q -14 14 -14 0 l -14 196 q 0 210 -14 210 l 58 210 q 105 228 86 210 q 124 275 124 247 l 124 518 l 322 518 l 322 381 l 611 553 q 708 603 668 588 q 801 618 749 618 m 801 210 q 874 240 844 210 q 904 313 904 271 q 874 389 904 357 q 797 421 843 421 q 755 412 778 421 q 693 378 732 403 l 417 213 q 440 210 433 210 l 801 210 z "},"ض":{"ha":1793,"x_min":64,"x_max":1750,"o":"m 1532 904 l 1532 726 l 1354 726 l 1354 904 l 1532 904 m 1443 618 q 1596 576 1525 618 q 1708 463 1667 535 q 1750 308 1750 392 q 1708 155 1750 226 q 1595 42 1667 83 q 1442 0 1524 0 l 1113 0 q 931 60 1008 0 q 841 -97 903 -28 q 694 -206 779 -167 q 511 -244 608 -244 q 288 -184 390 -244 q 124 -21 185 -124 q 64 203 64 82 l 64 463 l 264 463 l 264 214 q 297 90 264 147 q 388 0 331 33 q 511 -33 444 -33 q 637 0 579 -33 q 728 90 694 33 q 761 214 761 147 l 761 518 l 963 518 l 963 381 l 1282 572 q 1360 606 1317 594 q 1443 618 1403 618 m 1443 210 q 1515 240 1485 210 q 1544 313 1544 271 q 1515 388 1544 357 q 1443 419 1485 419 q 1329 383 1396 419 l 1047 215 q 1082 210 1063 210 l 1443 210 z "},"ﺾ":{"ha":1874,"x_min":64,"x_max":1888,"o":"m 1532 904 l 1532 726 l 1353 726 l 1353 904 l 1532 904 m 1874 210 q 1888 196 1888 210 l 1888 14 q 1874 0 1888 0 l 1814 0 q 1646 79 1707 0 q 1551 21 1603 42 q 1442 0 1499 0 l 1113 0 q 931 60 1008 0 q 841 -97 903 -28 q 694 -206 779 -167 q 511 -244 608 -244 q 288 -184 390 -244 q 124 -21 185 -124 q 64 203 64 82 l 64 463 l 264 463 l 264 214 q 297 90 264 147 q 388 0 331 33 q 511 -33 444 -33 q 637 0 579 -33 q 728 90 694 33 q 761 214 761 147 l 761 518 l 963 518 l 963 381 l 1282 572 q 1360 606 1317 594 q 1443 618 1403 618 q 1596 576 1525 618 q 1708 463 1667 535 q 1750 308 1750 392 l 1750 307 l 1750 275 q 1769 228 1750 247 q 1814 210 1788 210 l 1874 210 m 1443 210 q 1515 240 1485 210 q 1544 313 1544 271 q 1515 388 1544 357 q 1443 419 1485 419 q 1329 383 1396 419 l 1047 215 q 1082 210 1063 210 l 1443 210 z "},"ﻀ":{"ha":1232,"x_min":-14,"x_max":1246,"o":"m 889 904 l 889 726 l 711 726 l 711 904 l 889 904 m 1232 210 q 1246 196 1246 210 l 1246 14 q 1232 0 1246 0 l 1174 0 q 1006 78 1067 0 q 910 20 963 40 q 801 0 858 0 l 471 0 q 244 104 329 0 q 169 27 217 54 q 58 0 122 0 l 0 0 q -14 14 -14 0 l -14 196 q 0 210 -14 210 l 58 210 q 105 228 86 210 q 124 275 124 247 l 124 518 l 322 518 l 322 381 l 611 553 q 708 603 668 588 q 801 618 749 618 q 956 576 885 618 q 1068 463 1026 535 q 1110 308 1110 392 l 1110 307 l 1110 275 q 1128 228 1110 247 q 1174 210 1146 210 l 1232 210 m 904 315 q 872 401 904 367 q 793 436 840 436 q 747 426 772 436 q 682 390 722 417 l 396 219 q 440 210 415 210 l 801 210 q 874 241 844 210 q 904 315 904 272 z "},"ﺿ":{"ha":1153,"x_min":-14,"x_max":1110,"o":"m 889 904 l 889 726 l 711 726 l 711 904 l 889 904 m 801 618 q 956 576 885 618 q 1068 463 1026 535 q 1110 308 1110 392 q 1068 155 1110 226 q 955 42 1026 83 q 801 0 883 0 l 471 0 q 244 104 329 0 q 169 27 217 54 q 58 0 122 0 l 0 0 q -14 14 -14 0 l -14 196 q 0 210 -14 210 l 58 210 q 105 228 86 210 q 124 275 124 247 l 124 518 l 322 518 l 322 381 l 611 553 q 708 603 668 588 q 801 618 749 618 m 801 210 q 874 240 844 210 q 904 313 904 271 q 874 389 904 357 q 797 421 843 421 q 756 412 779 421 q 693 378 732 403 l 417 213 q 440 210 433 210 l 801 210 z "},"ط":{"ha":944,"x_min":56,"x_max":901,"o":"m 594 618 q 747 576 676 618 q 860 463 818 535 q 901 308 901 392 q 860 155 901 226 q 747 42 818 83 q 593 0 675 0 l 56 0 l 56 210 l 168 210 l 82 363 l 189 425 l 182 422 q 215 465 207 436 q 224 535 224 494 l 224 936 l 422 936 l 422 703 q 396 549 422 597 l 403 553 q 501 603 461 588 q 594 618 540 618 m 594 210 q 666 240 636 210 q 696 313 696 271 q 665 389 696 357 q 590 421 635 421 q 547 411 571 421 q 485 376 524 401 l 200 210 l 594 210 z "},"ﻂ":{"ha":1024,"x_min":56,"x_max":1038,"o":"m 1024 210 q 1038 196 1038 210 l 1038 14 q 1024 0 1038 0 l 965 0 q 797 79 858 0 q 702 21 754 42 q 593 0 650 0 l 56 0 l 56 210 l 168 210 l 82 363 l 189 425 l 182 422 q 215 465 207 436 q 224 535 224 494 l 224 936 l 422 936 l 422 703 q 396 549 422 597 l 403 553 q 501 603 461 588 q 594 618 540 618 q 747 576 676 618 q 860 463 818 535 q 901 308 901 392 l 901 275 q 919 228 901 247 q 965 210 938 210 l 1024 210 m 594 210 q 666 240 636 210 q 696 313 696 271 q 665 389 696 357 q 590 421 635 421 q 547 411 571 421 q 485 376 524 401 l 200 210 l 594 210 z "},"ﻄ":{"ha":1000,"x_min":-14,"x_max":1014,"o":"m 1000 210 q 1014 196 1014 210 l 1014 14 q 1000 0 1014 0 l 942 0 q 774 78 835 0 q 678 20 731 40 q 569 0 626 0 l 0 0 q -14 14 -14 0 l -14 196 q 0 210 -14 210 l 118 210 l 58 363 l 175 432 l 160 422 q 191 465 183 438 q 199 535 199 493 l 199 936 l 399 936 l 399 703 q 372 549 399 589 l 379 553 q 476 603 436 588 q 569 618 517 618 q 724 576 653 618 q 836 463 794 535 q 878 308 878 392 l 878 275 q 896 228 878 247 q 942 210 914 210 l 1000 210 m 160 422 l 158 422 l 160 422 m 569 210 q 642 240 613 210 q 672 313 672 271 q 642 389 672 357 q 565 421 611 421 q 523 411 547 421 q 461 376 499 401 l 179 210 l 569 210 z "},"ﻃ":{"ha":921,"x_min":-14,"x_max":878,"o":"m 569 618 q 724 576 653 618 q 836 463 794 535 q 878 308 878 392 q 836 155 878 226 q 723 42 794 83 q 569 0 651 0 l 0 0 q -14 14 -14 0 l -14 196 q 0 210 -14 210 l 118 210 l 58 363 l 175 432 l 160 422 q 191 465 183 438 q 199 535 199 493 l 199 936 l 399 936 l 399 703 q 372 549 399 589 l 379 553 q 476 603 436 588 q 569 618 517 618 m 160 422 l 158 422 l 160 422 m 569 210 q 642 240 613 210 q 672 313 672 271 q 642 389 672 357 q 565 421 611 421 q 523 411 547 421 q 461 376 499 401 l 179 210 l 569 210 z "},"ظ":{"ha":944,"x_min":56,"x_max":901,"o":"m 594 618 q 747 576 676 618 q 860 463 818 535 q 901 308 901 392 q 860 155 901 226 q 747 42 818 83 q 593 0 675 0 l 56 0 l 56 210 l 143 210 l 82 363 l 199 432 l 183 422 q 216 466 208 438 q 224 535 224 494 l 224 936 l 422 936 l 422 703 q 396 549 422 589 l 403 553 q 501 603 461 588 q 594 618 540 618 m 701 904 l 701 726 l 522 726 l 522 904 l 701 904 m 183 422 l 182 422 l 183 422 m 594 210 q 666 240 636 210 q 696 313 696 271 q 665 389 696 357 q 590 421 635 421 q 547 411 571 421 q 485 376 524 401 l 203 210 l 594 210 z "},"ﻆ":{"ha":1024,"x_min":56,"x_max":1038,"o":"m 1024 210 q 1038 196 1038 210 l 1038 14 q 1024 0 1038 0 l 965 0 q 797 79 858 0 q 702 21 754 42 q 593 0 650 0 l 56 0 l 56 210 l 143 210 l 82 363 l 199 432 l 183 422 q 216 466 208 438 q 224 535 224 494 l 224 936 l 422 936 l 422 703 q 396 549 422 589 l 403 553 q 501 603 461 588 q 594 618 540 618 q 747 576 676 618 q 860 463 818 535 q 901 308 901 392 l 901 275 q 919 228 901 247 q 965 210 938 210 l 1024 210 m 701 904 l 701 726 l 522 726 l 522 904 l 701 904 m 183 422 l 182 422 l 183 422 m 594 210 q 666 240 636 210 q 696 313 696 271 q 665 389 696 357 q 590 421 635 421 q 547 411 571 421 q 485 376 524 401 l 203 210 l 594 210 z "},"ﻈ":{"ha":1000,"x_min":-14,"x_max":1014,"o":"m 1000 210 q 1014 196 1014 210 l 1014 14 q 1000 0 1014 0 l 942 0 q 774 78 835 0 q 678 20 731 40 q 569 0 626 0 l 0 0 q -14 14 -14 0 l -14 196 q 0 210 -14 210 l 118 210 l 58 363 l 175 432 l 160 422 q 191 465 183 438 q 199 535 199 493 l 199 936 l 399 936 l 399 703 q 372 549 399 589 l 379 553 q 476 603 436 588 q 569 618 517 618 q 724 576 653 618 q 836 463 794 535 q 878 308 878 392 l 878 275 q 896 228 878 247 q 942 210 914 210 l 1000 210 m 678 904 l 678 726 l 499 726 l 499 904 l 678 904 m 160 422 l 158 422 l 160 422 m 569 210 q 642 240 613 210 q 672 313 672 271 q 642 389 672 357 q 565 421 611 421 q 523 411 547 421 q 461 376 499 401 l 179 210 l 569 210 z "},"ﻇ":{"ha":921,"x_min":-14,"x_max":878,"o":"m 569 618 q 724 576 653 618 q 836 463 794 535 q 878 308 878 392 q 836 155 878 226 q 723 42 794 83 q 569 0 651 0 l 0 0 q -14 14 -14 0 l -14 196 q 0 210 -14 210 l 118 210 l 58 363 l 175 432 l 160 422 q 191 465 183 438 q 199 535 199 493 l 199 936 l 399 936 l 399 703 q 372 549 399 589 l 379 553 q 476 603 436 588 q 569 618 517 618 m 679 904 l 679 726 l 501 726 l 501 904 l 679 904 m 160 422 l 158 422 l 160 422 m 569 210 q 642 240 613 210 q 672 313 672 271 q 642 389 672 357 q 565 421 611 421 q 523 411 547 421 q 461 376 499 401 l 179 210 l 569 210 z "},"ع":{"ha":763,"x_min":61,"x_max":719,"o":"m 719 -394 l 719 -604 l 467 -604 q 264 -550 357 -604 q 116 -403 171 -496 q 61 -200 61 -310 q 112 -14 61 -94 q 250 113 163 67 q 175 203 201 150 q 149 321 149 257 q 192 478 149 408 q 310 589 235 549 q 474 629 385 629 l 626 629 l 626 433 l 474 433 q 390 402 422 433 q 358 322 358 371 q 390 240 358 271 q 474 210 422 210 l 663 210 l 663 0 l 467 0 q 369 -26 414 0 q 297 -99 324 -53 q 271 -197 271 -144 q 297 -297 271 -251 q 369 -368 324 -342 q 467 -394 414 -394 l 719 -394 z "},"ﻊ":{"ha":869,"x_min":64,"x_max":883,"o":"m 869 210 q 883 196 883 210 l 883 14 q 869 0 883 0 l 469 0 q 372 -26 417 0 q 300 -99 326 -53 q 274 -197 274 -144 q 300 -297 274 -251 q 372 -368 326 -342 q 469 -394 417 -394 l 722 -394 l 722 -604 l 469 -604 q 267 -550 360 -604 q 119 -403 174 -496 q 64 -200 64 -310 q 113 -17 64 -97 q 246 110 161 63 q 176 202 201 147 q 151 325 151 257 l 151 392 l 65 392 l 65 590 l 799 590 l 799 325 q 776 210 799 260 l 869 210 m 349 304 q 375 237 349 264 q 440 210 401 210 l 510 210 q 576 237 550 210 q 601 304 601 264 l 601 392 l 349 392 l 349 304 z "},"ﻌ":{"ha":868,"x_min":-14,"x_max":882,"o":"m 868 210 q 882 196 882 210 l 882 14 q 868 0 882 0 l 0 0 q -14 14 -14 0 l -14 196 q 0 210 -14 210 l 164 210 q 142 325 142 260 l 142 392 l 56 392 l 56 590 l 789 590 l 789 325 q 767 210 789 260 l 868 210 m 339 304 q 365 237 339 264 q 431 210 392 210 l 500 210 q 566 237 540 210 q 592 304 592 264 l 592 392 l 339 392 l 339 304 z "},"ﻋ":{"ha":647,"x_min":-14,"x_max":604,"o":"m 604 210 l 604 0 l 0 0 q -14 14 -14 0 l -14 196 q 0 210 -14 210 l 101 210 q 78 321 78 261 q 121 478 78 408 q 239 589 164 549 q 403 629 314 629 l 556 629 l 556 433 l 403 433 q 321 402 353 433 q 289 322 289 371 q 321 241 289 272 q 403 210 353 210 l 604 210 z "},"غ":{"ha":763,"x_min":61,"x_max":719,"o":"m 547 919 l 547 742 l 369 742 l 369 919 l 547 919 m 719 -394 l 719 -604 l 467 -604 q 264 -550 357 -604 q 116 -403 171 -496 q 61 -200 61 -310 q 112 -14 61 -94 q 250 113 163 67 q 175 203 201 150 q 149 321 149 257 q 192 478 149 408 q 310 589 235 549 q 474 629 385 629 l 626 629 l 626 433 l 474 433 q 390 402 422 433 q 358 322 358 371 q 390 240 358 271 q 474 210 422 210 l 663 210 l 663 0 l 467 0 q 369 -26 414 0 q 297 -99 324 -53 q 271 -197 271 -144 q 297 -297 271 -251 q 369 -368 324 -342 q 467 -394 414 -394 l 719 -394 z "},"ﻎ":{"ha":869,"x_min":64,"x_max":883,"o":"m 563 888 l 563 710 l 385 710 l 385 888 l 563 888 m 869 210 q 883 196 883 210 l 883 14 q 869 0 883 0 l 469 0 q 372 -26 417 0 q 300 -99 326 -53 q 274 -197 274 -144 q 300 -297 274 -251 q 372 -368 326 -342 q 469 -394 417 -394 l 722 -394 l 722 -604 l 469 -604 q 267 -550 360 -604 q 119 -403 174 -496 q 64 -200 64 -310 q 113 -17 64 -97 q 246 110 161 63 q 176 202 201 147 q 151 325 151 257 l 151 392 l 65 392 l 65 590 l 799 590 l 799 325 q 776 210 799 260 l 869 210 m 349 304 q 375 237 349 264 q 440 210 401 210 l 510 210 q 576 237 550 210 q 601 304 601 264 l 601 392 l 349 392 l 349 304 z "},"ﻐ":{"ha":868,"x_min":-14,"x_max":882,"o":"m 557 888 l 557 710 l 379 710 l 379 888 l 557 888 m 868 210 q 882 196 882 210 l 882 14 q 868 0 882 0 l 0 0 q -14 14 -14 0 l -14 196 q 0 210 -14 210 l 164 210 q 142 325 142 260 l 142 392 l 56 392 l 56 590 l 789 590 l 789 325 q 767 210 789 260 l 868 210 m 339 304 q 365 237 339 264 q 431 210 392 210 l 500 210 q 566 237 540 210 q 592 304 592 264 l 592 392 l 339 392 l 339 304 z "},"ﻏ":{"ha":647,"x_min":-14,"x_max":604,"o":"m 483 919 l 483 742 l 304 742 l 304 919 l 483 919 m 604 210 l 604 0 l 0 0 q -14 14 -14 0 l -14 196 q 0 210 -14 210 l 101 210 q 78 321 78 261 q 121 478 78 408 q 239 589 164 549 q 403 629 314 629 l 556 629 l 556 433 l 403 433 q 321 402 353 433 q 289 322 289 371 q 321 241 289 272 q 403 210 353 210 l 604 210 z "},"ف":{"ha":1192,"x_min":64,"x_max":1149,"o":"m 794 1125 l 972 1125 l 972 947 l 794 947 l 794 1125 m 415 0 q 239 47 319 0 q 111 175 158 94 q 64 351 64 256 l 64 518 l 264 518 l 264 363 q 308 255 264 300 q 415 210 353 210 l 886 210 q 931 228 914 210 q 949 274 949 246 l 949 288 l 883 288 q 742 323 807 288 q 640 419 678 358 q 601 554 601 481 q 640 697 601 632 q 744 800 679 763 q 883 838 808 838 q 1019 800 958 838 q 1114 697 1079 763 q 1149 554 1149 632 l 1149 263 q 1114 131 1149 192 q 1019 35 1079 71 q 888 0 960 0 l 415 0 m 961 561 q 936 622 961 597 q 876 647 911 647 q 814 622 839 647 q 789 561 789 597 q 814 498 789 524 q 876 472 839 472 l 961 472 l 961 561 z "},"ﻒ":{"ha":1242,"x_min":64,"x_max":1256,"o":"m 985 890 l 985 713 l 806 713 l 806 890 l 985 890 m 1242 210 q 1256 196 1256 210 l 1256 14 q 1242 0 1256 0 l 415 0 q 239 47 319 0 q 111 175 158 94 q 64 351 64 256 l 64 518 l 264 518 l 264 363 q 308 255 264 300 q 415 210 353 210 l 608 210 q 592 308 592 256 q 633 459 592 392 q 743 565 674 526 q 896 604 813 604 q 1049 565 979 604 q 1159 459 1118 526 q 1200 308 1200 392 q 1183 210 1200 256 l 1242 210 m 803 301 q 829 236 803 263 q 896 210 856 210 q 963 236 936 210 q 990 301 990 263 q 963 367 990 340 q 896 393 936 393 q 829 367 856 393 q 803 301 803 340 z "},"ﻔ":{"ha":711,"x_min":-14,"x_max":725,"o":"m 444 890 l 444 713 l 267 713 l 267 890 l 444 890 m 711 210 q 725 196 725 210 l 725 14 q 711 0 725 0 l 0 0 q -14 14 -14 0 l -14 196 q 0 210 -14 210 l 67 210 q 50 308 50 256 q 91 459 50 392 q 202 565 132 526 q 356 604 272 604 q 508 565 439 604 q 619 459 578 526 q 660 308 660 392 q 643 210 660 256 l 711 210 m 261 301 q 288 236 261 263 q 356 210 315 210 q 422 236 396 210 q 449 301 449 263 q 422 367 449 340 q 356 393 396 393 q 288 367 315 393 q 261 301 261 340 z "},"ﻓ":{"ha":644,"x_min":-14,"x_max":601,"o":"m 247 1124 l 426 1124 l 426 946 l 247 946 l 247 1124 m 0 0 q -14 14 -14 0 l -14 196 q 0 210 -14 210 l 339 210 q 385 228 367 210 q 403 274 403 246 l 403 288 l 336 288 q 195 323 260 288 q 92 419 131 358 q 54 554 54 481 q 93 697 54 632 q 197 799 132 761 q 336 838 261 838 q 472 800 411 838 q 567 697 532 763 q 601 554 601 632 l 601 263 q 567 131 601 192 q 472 35 532 71 q 340 0 413 0 l 0 0 m 415 561 q 390 622 415 597 q 329 647 365 647 q 267 622 292 647 q 242 561 242 597 q 267 498 242 524 q 329 472 292 472 l 415 472 l 415 561 z "},"ڤ":{"ha":1192,"x_min":64,"x_max":1149,"o":"m 793 1374 l 972 1374 l 972 1194 l 793 1194 l 793 1374 m 667 1124 l 846 1124 l 846 946 l 667 946 l 667 1124 m 918 1124 l 1096 1124 l 1096 946 l 918 946 l 918 1124 m 415 0 q 239 47 319 0 q 111 175 158 94 q 64 351 64 256 l 64 518 l 264 518 l 264 363 q 308 255 264 300 q 415 210 353 210 l 886 210 q 931 228 914 210 q 949 274 949 246 l 949 288 l 883 288 q 742 323 807 288 q 640 419 678 358 q 601 554 601 481 q 640 697 601 632 q 744 800 679 763 q 883 838 808 838 q 1019 800 958 838 q 1114 697 1079 763 q 1149 554 1149 632 l 1149 263 q 1114 131 1149 192 q 1019 35 1079 71 q 888 0 960 0 l 415 0 m 961 472 l 961 561 q 936 622 961 597 q 876 647 911 647 q 814 622 839 647 q 789 561 789 597 q 814 498 789 524 q 876 472 839 472 l 961 472 z "},"ﭫ":{"ha":1242,"x_min":64,"x_max":1256,"o":"m 989 1139 l 989 961 l 811 961 l 811 1139 l 989 1139 m 863 890 l 863 713 l 683 713 l 683 890 l 863 890 m 935 713 l 935 890 l 1113 890 l 1113 713 l 935 713 m 1242 210 q 1256 196 1256 210 l 1256 14 q 1242 0 1256 0 l 415 0 q 239 47 319 0 q 111 175 158 94 q 64 351 64 256 l 64 518 l 264 518 l 264 363 q 308 255 264 300 q 415 210 353 210 l 608 210 q 592 308 592 256 q 633 459 592 392 q 743 565 674 526 q 896 604 813 604 q 1049 565 979 604 q 1159 459 1118 526 q 1200 308 1200 392 q 1183 210 1200 256 l 1242 210 m 803 301 q 829 236 803 263 q 896 210 856 210 q 963 236 936 210 q 990 301 990 263 q 963 367 990 340 q 896 393 936 393 q 829 367 856 393 q 803 301 803 340 z "},"ﭭ":{"ha":682,"x_min":-14,"x_max":696,"o":"m 435 1139 l 435 961 l 257 961 l 257 1139 l 435 1139 m 308 890 l 308 713 l 129 713 l 129 890 l 308 890 m 381 713 l 381 890 l 558 890 l 558 713 l 381 713 m 682 210 q 696 196 696 210 l 696 14 q 682 0 696 0 l 0 0 q -14 14 -14 0 l -14 196 q 0 210 -14 210 l 57 210 q 40 308 40 256 q 81 459 40 392 q 192 565 122 526 q 344 604 261 604 q 497 565 428 604 q 608 459 567 526 q 649 308 649 392 q 632 210 649 256 l 682 210 m 250 301 q 277 236 250 263 q 344 210 304 210 q 411 235 385 210 q 438 301 438 261 q 411 367 438 342 q 344 393 385 393 q 277 367 304 393 q 250 301 250 340 z "},"ﭬ":{"ha":644,"x_min":-14,"x_max":601,"o":"m 253 1375 l 431 1375 l 431 1197 l 253 1197 l 253 1375 m 126 1126 l 304 1126 l 304 949 l 126 949 l 126 1126 m 376 1126 l 556 1126 l 556 949 l 376 949 l 376 1126 m 0 0 q -14 14 -14 0 l -14 196 q 0 210 -14 210 l 339 210 q 385 228 367 210 q 403 274 403 246 l 403 288 l 336 288 q 195 323 260 288 q 92 419 131 358 q 54 554 54 481 q 93 697 54 632 q 197 799 132 761 q 336 838 261 838 q 472 800 411 838 q 567 697 532 763 q 601 554 601 632 l 601 263 q 567 131 601 192 q 472 35 532 71 q 340 0 413 0 l 0 0 m 415 472 l 415 561 q 390 622 415 597 q 329 647 365 647 q 267 622 292 647 q 242 561 242 597 q 267 498 242 524 q 329 472 292 472 l 415 472 z "},"ڡ":{"ha":1192,"x_min":64,"x_max":1149,"o":"m 415 0 q 239 47 319 0 q 111 175 158 94 q 64 351 64 256 l 64 518 l 264 518 l 264 363 q 308 255 264 300 q 415 210 353 210 l 886 210 q 931 228 914 210 q 949 274 949 246 l 949 288 l 883 288 q 742 323 807 288 q 640 419 678 358 q 601 554 601 481 q 640 697 601 632 q 744 800 679 763 q 883 838 808 838 q 1019 800 958 838 q 1114 697 1079 763 q 1149 554 1149 632 l 1149 263 q 1114 131 1149 192 q 1019 35 1079 71 q 888 0 960 0 l 415 0 m 961 561 q 936 622 961 597 q 876 647 911 647 q 814 622 839 647 q 789 561 789 597 q 814 498 789 524 q 876 472 839 472 l 961 472 l 961 561 z "},"ٯ":{"ha":1010,"x_min":64,"x_max":958,"o":"m 669 593 q 817 552 751 593 q 921 442 883 511 q 958 289 958 372 l 958 -1 q 899 -225 958 -122 q 736 -388 839 -328 q 511 -449 633 -449 q 288 -388 390 -449 q 124 -225 185 -328 q 64 -1 64 -122 l 64 258 l 264 258 l 264 10 q 297 -114 264 -57 q 388 -205 331 -171 q 511 -239 444 -239 q 634 -206 578 -239 q 724 -119 690 -174 q 761 0 758 -64 l 669 0 q 517 38 586 0 q 406 141 447 75 q 365 289 365 207 q 406 441 365 371 q 517 552 447 511 q 669 593 588 593 m 761 300 q 735 367 761 340 q 669 394 708 394 q 602 367 629 394 q 575 300 575 340 q 602 235 575 261 q 669 210 629 210 l 761 210 l 761 300 z "},"ق":{"ha":1010,"x_min":64,"x_max":958,"o":"m 633 890 l 633 713 l 456 713 l 456 890 l 633 890 m 883 890 l 883 713 l 706 713 l 706 890 l 883 890 m 669 593 q 817 552 751 593 q 921 442 883 511 q 958 289 958 372 l 958 -1 q 899 -225 958 -122 q 736 -388 839 -328 q 511 -449 633 -449 q 288 -388 390 -449 q 124 -225 185 -328 q 64 -1 64 -122 l 64 258 l 264 258 l 264 10 q 297 -114 264 -57 q 388 -205 331 -171 q 511 -239 444 -239 q 634 -206 578 -239 q 724 -119 690 -174 q 761 0 758 -64 l 669 0 q 517 38 586 0 q 406 141 447 75 q 365 289 365 207 q 406 441 365 371 q 517 552 447 511 q 669 593 588 593 m 761 300 q 735 367 761 340 q 669 394 708 394 q 602 367 629 394 q 575 300 575 340 q 602 235 575 261 q 669 210 629 210 l 761 210 l 761 300 z "},"ﻖ":{"ha":1013,"x_min":64,"x_max":1026,"o":"m 633 890 l 633 713 l 456 713 l 456 890 l 633 890 m 883 890 l 883 713 l 706 713 l 706 890 l 883 890 m 1013 210 q 1026 196 1026 210 l 1026 14 q 1013 0 1026 0 l 958 0 l 958 -1 q 899 -225 958 -122 q 736 -388 839 -328 q 511 -449 633 -449 q 288 -388 390 -449 q 124 -225 185 -328 q 64 -1 64 -122 l 64 258 l 264 258 l 264 10 q 297 -114 264 -57 q 388 -205 331 -171 q 511 -239 444 -239 q 634 -206 578 -239 q 724 -119 690 -174 q 761 0 758 -64 l 669 0 q 517 38 586 0 q 406 141 447 75 q 365 289 365 207 q 406 441 365 371 q 517 552 447 511 q 669 593 588 593 q 817 552 751 593 q 921 442 883 511 q 958 289 958 372 l 958 210 l 1013 210 m 761 300 q 735 367 761 340 q 669 394 708 394 q 602 367 629 394 q 575 300 575 340 q 602 235 575 261 q 669 210 629 210 l 761 210 l 761 300 z "},"ﻘ":{"ha":682,"x_min":-14,"x_max":696,"o":"m 306 901 l 306 722 l 128 722 l 128 901 l 306 901 m 557 901 l 557 722 l 378 722 l 378 901 l 557 901 m 682 210 q 696 196 696 210 l 696 14 q 682 0 696 0 l 0 0 q -14 14 -14 0 l -14 196 q 0 210 -14 210 l 57 210 q 40 308 40 256 q 81 459 40 392 q 192 565 122 526 q 344 604 261 604 q 497 565 428 604 q 608 459 567 526 q 649 308 649 392 q 632 210 649 256 l 682 210 m 250 301 q 277 236 250 263 q 344 210 304 210 q 411 235 385 210 q 438 301 438 261 q 411 367 438 342 q 344 393 385 393 q 277 367 304 393 q 250 301 250 340 z "},"ﻗ":{"ha":644,"x_min":-14,"x_max":601,"o":"m 122 1135 l 300 1135 l 300 957 l 122 957 l 122 1135 m 372 1135 l 550 1135 l 550 957 l 372 957 l 372 1135 m 0 0 q -14 14 -14 0 l -14 196 q 0 210 -14 210 l 339 210 q 385 228 367 210 q 403 274 403 246 l 403 288 l 336 288 q 195 323 260 288 q 92 419 131 358 q 54 554 54 481 q 93 697 54 632 q 197 799 132 761 q 336 838 261 838 q 472 800 411 838 q 567 697 532 763 q 601 554 601 632 l 601 263 q 567 131 601 192 q 472 35 532 71 q 340 0 413 0 l 0 0 m 415 561 q 390 622 415 597 q 329 647 365 647 q 267 622 292 647 q 242 561 242 597 q 267 498 242 524 q 329 472 292 472 l 415 472 l 415 561 z "},"ك":{"ha":1199,"x_min":64,"x_max":1149,"o":"m 626 561 q 649 588 649 568 q 643 610 649 603 q 624 621 638 618 l 422 672 l 369 765 l 654 974 l 719 863 l 589 767 l 635 754 q 769 650 746 725 q 781 586 781 617 q 749 485 781 531 q 664 421 718 440 l 483 354 l 433 492 l 626 561 m 415 0 q 239 47 319 0 q 111 175 158 94 q 64 351 64 256 l 64 518 l 264 518 l 264 363 q 308 255 264 300 q 415 210 353 210 l 857 210 q 923 237 897 210 q 949 304 949 264 l 949 922 l 1149 922 l 1149 304 q 1110 151 1149 221 q 1006 41 1072 82 q 857 0 939 0 l 415 0 z "},"ﻚ":{"ha":1271,"x_min":64,"x_max":1285,"o":"m 433 672 l 381 765 l 665 974 l 731 863 l 600 767 l 646 754 q 781 650 754 725 q 792 586 792 617 q 760 485 792 531 q 674 421 729 440 l 494 354 l 443 492 l 638 561 q 660 590 660 568 q 633 621 660 617 l 433 672 m 1271 210 q 1285 196 1285 210 l 1285 14 q 1271 0 1285 0 l 1213 0 q 1119 19 1161 0 q 1050 72 1078 38 q 857 0 967 0 l 415 0 q 239 47 319 0 q 111 175 158 94 q 64 351 64 256 l 64 518 l 264 518 l 264 363 q 308 255 264 300 q 415 210 353 210 l 857 210 q 923 237 897 210 q 949 304 949 264 l 949 922 l 1151 922 l 1151 304 q 1149 267 1151 292 q 1169 226 1151 242 q 1213 210 1188 210 l 1271 210 z "},"ﻜ":{"ha":726,"x_min":-14,"x_max":740,"o":"m 726 210 q 740 196 740 210 l 740 14 q 726 0 740 0 l 667 0 q 503 74 563 0 q 414 19 464 39 q 310 0 364 0 l 0 0 q -14 14 -14 0 l -14 196 q 0 210 -14 210 l 313 210 q 376 235 350 210 q 403 301 403 260 q 356 381 403 351 l 42 588 l 42 739 l 318 1033 l 456 904 l 249 689 l 479 538 q 570 437 538 500 q 603 297 603 374 l 603 275 q 621 228 603 247 q 667 210 639 210 l 726 210 z "},"ﻛ":{"ha":646,"x_min":-14,"x_max":603,"o":"m -14 196 q 0 210 -14 210 l 313 210 q 376 235 350 210 q 403 301 403 260 q 356 381 403 351 l 42 588 l 42 739 l 318 1033 l 456 904 l 249 689 l 479 538 q 570 437 538 500 q 603 297 603 374 q 563 149 603 217 q 457 40 524 81 q 310 0 390 0 l 0 0 q -14 14 -14 0 l -14 196 z "},"ک":{"ha":1192,"x_min":64,"x_max":1149,"o":"m 415 0 q 239 47 319 0 q 111 175 158 94 q 64 351 64 256 l 64 517 l 264 517 l 264 363 q 308 255 264 300 q 415 210 353 210 l 857 210 q 922 235 894 210 q 949 301 949 260 q 900 381 949 351 l 588 588 l 588 739 l 864 1033 l 1000 904 l 794 689 l 1025 538 q 1116 437 1083 500 q 1149 297 1149 374 q 1109 149 1149 217 q 1003 40 1069 81 q 856 0 936 0 l 415 0 z "},"ﮏ":{"ha":1271,"x_min":64,"x_max":1285,"o":"m 1271 210 q 1285 196 1285 210 l 1285 14 q 1271 0 1285 0 l 1213 0 q 1049 74 1108 0 q 960 19 1010 39 q 856 0 910 0 l 415 0 q 239 47 319 0 q 111 175 158 94 q 64 351 64 256 l 64 517 l 264 517 l 264 363 q 308 255 264 300 q 415 210 353 210 l 857 210 q 922 235 894 210 q 949 301 949 260 q 900 381 949 351 l 588 588 l 588 739 l 864 1033 l 1000 904 l 794 689 l 1025 538 q 1116 437 1083 500 q 1149 297 1149 374 l 1149 275 q 1165 228 1147 247 q 1213 210 1183 210 l 1271 210 z "},"ﮑ":{"ha":726,"x_min":-14,"x_max":740,"o":"m 726 210 q 740 196 740 210 l 740 14 q 726 0 740 0 l 667 0 q 503 74 563 0 q 414 19 464 39 q 310 0 364 0 l 0 0 q -14 14 -14 0 l -14 196 q 0 210 -14 210 l 313 210 q 376 235 350 210 q 403 301 403 260 q 356 381 403 351 l 42 588 l 42 739 l 318 1033 l 456 904 l 249 689 l 479 538 q 570 437 538 500 q 603 297 603 374 l 603 275 q 621 228 603 247 q 667 210 639 210 l 726 210 z "},"ﮐ":{"ha":646,"x_min":-14,"x_max":603,"o":"m -14 196 q 0 210 -14 210 l 313 210 q 376 235 350 210 q 403 301 403 260 q 356 381 403 351 l 42 588 l 42 739 l 318 1033 l 456 904 l 249 689 l 479 538 q 570 437 538 500 q 603 297 603 374 q 563 149 603 217 q 457 40 524 81 q 310 0 390 0 l 0 0 q -14 14 -14 0 l -14 196 z "},"گ":{"ha":1192,"x_min":64,"x_max":1149,"o":"m 438 860 l 682 1118 l 778 1021 l 533 763 l 438 860 m 415 0 q 239 47 319 0 q 111 175 158 94 q 64 351 64 256 l 64 517 l 264 517 l 264 363 q 308 255 264 300 q 415 210 353 210 l 857 210 q 922 235 894 210 q 949 301 949 260 q 900 381 949 351 l 588 588 l 588 739 l 864 1033 l 1000 904 l 794 689 l 1025 538 q 1116 437 1083 500 q 1149 297 1149 374 q 1109 149 1149 217 q 1003 40 1069 81 q 856 0 936 0 l 415 0 z "},"ﮓ":{"ha":1271,"x_min":64,"x_max":1285,"o":"m 778 1021 l 533 763 l 438 860 l 682 1118 l 778 1021 m 1271 210 q 1285 196 1285 210 l 1285 14 q 1271 0 1285 0 l 1213 0 q 1049 74 1108 0 q 960 19 1010 39 q 856 0 910 0 l 415 0 q 239 47 319 0 q 111 175 158 94 q 64 351 64 256 l 64 517 l 264 517 l 264 361 q 308 254 264 299 q 415 210 353 210 l 857 210 q 922 235 894 210 q 949 301 949 260 q 900 381 949 351 l 588 588 l 588 739 l 864 1033 l 1000 904 l 794 689 l 1025 538 q 1116 437 1083 500 q 1149 297 1149 374 l 1149 275 q 1165 228 1147 247 q 1213 210 1183 210 l 1271 210 z "},"ﮕ":{"ha":854,"x_min":-14,"x_max":868,"o":"m 361 1021 l 117 763 l 21 860 l 265 1118 l 361 1021 m 854 210 q 868 196 868 210 l 868 14 q 854 0 868 0 l 796 0 q 632 74 692 0 q 543 19 593 39 q 439 0 493 0 l 0 0 q -14 14 -14 0 l -14 196 q 0 210 -14 210 l 442 210 q 506 235 479 210 q 532 301 532 260 q 485 381 532 351 l 169 588 l 169 739 l 447 1033 l 583 904 l 378 689 l 608 538 q 699 437 667 500 q 732 297 732 374 l 732 275 q 749 228 731 247 q 796 210 768 210 l 854 210 z "},"ﮔ":{"ha":775,"x_min":-14,"x_max":732,"o":"m 21 860 l 265 1118 l 361 1021 l 117 763 l 21 860 m 0 0 q -14 14 -14 0 l -14 196 q 0 210 -14 210 l 442 210 q 506 235 479 210 q 532 301 532 260 q 485 381 532 351 l 169 588 l 169 739 l 447 1033 l 583 904 l 378 689 l 608 538 q 699 437 667 500 q 732 297 732 374 q 692 149 732 217 q 586 40 653 81 q 439 0 519 0 l 0 0 z "},"ل":{"ha":1013,"x_min":64,"x_max":961,"o":"m 511 -244 q 288 -184 390 -244 q 124 -21 185 -124 q 64 203 64 82 l 64 463 l 264 463 l 264 214 q 297 90 264 147 q 388 0 331 33 q 511 -33 444 -33 q 637 0 579 -33 q 728 90 694 33 q 761 214 761 147 l 761 936 l 961 936 l 961 203 q 901 -21 961 82 q 737 -184 840 -124 q 511 -244 633 -244 z "},"ﻞ":{"ha":1086,"x_min":64,"x_max":1100,"o":"m 1086 210 q 1100 196 1100 210 l 1100 14 q 1086 0 1100 0 l 1026 0 q 921 31 963 0 q 759 -169 869 -93 q 511 -244 649 -244 q 288 -184 390 -244 q 124 -21 185 -124 q 64 203 64 82 l 64 463 l 264 463 l 264 214 q 297 90 264 147 q 388 0 331 33 q 511 -33 444 -33 q 637 0 579 -33 q 728 90 694 33 q 761 214 761 147 l 761 936 l 963 936 l 963 275 q 981 228 963 247 q 1026 210 1000 210 l 1086 210 z "},"ﻠ":{"ha":446,"x_min":-14,"x_max":460,"o":"m 0 0 q -14 14 -14 0 l -14 196 q 0 210 -14 210 l 58 210 q 105 228 86 210 q 124 275 124 247 l 124 936 l 322 936 l 322 275 q 340 228 322 247 q 386 210 358 210 l 446 210 q 460 196 460 210 l 460 14 q 446 0 460 0 l 386 0 q 292 21 333 0 q 222 78 250 42 q 153 21 196 42 q 58 0 111 0 l 0 0 z "},"ﻟ":{"ha":368,"x_min":-14,"x_max":315,"o":"m 0 0 q -14 14 -14 0 l -14 196 q 0 210 -14 210 l 53 210 q 98 229 79 210 q 117 275 117 249 l 117 936 l 315 936 l 315 263 q 281 131 315 192 q 186 35 246 71 q 54 0 126 0 l 0 0 z "},"ڵ":{"ha":1076,"x_min":64,"x_max":1078,"o":"m 638 1326 q 798 1293 739 1328 q 858 1186 857 1258 q 917 1293 860 1258 q 1078 1326 975 1328 l 1078 1178 q 994 1161 1026 1174 q 941 1116 961 1149 q 921 1022 921 1083 l 796 1022 q 776 1116 796 1083 q 722 1161 756 1149 q 638 1178 689 1174 l 638 1326 m 511 -244 q 288 -184 390 -244 q 124 -21 185 -124 q 64 203 64 82 l 64 463 l 264 463 l 264 214 q 297 90 264 147 q 388 0 331 33 q 511 -33 444 -33 q 637 0 579 -33 q 728 90 694 33 q 761 214 761 147 l 761 936 l 961 936 l 961 203 q 901 -21 961 82 q 737 -184 840 -124 q 511 -244 633 -244 z "},"م":{"ha":1013,"x_min":64,"x_max":969,"o":"m 64 306 q 102 447 64 382 q 206 551 140 513 q 347 590 271 590 l 665 590 q 818 553 749 590 q 928 449 888 515 q 969 301 969 383 q 928 149 969 219 q 817 38 888 79 q 665 -3 747 -3 q 517 38 583 -3 q 414 149 451 79 q 376 301 376 218 l 376 392 l 349 392 q 289 366 314 392 q 264 306 264 340 l 264 -349 l 64 -349 l 64 306 m 665 207 q 733 234 706 207 q 760 301 760 261 q 733 367 760 340 q 665 393 706 393 l 574 393 l 574 301 q 600 234 574 261 q 665 207 626 207 z "},"ﻢ":{"ha":1093,"x_min":64,"x_max":1107,"o":"m 1093 210 q 1107 196 1107 210 l 1107 14 q 1093 0 1107 0 l 1033 0 q 868 75 929 0 q 774 17 826 38 q 665 -3 722 -3 q 517 38 583 -3 q 414 149 451 79 q 376 301 376 218 l 376 392 l 349 392 q 289 366 314 392 q 264 306 264 340 l 264 -349 l 64 -349 l 64 306 q 102 447 64 382 q 206 551 140 513 q 347 590 271 590 l 665 590 q 818 553 749 590 q 928 449 888 515 q 969 301 969 383 l 969 275 q 988 228 969 247 q 1033 210 1006 210 l 1093 210 m 665 207 q 733 234 706 207 q 760 301 760 261 q 733 367 760 340 q 665 393 706 393 l 574 393 l 574 301 q 600 234 574 261 q 665 207 626 207 z "},"ﻤ":{"ha":871,"x_min":-14,"x_max":885,"o":"m 871 210 q 885 196 885 210 l 885 14 q 871 0 885 0 l 813 0 q 647 75 708 0 q 553 17 606 38 q 444 -3 501 -3 q 340 17 389 -3 q 253 71 292 36 q 92 0 193 0 l 0 0 q -14 14 -14 0 l -14 196 q 0 210 -14 210 l 92 210 q 137 228 118 210 q 156 275 156 247 l 156 392 l 69 392 l 69 590 l 444 590 q 597 553 528 590 q 708 449 667 515 q 749 301 749 383 l 749 275 q 767 228 749 247 q 813 210 785 210 l 871 210 m 444 207 q 511 234 485 207 q 538 301 538 261 q 511 366 538 340 q 444 392 485 392 l 353 392 l 353 301 q 378 234 353 261 q 444 207 404 207 z "},"ﻣ":{"ha":792,"x_min":-14,"x_max":749,"o":"m 444 590 q 597 553 528 590 q 708 449 667 515 q 749 301 749 383 q 708 149 749 219 q 597 38 667 79 q 444 -3 526 -3 q 340 17 389 -3 q 253 71 292 36 q 92 0 193 0 l 0 0 q -14 14 -14 0 l -14 196 q 0 210 -14 210 l 92 210 q 137 228 118 210 q 156 275 156 247 l 156 392 l 69 392 l 69 590 l 444 590 m 444 207 q 511 234 485 207 q 538 301 538 261 q 511 366 538 340 q 444 392 485 392 l 353 392 l 353 301 q 378 234 353 261 q 444 207 404 207 z "},"ن":{"ha":1013,"x_min":64,"x_max":961,"o":"m 418 647 l 597 647 l 597 469 l 418 469 l 418 647 m 511 -244 q 288 -184 390 -244 q 124 -21 185 -124 q 64 203 64 82 l 64 463 l 264 463 l 264 214 q 297 90 264 147 q 388 0 331 33 q 511 -33 444 -33 q 637 0 579 -33 q 728 90 694 33 q 761 214 761 147 l 761 518 l 961 518 l 961 203 q 901 -21 961 82 q 737 -184 840 -124 q 511 -244 633 -244 z "},"ﻦ":{"ha":1086,"x_min":64,"x_max":1100,"o":"m 597 647 l 597 469 l 418 469 l 418 647 l 597 647 m 1086 210 q 1100 196 1100 210 l 1100 14 q 1086 0 1100 0 l 1026 0 q 921 31 963 0 q 759 -169 869 -93 q 511 -244 649 -244 q 288 -184 390 -244 q 124 -21 185 -124 q 64 203 64 82 l 64 463 l 264 463 l 264 214 q 297 90 264 147 q 388 0 331 33 q 511 -33 444 -33 q 637 0 579 -33 q 728 90 694 33 q 761 214 761 147 l 761 518 l 963 518 l 963 275 q 981 228 963 247 q 1026 210 1000 210 l 1086 210 z "},"ﻨ":{"ha":467,"x_min":-14,"x_max":481,"o":"m 144 815 l 322 815 l 322 638 l 144 638 l 144 815 m -14 196 q 0 210 -14 210 l 69 210 q 115 228 97 210 q 133 275 133 247 l 133 518 l 333 518 l 333 275 q 351 228 333 247 q 397 210 369 210 l 467 210 q 481 196 481 210 l 481 14 q 467 0 481 0 l 397 0 q 233 68 294 0 q 69 0 169 0 l 0 0 q -14 14 -14 0 l -14 196 z "},"ﻧ":{"ha":382,"x_min":-14,"x_max":338,"o":"m 143 857 l 321 857 l 321 678 l 143 678 l 143 857 m 0 0 q -14 14 -14 0 l -14 196 q 0 210 -14 210 l 75 210 q 120 229 101 210 q 139 275 139 249 l 139 560 l 338 560 l 338 263 q 303 131 338 192 q 208 35 268 71 q 76 0 149 0 l 0 0 z "},"ں":{"ha":1013,"x_min":64,"x_max":961,"o":"m 511 -244 q 288 -184 390 -244 q 124 -21 185 -124 q 64 203 64 82 l 64 463 l 264 463 l 264 214 q 297 90 264 147 q 388 0 331 33 q 511 -33 444 -33 q 637 0 579 -33 q 728 90 694 33 q 761 214 761 147 l 761 518 l 961 518 l 961 203 q 901 -21 961 82 q 737 -184 840 -124 q 511 -244 633 -244 z "},"ﮟ":{"ha":1086,"x_min":64,"x_max":1100,"o":"m 1086 210 q 1100 196 1100 210 l 1100 14 q 1086 0 1100 0 l 1026 0 q 921 31 963 0 q 759 -169 869 -93 q 511 -244 649 -244 q 288 -184 390 -244 q 124 -21 185 -124 q 64 203 64 82 l 64 463 l 264 463 l 264 214 q 297 90 264 147 q 388 0 331 33 q 511 -33 444 -33 q 637 0 579 -33 q 728 90 694 33 q 761 214 761 147 l 761 518 l 963 518 l 963 275 q 981 228 963 247 q 1026 210 1000 210 l 1086 210 z "},"ه":{"ha":704,"x_min":64,"x_max":661,"o":"m 147 86 q 85 179 106 128 q 64 286 64 231 q 88 403 64 346 q 158 507 113 461 l 222 571 l 160 632 l 303 771 l 568 507 q 638 403 614 461 q 661 286 661 346 q 640 178 661 231 q 578 86 619 126 q 479 21 535 43 q 363 -1 424 -1 q 247 21 303 -1 q 147 86 192 43 m 297 236 q 364 207 326 207 q 429 236 400 207 q 456 297 456 263 q 426 365 456 336 l 363 431 l 299 368 q 269 301 269 339 q 297 236 269 264 z "},"ﻪ":{"ha":776,"x_min":58,"x_max":790,"o":"m 776 210 q 790 196 790 210 l 790 14 q 776 0 790 0 l 718 0 q 610 25 658 0 q 532 94 563 50 q 365 42 460 42 q 212 83 282 42 q 100 194 142 124 q 58 346 58 264 q 100 492 58 426 q 212 597 142 558 q 365 635 282 635 l 457 635 l 457 724 l 654 724 l 654 275 q 672 228 654 247 q 718 210 690 210 l 776 210 m 457 435 l 365 435 q 298 410 325 435 q 271 346 271 385 q 298 278 271 306 q 365 251 325 251 q 431 278 404 251 q 457 346 457 306 l 457 435 z "},"ﻬ":{"ha":769,"x_min":-14,"x_max":783,"o":"m 769 210 q 783 196 783 210 l 783 14 q 769 0 783 0 l 693 0 q 628 -26 653 0 q 604 -94 604 -53 l 604 -146 l 696 -146 l 696 -343 l 349 -343 q 204 -304 271 -343 q 98 -199 138 -265 q 58 -54 58 -132 l 58 0 l 0 0 q -14 14 -14 0 l -14 196 q 0 210 -14 210 l 58 210 l 58 300 q 96 453 58 383 q 199 563 133 522 q 347 604 265 604 q 500 563 429 604 q 612 452 571 522 q 653 300 653 382 q 636 201 653 247 q 708 210 669 210 l 769 210 m 256 210 l 347 210 q 415 235 388 210 q 442 300 442 261 q 415 367 442 340 q 347 393 388 393 q 282 367 308 393 q 256 300 256 340 l 256 210 m 422 -146 l 422 -94 q 439 14 422 -36 q 347 0 390 0 l 258 0 l 258 -54 q 285 -119 258 -92 q 350 -146 313 -146 l 422 -146 z "},"ﻫ":{"ha":1088,"x_min":-14,"x_max":1043,"o":"m 739 589 q 892 551 822 589 q 1002 448 961 514 q 1043 300 1043 382 q 1001 149 1043 218 q 890 40 960 81 q 739 0 819 0 l 0 0 q -14 14 -14 0 l -14 196 q 0 210 -14 210 l 144 210 q 129 294 129 251 q 149 390 129 343 l 60 390 l 60 589 l 739 589 m 333 300 q 360 237 333 264 q 424 210 386 210 q 488 237 461 210 q 514 300 514 264 q 488 364 514 338 q 424 390 461 390 q 360 364 386 390 q 333 300 333 338 m 739 210 q 806 235 779 210 q 833 300 833 261 q 806 365 833 339 q 739 390 779 390 l 671 390 q 686 294 686 342 q 674 210 686 250 l 739 210 z "},"ۀ":{"ha":725,"x_min":64,"x_max":661,"o":"m 360 1011 q 375 1019 369 1013 q 381 1035 381 1026 q 372 1053 381 1046 q 353 1060 364 1061 l 156 1054 l 126 1153 q 121 1194 121 1171 q 156 1298 121 1250 q 246 1360 192 1346 l 389 1399 l 425 1272 l 281 1232 q 251 1196 247 1222 l 253 1188 l 290 1189 q 328 1190 308 1190 q 361 1192 347 1190 q 455 1160 415 1192 q 508 1074 494 1129 q 513 1035 513 1056 q 481 938 513 981 q 396 881 449 894 l 225 835 l 188 965 l 360 1011 m 147 86 q 85 179 106 128 q 64 286 64 231 q 88 403 64 346 q 158 507 113 461 l 222 571 l 160 632 l 303 771 l 568 507 q 638 403 614 461 q 661 286 661 346 q 640 178 661 231 q 578 86 619 126 q 479 21 535 43 q 363 -1 424 -1 q 247 21 303 -1 q 147 86 192 43 m 297 236 q 364 207 326 207 q 429 236 400 207 q 456 297 456 263 q 426 365 456 336 l 363 431 l 299 368 q 269 301 269 339 q 297 236 269 264 z "},"ہ":{"ha":701,"x_min":60,"x_max":658,"o":"m 143 86 q 81 179 101 128 q 60 286 60 231 q 84 403 60 346 q 156 507 108 460 l 219 571 l 157 632 l 299 771 l 565 507 q 635 403 611 461 q 658 286 658 346 q 637 178 658 231 q 574 86 615 126 q 475 21 531 43 q 358 -1 419 -1 q 243 21 299 -1 q 143 86 188 43 m 293 236 q 360 207 322 207 q 426 236 397 207 q 453 297 453 263 q 422 365 453 336 l 358 431 l 296 368 q 267 300 267 339 q 293 236 267 263 z "},"ﮧ":{"ha":760,"x_min":43,"x_max":774,"o":"m 760 210 q 774 196 774 210 l 774 14 q 760 0 774 0 l 700 0 q 561 33 625 0 q 460 124 497 65 l 389 232 l 174 26 l 43 163 l 338 439 l 490 439 l 610 258 q 689 210 642 210 l 760 210 z "},"ﮩ":{"ha":810,"x_min":-14,"x_max":824,"o":"m 810 210 q 824 196 824 210 l 824 14 q 810 0 824 0 l 732 0 q 667 -26 692 0 q 643 -94 643 -53 l 643 -146 l 735 -146 l 735 -343 l 438 -343 q 293 -304 360 -343 q 188 -199 226 -265 q 149 -54 149 -132 l 149 13 q 61 0 107 0 l 0 0 q -14 14 -14 0 l -14 196 q 0 210 -14 210 l 60 210 q 124 237 99 210 q 149 306 149 264 l 149 372 l 347 372 l 347 -54 q 374 -119 347 -92 q 439 -146 401 -146 l 461 -146 l 461 -94 q 498 58 461 -11 q 600 169 535 128 q 749 210 665 210 l 810 210 z "},"ﮨ":{"ha":381,"x_min":-14,"x_max":338,"o":"m 0 0 q -14 14 -14 0 l -14 196 q 0 210 -14 210 l 75 210 q 120 229 101 210 q 139 275 139 249 l 139 560 l 338 560 l 338 263 q 303 131 338 192 q 208 35 268 71 q 76 0 149 0 l 0 0 m 124 -618 q 31 -581 67 -618 q -4 -490 -4 -543 q 34 -326 -4 -418 q 156 -128 72 -235 l 268 -204 q 192 -319 224 -264 q 156 -381 160 -375 q 222 -412 190 -379 q 253 -489 253 -446 q 215 -581 253 -543 q 124 -618 176 -618 z "},"ۂ":{"ha":701,"x_min":60,"x_max":658,"o":"m 204 1003 q 157 1067 171 1028 q 149 1113 149 1090 q 183 1209 149 1164 q 272 1274 217 1254 l 386 1313 l 438 1171 l 340 1135 q 313 1099 313 1124 q 315 1085 313 1093 q 353 1058 328 1058 q 371 1061 365 1058 l 501 1110 l 553 968 l 132 814 l 81 957 l 204 1003 m 143 86 q 81 179 101 128 q 60 286 60 231 q 84 403 60 346 q 156 507 108 460 l 219 571 l 157 632 l 299 771 l 565 507 q 635 403 611 461 q 658 286 658 346 q 637 178 658 231 q 574 86 615 126 q 475 21 531 43 q 358 -1 419 -1 q 243 21 299 -1 q 143 86 188 43 m 293 236 q 360 207 322 207 q 426 236 397 207 q 453 297 453 263 q 422 365 453 336 l 358 431 l 296 368 q 267 300 267 339 q 293 236 267 263 z "},"ھ":{"ha":1088,"x_min":-14,"x_max":1043,"o":"m 739 589 q 892 551 822 589 q 1002 448 961 514 q 1043 300 1043 382 q 1001 149 1043 218 q 890 40 960 81 q 739 0 819 0 l 0 0 q -14 14 -14 0 l -14 196 q 0 210 -14 210 l 144 210 q 129 294 129 251 q 149 390 129 343 l 60 390 l 60 589 l 739 589 m 333 300 q 360 237 333 264 q 424 210 386 210 q 488 237 461 210 q 514 300 514 264 q 488 364 514 338 q 424 390 461 390 q 360 364 386 390 q 333 300 333 338 m 739 210 q 806 235 779 210 q 833 300 833 261 q 806 365 833 339 q 739 390 779 390 l 671 390 q 686 294 686 342 q 674 210 686 250 l 739 210 z "},"ﮫ":{"ha":768,"x_min":61,"x_max":782,"o":"m 768 210 q 782 196 782 210 l 782 14 q 768 0 782 0 l 672 0 q 688 -94 688 -46 q 655 -228 688 -168 q 563 -325 622 -289 q 425 -361 503 -361 q 278 -325 346 -361 q 170 -228 210 -289 q 131 -94 131 -167 q 156 13 131 -37 q 225 100 181 63 q 156 188 181 138 q 131 294 131 238 q 140 363 131 324 l 61 363 l 61 563 l 425 563 q 563 526 503 563 q 655 429 622 490 q 688 294 688 368 q 675 210 688 250 l 768 210 m 515 300 q 489 364 515 338 q 425 390 463 390 q 361 364 388 390 q 335 300 335 338 q 361 237 335 264 q 425 210 388 210 q 489 237 463 210 q 515 300 515 264 m 515 -89 q 494 -31 515 -56 q 440 0 472 -6 l 410 0 q 356 -31 378 -6 q 335 -89 335 -56 q 361 -152 335 -125 q 425 -179 388 -179 q 489 -152 463 -179 q 515 -89 515 -125 z "},"ﮭ":{"ha":1167,"x_min":-14,"x_max":1181,"o":"m 1167 210 q 1181 196 1181 210 l 1181 14 q 1167 0 1181 0 l 1107 0 q 940 76 1001 0 q 847 20 899 40 q 739 0 794 0 l 0 0 q -14 14 -14 0 l -14 196 q 0 210 -14 210 l 144 210 q 129 294 129 251 q 149 390 129 343 l 60 390 l 60 589 l 739 589 q 892 551 822 589 q 1002 448 961 514 q 1043 300 1043 382 l 1043 275 q 1062 228 1043 247 q 1107 210 1081 210 l 1167 210 m 333 300 q 360 237 333 264 q 424 210 386 210 q 488 237 461 210 q 514 300 514 264 q 488 364 514 338 q 424 390 461 390 q 360 364 386 390 q 333 300 333 338 m 739 210 q 806 235 779 210 q 833 300 833 261 q 806 365 833 339 q 739 390 779 390 l 671 390 q 686 294 686 342 q 674 210 686 250 l 739 210 z "},"ﮬ":{"ha":1088,"x_min":-14,"x_max":1043,"o":"m 739 589 q 892 551 822 589 q 1002 448 961 514 q 1043 300 1043 382 q 1001 149 1043 218 q 890 40 960 81 q 739 0 819 0 l 0 0 q -14 14 -14 0 l -14 196 q 0 210 -14 210 l 144 210 q 129 294 129 251 q 149 390 129 343 l 60 390 l 60 589 l 739 589 m 333 300 q 360 237 333 264 q 424 210 386 210 q 488 237 461 210 q 514 300 514 264 q 488 364 514 338 q 424 390 461 390 q 360 364 386 390 q 333 300 333 338 m 739 210 q 806 235 779 210 q 833 300 833 261 q 806 365 833 339 q 739 390 779 390 l 671 390 q 686 294 686 342 q 674 210 686 250 l 739 210 z "},"ة":{"ha":701,"x_min":60,"x_max":658,"o":"m 89 1049 l 267 1049 l 267 871 l 89 871 l 89 1049 m 339 1049 l 517 1049 l 517 871 l 339 871 l 339 1049 m 143 86 q 81 179 101 128 q 60 286 60 231 q 84 403 60 346 q 156 507 108 460 l 219 571 l 157 632 l 299 771 l 565 507 q 635 403 611 461 q 658 286 658 346 q 637 178 658 231 q 574 86 615 126 q 475 21 531 43 q 358 -1 419 -1 q 243 21 299 -1 q 143 86 188 43 m 293 236 q 360 207 322 207 q 426 236 397 207 q 453 297 453 263 q 422 365 453 336 l 358 431 l 296 368 q 267 300 267 339 q 293 236 267 263 z "},"ﺔ":{"ha":774,"x_min":56,"x_max":788,"o":"m 342 1029 l 342 851 l 164 851 l 164 1029 l 342 1029 m 592 1029 l 592 851 l 414 851 l 414 1029 l 592 1029 m 774 210 q 788 196 788 210 l 788 14 q 774 0 788 0 l 715 0 q 606 25 654 0 q 528 94 558 50 q 363 42 456 42 q 208 83 279 42 q 97 193 138 124 q 56 346 56 263 q 97 493 56 426 q 208 597 138 560 q 363 635 279 635 l 454 635 l 454 724 l 651 724 l 651 275 q 669 228 651 247 q 715 210 688 210 l 774 210 m 454 435 l 363 435 q 295 410 322 435 q 268 346 268 385 q 295 278 268 306 q 363 251 322 251 q 428 278 401 251 q 454 346 454 306 l 454 435 z "},"ۃ":{"ha":701,"x_min":60,"x_max":658,"o":"m 89 1049 l 267 1049 l 267 871 l 89 871 l 89 1049 m 339 1049 l 517 1049 l 517 871 l 339 871 l 339 1049 m 143 86 q 81 179 101 128 q 60 286 60 231 q 84 403 60 346 q 156 507 108 460 l 219 571 l 157 632 l 299 771 l 565 507 q 635 403 611 461 q 658 286 658 346 q 637 178 658 231 q 574 86 615 126 q 475 21 531 43 q 358 -1 419 -1 q 243 21 299 -1 q 143 86 188 43 m 293 236 q 360 207 322 207 q 426 236 397 207 q 453 297 453 263 q 422 365 453 336 l 358 431 l 296 368 q 267 300 267 339 q 293 236 267 263 z "},"و":{"ha":707,"x_min":61,"x_max":654,"o":"m 167 -218 q 351 -132 290 -165 q 433 -69 411 -99 q 456 0 456 -40 l 365 0 q 213 38 282 0 q 102 141 143 75 q 61 289 61 207 q 102 442 61 372 q 213 552 143 511 q 365 593 282 593 q 513 552 446 593 q 617 442 579 511 q 654 289 654 372 l 654 86 q 615 -123 654 -43 q 487 -262 575 -203 q 229 -394 399 -321 l 167 -218 m 456 290 q 430 357 456 331 q 365 383 404 383 q 298 357 325 383 q 271 290 271 331 q 298 224 271 250 q 365 197 325 197 l 456 197 l 456 290 z "},"ﻮ":{"ha":711,"x_min":61,"x_max":725,"o":"m 711 210 q 725 196 725 210 l 725 14 q 711 0 725 0 l 649 0 q 592 -161 638 -96 q 463 -278 547 -226 q 229 -394 379 -331 l 167 -218 q 351 -132 290 -165 q 433 -69 411 -99 q 456 0 456 -40 l 365 0 q 213 38 282 0 q 102 141 143 75 q 61 289 61 207 q 102 442 61 372 q 213 552 143 511 q 365 593 282 593 q 513 552 446 593 q 617 442 579 511 q 654 289 654 372 l 654 210 l 711 210 m 456 290 q 430 357 456 331 q 365 383 404 383 q 298 357 325 383 q 271 290 271 331 q 298 224 271 250 q 365 197 325 197 l 456 197 l 456 290 z "},"ؤ":{"ha":707,"x_min":61,"x_max":654,"o":"m 256 863 q 207 926 222 888 q 200 971 200 946 q 233 1068 200 1024 q 322 1132 267 1113 l 436 1172 l 488 1029 l 390 993 q 364 960 364 985 q 375 929 364 942 q 403 917 386 917 q 421 921 413 917 l 553 968 l 604 828 l 182 674 l 132 817 l 256 863 m 167 -218 q 351 -132 290 -165 q 433 -69 411 -99 q 456 0 456 -40 l 365 0 q 213 38 282 0 q 102 141 143 75 q 61 289 61 207 q 102 442 61 372 q 213 552 143 511 q 365 593 282 593 q 513 552 446 593 q 617 442 579 511 q 654 289 654 372 l 654 86 q 615 -123 654 -43 q 487 -262 575 -203 q 229 -394 399 -321 l 167 -218 m 456 197 l 456 290 q 430 357 456 331 q 365 383 404 383 q 298 357 325 383 q 271 290 271 331 q 298 224 271 250 q 365 197 325 197 l 456 197 z "},"ﺆ":{"ha":711,"x_min":61,"x_max":725,"o":"m 132 817 l 256 863 q 207 926 222 888 q 200 971 200 946 q 233 1068 200 1024 q 322 1132 267 1113 l 436 1172 l 488 1029 l 390 993 q 364 960 364 985 q 375 929 364 942 q 403 917 386 917 q 421 921 413 917 l 553 968 l 604 828 l 182 674 l 132 817 m 711 210 q 725 196 725 210 l 725 14 q 711 0 725 0 l 649 0 q 592 -161 638 -96 q 463 -278 547 -226 q 229 -394 379 -331 l 167 -218 q 351 -132 290 -165 q 433 -69 411 -99 q 456 0 456 -40 l 365 0 q 213 38 282 0 q 102 141 143 75 q 61 289 61 207 q 102 442 61 372 q 213 552 143 511 q 365 593 282 593 q 513 552 446 593 q 617 442 579 511 q 654 289 654 372 l 654 210 l 711 210 m 456 290 q 430 357 456 331 q 365 383 404 383 q 298 357 325 383 q 271 290 271 331 q 298 224 271 250 q 365 197 325 197 l 456 197 l 456 290 z "},"ۆ":{"ha":707,"x_min":61,"x_max":654,"o":"m 306 733 q 285 826 306 794 q 232 871 265 858 q 147 888 199 883 l 147 1036 q 308 1003 249 1038 q 368 896 367 968 q 427 1003 369 968 q 588 1036 485 1038 l 588 888 q 503 871 536 883 q 451 826 471 858 q 431 733 431 794 l 306 733 m 167 -218 q 351 -132 290 -165 q 433 -69 411 -99 q 456 0 456 -40 l 365 0 q 213 38 282 0 q 102 141 143 75 q 61 289 61 207 q 102 442 61 372 q 213 552 143 511 q 365 593 282 593 q 513 552 446 593 q 617 442 579 511 q 654 289 654 372 l 654 86 q 615 -123 654 -43 q 487 -262 575 -203 q 229 -394 399 -321 l 167 -218 m 456 290 q 430 357 456 331 q 365 383 404 383 q 298 357 325 383 q 271 290 271 331 q 298 224 271 250 q 365 197 325 197 l 456 197 l 456 290 z "}}}
